<svg width="385" height="285" viewBox="0 0 385 285" fill="none" xmlns="http://www.w3.org/2000/svg">
<g clip-path="url(#clip0)">
<g opacity="0.1">
<g opacity="0.1">
<path d="M308.274 201.916C308.274 201.916 280.789 198.346 301.287 242.847C301.287 242.847 319.967 234.84 320.711 216.777C320.862 213.262 319.719 209.813 317.499 207.085C315.278 204.356 312.135 202.537 308.663 201.973L308.274 201.916Z" fill="#3E66FB"/>
<path d="M308.274 201.916C308.274 201.916 280.789 198.346 301.287 242.847C301.287 242.847 319.967 234.84 320.711 216.777C320.862 213.262 319.719 209.813 317.499 207.085C315.278 204.356 312.135 202.537 308.663 201.973L308.274 201.916Z" fill="black" fill-opacity="0.25"/>
</g>
<path opacity="0.1" d="M308.677 201.85C308.677 201.85 314.899 226.663 301.308 242.851" stroke="#535461" stroke-miterlimit="10"/>
<path opacity="0.1" d="M300.936 245.143C300.936 245.143 310.832 220.744 329.312 211.694C337.093 207.947 343.449 201.775 347.423 194.105C349.28 190.452 350.799 186.636 351.961 182.706" stroke="#535461" stroke-width="2" stroke-miterlimit="10"/>
<g opacity="0.1">
<path d="M363.573 176.938C361.646 179.36 351.676 182.906 351.676 182.906C351.676 182.906 352.876 172.374 354.803 169.969C355.243 169.342 355.806 168.81 356.458 168.409C357.11 168.007 357.838 167.743 358.596 167.633C359.354 167.523 360.127 167.569 360.867 167.769C361.606 167.969 362.297 168.318 362.897 168.795C363.496 169.272 363.992 169.867 364.353 170.543C364.715 171.219 364.934 171.961 364.997 172.725C365.061 173.489 364.968 174.257 364.723 174.984C364.479 175.71 364.089 176.379 363.576 176.948L363.573 176.938Z" fill="#3E66FB"/>
<path d="M363.573 176.938C361.646 179.36 351.676 182.906 351.676 182.906C351.676 182.906 352.876 172.374 354.803 169.969C355.243 169.342 355.806 168.81 356.458 168.409C357.11 168.007 357.838 167.743 358.596 167.633C359.354 167.523 360.127 167.569 360.867 167.769C361.606 167.969 362.297 168.318 362.897 168.795C363.496 169.272 363.992 169.867 364.353 170.543C364.715 171.219 364.934 171.961 364.997 172.725C365.061 173.489 364.968 174.257 364.723 174.984C364.479 175.71 364.089 176.379 363.576 176.948L363.573 176.938Z" fill="black" fill-opacity="0.25"/>
</g>
<g opacity="0.1">
<path d="M360.151 196.124C357.217 197.11 346.928 194.656 346.928 194.656C346.928 194.656 353.648 186.483 356.582 185.497C357.293 185.206 358.056 185.063 358.823 185.079C359.591 185.094 360.348 185.267 361.046 185.586C361.745 185.906 362.37 186.365 362.884 186.936C363.398 187.507 363.789 188.177 364.034 188.906C364.278 189.634 364.371 190.405 364.306 191.17C364.241 191.936 364.02 192.68 363.656 193.356C363.292 194.033 362.793 194.628 362.19 195.104C361.587 195.58 360.893 195.927 360.151 196.124Z" fill="#3E66FB"/>
<path d="M360.151 196.124C357.217 197.11 346.928 194.656 346.928 194.656C346.928 194.656 353.648 186.483 356.582 185.497C357.293 185.206 358.056 185.063 358.823 185.079C359.591 185.094 360.348 185.267 361.046 185.586C361.745 185.906 362.37 186.365 362.884 186.936C363.398 187.507 363.789 188.177 364.034 188.906C364.278 189.634 364.371 190.405 364.306 191.17C364.241 191.936 364.02 192.68 363.656 193.356C363.292 194.033 362.793 194.628 362.19 195.104C361.587 195.58 360.893 195.927 360.151 196.124Z" fill="black" fill-opacity="0.25"/>
</g>
<g opacity="0.1">
<path d="M341.601 218.806C338.573 218.178 330.926 210.862 330.926 210.862C330.926 210.862 340.85 207.2 343.882 207.828C345.254 208.211 346.43 209.101 347.17 210.318C347.911 211.535 348.162 212.988 347.872 214.383C347.582 215.778 346.773 217.01 345.609 217.831C344.444 218.652 343.012 218.999 341.601 218.803V218.806Z" fill="#3E66FB"/>
<path d="M341.601 218.806C338.573 218.178 330.926 210.862 330.926 210.862C330.926 210.862 340.85 207.2 343.882 207.828C345.254 208.211 346.43 209.101 347.17 210.318C347.911 211.535 348.162 212.988 347.872 214.383C347.582 215.778 346.773 217.01 345.609 217.831C344.444 218.652 343.012 218.999 341.601 218.803V218.806Z" fill="black" fill-opacity="0.25"/>
</g>
<g opacity="0.1">
<path d="M323.704 232.807C320.612 232.698 311.839 226.783 311.839 226.783C311.839 226.783 321.006 221.488 324.097 221.601C325.515 221.745 326.824 222.423 327.761 223.497C328.697 224.571 329.19 225.962 329.14 227.386C329.09 228.81 328.501 230.163 327.491 231.168C326.482 232.174 325.128 232.759 323.704 232.803V232.807Z" fill="#3E66FB"/>
<path d="M323.704 232.807C320.612 232.698 311.839 226.783 311.839 226.783C311.839 226.783 321.006 221.488 324.097 221.601C325.515 221.745 326.824 222.423 327.761 223.497C328.697 224.571 329.19 225.962 329.14 227.386C329.09 228.81 328.501 230.163 327.491 231.168C326.482 232.174 325.128 232.759 323.704 232.803V232.807Z" fill="black" fill-opacity="0.25"/>
</g>
<g opacity="0.1">
<path d="M337.348 187.786C337.744 190.858 344.444 199.045 344.444 199.045C344.444 199.045 348.855 189.425 348.462 186.354C348.413 185.587 348.208 184.838 347.859 184.153C347.51 183.468 347.024 182.863 346.432 182.374C345.839 181.885 345.153 181.522 344.415 181.309C343.676 181.096 342.902 181.037 342.141 181.135C341.379 181.233 340.645 181.487 339.985 181.88C339.325 182.273 338.753 182.798 338.303 183.421C337.854 184.045 337.537 184.754 337.373 185.504C337.209 186.255 337.2 187.032 337.348 187.786Z" fill="#3E66FB"/>
<path d="M337.348 187.786C337.744 190.858 344.444 199.045 344.444 199.045C344.444 199.045 348.855 189.425 348.462 186.354C348.413 185.587 348.208 184.838 347.859 184.153C347.51 183.468 347.024 182.863 346.432 182.374C345.839 181.885 345.153 181.522 344.415 181.309C343.676 181.096 342.902 181.037 342.141 181.135C341.379 181.233 340.645 181.487 339.985 181.88C339.325 182.273 338.753 182.798 338.303 183.421C337.854 184.045 337.537 184.754 337.373 185.504C337.209 186.255 337.2 187.032 337.348 187.786Z" fill="black" fill-opacity="0.25"/>
</g>
<g opacity="0.1">
<path d="M316.622 204.441C317.917 207.249 326.761 213.059 326.761 213.059C326.761 213.059 328.094 202.559 326.799 199.75C326.523 199.034 326.103 198.381 325.565 197.833C325.027 197.285 324.383 196.853 323.671 196.564C322.96 196.275 322.197 196.135 321.429 196.153C320.662 196.171 319.906 196.346 319.209 196.668C318.511 196.989 317.887 197.451 317.375 198.023C316.863 198.595 316.474 199.267 316.232 199.996C315.989 200.724 315.899 201.495 315.966 202.26C316.033 203.025 316.257 203.769 316.622 204.444V204.441Z" fill="#3E66FB"/>
<path d="M316.622 204.441C317.917 207.249 326.761 213.059 326.761 213.059C326.761 213.059 328.094 202.559 326.799 199.75C326.523 199.034 326.103 198.381 325.565 197.833C325.027 197.285 324.383 196.853 323.671 196.564C322.96 196.275 322.197 196.135 321.429 196.153C320.662 196.171 319.906 196.346 319.209 196.668C318.511 196.989 317.887 197.451 317.375 198.023C316.863 198.595 316.474 199.267 316.232 199.996C315.989 200.724 315.899 201.495 315.966 202.26C316.033 203.025 316.257 203.769 316.622 204.444V204.441Z" fill="black" fill-opacity="0.25"/>
</g>
<g opacity="0.1">
<path d="M298.697 223.377C299.497 226.368 307.235 233.586 307.235 233.586C307.235 233.586 310.323 223.465 309.519 220.474C309.37 219.719 309.067 219.004 308.63 218.371C308.193 217.739 307.631 217.203 306.978 216.796C306.325 216.39 305.596 216.122 304.836 216.01C304.075 215.897 303.3 215.941 302.557 216.14C301.815 216.34 301.121 216.689 300.519 217.167C299.918 217.646 299.42 218.243 299.058 218.921C298.696 219.6 298.478 220.345 298.415 221.112C298.353 221.878 298.449 222.649 298.697 223.377Z" fill="#3E66FB"/>
<path d="M298.697 223.377C299.497 226.368 307.235 233.586 307.235 233.586C307.235 233.586 310.323 223.465 309.519 220.474C309.37 219.719 309.067 219.004 308.63 218.371C308.193 217.739 307.631 217.203 306.978 216.796C306.325 216.39 305.596 216.122 304.836 216.01C304.075 215.897 303.3 215.941 302.557 216.14C301.815 216.34 301.121 216.689 300.519 217.167C299.918 217.646 299.42 218.243 299.058 218.921C298.696 219.6 298.478 220.345 298.415 221.112C298.353 221.878 298.449 222.649 298.697 223.377Z" fill="black" fill-opacity="0.25"/>
</g>
<path opacity="0.25" d="M363.573 176.938C361.646 179.36 351.676 182.906 351.676 182.906C351.676 182.906 352.876 172.374 354.803 169.969C355.243 169.342 355.806 168.81 356.458 168.409C357.11 168.007 357.838 167.743 358.596 167.633C359.354 167.523 360.127 167.569 360.867 167.769C361.606 167.969 362.297 168.318 362.897 168.795C363.496 169.272 363.992 169.867 364.353 170.543C364.715 171.219 364.934 171.961 364.997 172.725C365.061 173.489 364.968 174.257 364.723 174.984C364.479 175.71 364.089 176.379 363.576 176.948L363.573 176.938Z" fill="black"/>
<path opacity="0.25" d="M360.151 196.124C357.217 197.11 346.928 194.656 346.928 194.656C346.928 194.656 353.648 186.483 356.582 185.497C357.293 185.206 358.056 185.063 358.823 185.079C359.591 185.094 360.348 185.267 361.046 185.586C361.745 185.906 362.37 186.365 362.884 186.936C363.398 187.507 363.789 188.177 364.034 188.906C364.278 189.634 364.371 190.405 364.306 191.17C364.241 191.936 364.02 192.68 363.656 193.356C363.292 194.033 362.793 194.628 362.19 195.104C361.587 195.58 360.893 195.927 360.151 196.124Z" fill="black"/>
<path opacity="0.25" d="M341.601 218.806C338.573 218.178 330.926 210.862 330.926 210.862C330.926 210.862 340.85 207.2 343.882 207.828C345.254 208.211 346.43 209.101 347.17 210.318C347.911 211.535 348.162 212.988 347.872 214.383C347.582 215.778 346.773 217.01 345.609 217.831C344.444 218.652 343.012 218.999 341.601 218.803V218.806Z" fill="black"/>
<path opacity="0.25" d="M323.704 232.807C320.612 232.698 311.839 226.783 311.839 226.783C311.839 226.783 321.006 221.488 324.097 221.601C325.515 221.745 326.824 222.423 327.761 223.497C328.697 224.571 329.19 225.962 329.14 227.386C329.09 228.81 328.501 230.163 327.491 231.168C326.482 232.174 325.128 232.759 323.704 232.803V232.807Z" fill="black"/>
<path opacity="0.25" d="M337.348 187.786C337.744 190.858 344.444 199.045 344.444 199.045C344.444 199.045 348.855 189.425 348.462 186.354C348.413 185.587 348.208 184.838 347.859 184.153C347.51 183.468 347.024 182.863 346.432 182.374C345.839 181.885 345.153 181.522 344.415 181.309C343.676 181.096 342.902 181.037 342.141 181.135C341.379 181.233 340.645 181.487 339.985 181.88C339.325 182.273 338.753 182.798 338.303 183.421C337.854 184.045 337.537 184.754 337.373 185.504C337.209 186.255 337.2 187.032 337.348 187.786Z" fill="black"/>
<path opacity="0.25" d="M316.622 204.441C317.917 207.249 326.761 213.059 326.761 213.059C326.761 213.059 328.094 202.559 326.799 199.75C326.523 199.034 326.103 198.381 325.565 197.833C325.027 197.285 324.383 196.853 323.671 196.564C322.96 196.275 322.197 196.135 321.429 196.153C320.662 196.171 319.906 196.346 319.209 196.668C318.511 196.989 317.887 197.451 317.375 198.023C316.863 198.595 316.474 199.267 316.232 199.996C315.989 200.724 315.899 201.495 315.966 202.26C316.033 203.025 316.257 203.769 316.622 204.444V204.441Z" fill="black"/>
<path opacity="0.25" d="M298.697 223.377C299.497 226.368 307.235 233.586 307.235 233.586C307.235 233.586 310.323 223.465 309.519 220.474C309.37 219.719 309.067 219.004 308.63 218.371C308.193 217.739 307.631 217.203 306.978 216.796C306.325 216.39 305.596 216.122 304.836 216.01C304.075 215.897 303.3 215.941 302.557 216.14C301.815 216.34 301.121 216.689 300.519 217.167C299.918 217.646 299.42 218.243 299.058 218.921C298.696 219.6 298.478 220.345 298.415 221.112C298.353 221.878 298.449 222.649 298.697 223.377Z" fill="black"/>
<path opacity="0.1" d="M314.117 256.244C314.117 256.244 324.013 231.845 342.493 222.794C350.27 219.045 356.622 212.872 360.593 205.202C362.451 201.549 363.969 197.734 365.131 193.803" stroke="#535461" stroke-width="2" stroke-miterlimit="10"/>
<g opacity="0.1">
<path d="M376.736 188.032C374.809 190.454 364.839 194 364.839 194C364.839 194 366.04 183.468 367.966 181.063C368.923 179.999 370.249 179.341 371.674 179.222C373.099 179.103 374.516 179.533 375.635 180.423C376.754 181.314 377.492 182.598 377.697 184.014C377.902 185.43 377.56 186.87 376.739 188.042L376.736 188.032Z" fill="#3E66FB"/>
<path d="M376.736 188.032C374.809 190.454 364.839 194 364.839 194C364.839 194 366.04 183.468 367.966 181.063C368.923 179.999 370.249 179.341 371.674 179.222C373.099 179.103 374.516 179.533 375.635 180.423C376.754 181.314 377.492 182.598 377.697 184.014C377.902 185.43 377.56 186.87 376.739 188.042L376.736 188.032Z" fill="black" fill-opacity="0.25"/>
</g>
<g opacity="0.1">
<path d="M373.321 207.218C370.388 208.204 360.098 205.75 360.098 205.75C360.098 205.75 366.819 197.577 369.752 196.591C371.131 196.225 372.597 196.398 373.853 197.074C375.109 197.75 376.06 198.879 376.514 200.231C376.969 201.584 376.891 203.058 376.298 204.356C375.705 205.653 374.641 206.676 373.321 207.218Z" fill="#3E66FB"/>
<path d="M373.321 207.218C370.388 208.204 360.098 205.75 360.098 205.75C360.098 205.75 366.819 197.577 369.752 196.591C371.131 196.225 372.597 196.398 373.853 197.074C375.109 197.75 376.06 198.879 376.514 200.231C376.969 201.584 376.891 203.058 376.298 204.356C375.705 205.653 374.641 206.676 373.321 207.218Z" fill="black" fill-opacity="0.25"/>
</g>
<g opacity="0.1">
<path d="M354.771 229.914C351.743 229.286 344.096 221.969 344.096 221.969C344.096 221.969 354.02 218.308 357.052 218.936C358.424 219.319 359.6 220.209 360.341 221.425C361.081 222.642 361.332 224.096 361.042 225.491C360.752 226.886 359.943 228.118 358.779 228.939C357.615 229.759 356.182 230.107 354.771 229.91V229.914Z" fill="#3E66FB"/>
<path d="M354.771 229.914C351.743 229.286 344.096 221.969 344.096 221.969C344.096 221.969 354.02 218.308 357.052 218.936C358.424 219.319 359.6 220.209 360.341 221.425C361.081 222.642 361.332 224.096 361.042 225.491C360.752 226.886 359.943 228.118 358.779 228.939C357.615 229.759 356.182 230.107 354.771 229.91V229.914Z" fill="black" fill-opacity="0.25"/>
</g>
<g opacity="0.1">
<path d="M336.871 243.897C333.779 243.788 325.006 237.873 325.006 237.873C325.006 237.873 334.172 232.586 337.264 232.694C338.681 232.839 339.991 233.517 340.927 234.591C341.863 235.665 342.357 237.055 342.307 238.48C342.257 239.904 341.667 241.256 340.658 242.262C339.648 243.268 338.295 243.853 336.871 243.897Z" fill="#3E66FB"/>
<path d="M336.871 243.897C333.779 243.788 325.006 237.873 325.006 237.873C325.006 237.873 334.172 232.586 337.264 232.694C338.681 232.839 339.991 233.517 340.927 234.591C341.863 235.665 342.357 237.055 342.307 238.48C342.257 239.904 341.667 241.256 340.658 242.262C339.648 243.268 338.295 243.853 336.871 243.897Z" fill="black" fill-opacity="0.25"/>
</g>
<g opacity="0.1">
<path d="M350.515 198.894C350.911 201.966 357.61 210.152 357.61 210.152C357.61 210.152 362.022 200.533 361.629 197.461C361.58 196.694 361.375 195.945 361.026 195.261C360.677 194.576 360.191 193.971 359.599 193.481C359.006 192.992 358.319 192.63 357.581 192.417C356.843 192.204 356.069 192.145 355.307 192.243C354.545 192.341 353.812 192.595 353.152 192.988C352.492 193.381 351.919 193.906 351.47 194.529C351.021 195.152 350.704 195.862 350.54 196.612C350.376 197.363 350.367 198.14 350.515 198.894Z" fill="#3E66FB"/>
<path d="M350.515 198.894C350.911 201.966 357.61 210.152 357.61 210.152C357.61 210.152 362.022 200.533 361.629 197.461C361.58 196.694 361.375 195.945 361.026 195.261C360.677 194.576 360.191 193.971 359.599 193.481C359.006 192.992 358.319 192.63 357.581 192.417C356.843 192.204 356.069 192.145 355.307 192.243C354.545 192.341 353.812 192.595 353.152 192.988C352.492 193.381 351.919 193.906 351.47 194.529C351.021 195.152 350.704 195.862 350.54 196.612C350.376 197.363 350.367 198.14 350.515 198.894Z" fill="black" fill-opacity="0.25"/>
</g>
<g opacity="0.1">
<path d="M329.793 215.52C331.087 218.329 339.931 224.139 339.931 224.139C339.931 224.139 341.264 213.639 339.969 210.83C339.29 209.575 338.158 208.626 336.805 208.175C335.451 207.725 333.977 207.807 332.681 208.404C331.386 209.002 330.366 210.07 329.83 211.393C329.293 212.715 329.28 214.192 329.793 215.524V215.52Z" fill="#3E66FB"/>
<path d="M329.793 215.52C331.087 218.329 339.931 224.139 339.931 224.139C339.931 224.139 341.264 213.639 339.969 210.83C339.29 209.575 338.158 208.626 336.805 208.175C335.451 207.725 333.977 207.807 332.681 208.404C331.386 209.002 330.366 210.07 329.83 211.393C329.293 212.715 329.28 214.192 329.793 215.524V215.52Z" fill="black" fill-opacity="0.25"/>
</g>
<g opacity="0.1">
<path d="M311.867 234.478C312.667 237.469 320.405 244.687 320.405 244.687C320.405 244.687 323.493 234.566 322.69 231.575C322.23 230.225 321.276 229.101 320.019 228.43C318.762 227.759 317.297 227.591 315.921 227.961C314.545 228.33 313.36 229.208 312.608 230.419C311.855 231.629 311.59 233.08 311.867 234.478Z" fill="#3E66FB"/>
<path d="M311.867 234.478C312.667 237.469 320.405 244.687 320.405 244.687C320.405 244.687 323.493 234.566 322.69 231.575C322.23 230.225 321.276 229.101 320.019 228.43C318.762 227.759 317.297 227.591 315.921 227.961C314.545 228.33 313.36 229.208 312.608 230.419C311.855 231.629 311.59 233.08 311.867 234.478Z" fill="black" fill-opacity="0.25"/>
</g>
</g>
<g opacity="0.1">
<path d="M4.1582 150.948C10.2503 176.998 23.1468 199.515 43.5285 210.43C85.8852 233.112 181.411 221.415 252.704 207.972C288.727 201.205 321.425 182.508 345.535 154.891L4.1582 150.948Z" fill="#3E66FB"/>
<path d="M4.1582 150.948C10.2503 176.998 23.1468 199.515 43.5285 210.43C85.8852 233.112 181.411 221.415 252.704 207.972C288.727 201.205 321.425 182.508 345.535 154.891L4.1582 150.948Z" fill="black" fill-opacity="0.25"/>
</g>
<g opacity="0.1">
<path d="M378.017 28.3346H338.899C338.002 28.3346 337.142 27.9783 336.508 27.3439C335.874 26.7096 335.518 25.8492 335.518 24.9521C335.518 24.055 335.874 23.1946 336.508 22.5603C337.142 21.9259 338.002 21.5696 338.899 21.5696H345.661C344.765 21.5696 343.905 21.2132 343.27 20.5789C342.636 19.9445 342.28 19.0841 342.28 18.187C342.28 17.2899 342.636 16.4296 343.27 15.7952C343.905 15.1609 344.765 14.8045 345.661 14.8045H340.833C339.936 14.8045 339.076 14.4481 338.442 13.8138C337.808 13.1794 337.451 12.3191 337.451 11.422C337.451 10.5249 337.808 9.66451 338.442 9.03016C339.076 8.39581 339.936 8.03944 340.833 8.03944H361.249C356.719 5.93303 351.423 4.43398 345.324 3.64758C289.654 -3.50717 269.777 1.22522 262.766 6.10506C254.115 12.1083 244.465 16.5247 234.151 18.6522C199.799 25.7332 135.562 34.2642 77.3404 15.9139C48.4031 6.78613 26.8949 22.205 14.0054 47.9593H384.807C384.323 40.4746 382.873 33.5655 380.213 27.5131C379.603 28.0419 378.824 28.3335 378.017 28.3346Z" fill="#3E66FB"/>
<path d="M378.017 28.3346H338.899C338.002 28.3346 337.142 27.9783 336.508 27.3439C335.874 26.7096 335.518 25.8492 335.518 24.9521C335.518 24.055 335.874 23.1946 336.508 22.5603C337.142 21.9259 338.002 21.5696 338.899 21.5696H345.661C344.765 21.5696 343.905 21.2132 343.27 20.5789C342.636 19.9445 342.28 19.0841 342.28 18.187C342.28 17.2899 342.636 16.4296 343.27 15.7952C343.905 15.1609 344.765 14.8045 345.661 14.8045H340.833C339.936 14.8045 339.076 14.4481 338.442 13.8138C337.808 13.1794 337.451 12.3191 337.451 11.422C337.451 10.5249 337.808 9.66451 338.442 9.03016C339.076 8.39581 339.936 8.03944 340.833 8.03944H361.249C356.719 5.93303 351.423 4.43398 345.324 3.64758C289.654 -3.50717 269.777 1.22522 262.766 6.10506C254.115 12.1083 244.465 16.5247 234.151 18.6522C199.799 25.7332 135.562 34.2642 77.3404 15.9139C48.4031 6.78613 26.8949 22.205 14.0054 47.9593H384.807C384.323 40.4746 382.873 33.5655 380.213 27.5131C379.603 28.0419 378.824 28.3335 378.017 28.3346Z" fill="black" fill-opacity="0.25"/>
</g>
<g opacity="0.1">
<path d="M0.838658 96.5786C-0.663121 111.729 -0.152176 127.012 2.35816 142.028L345.802 154.593C355.362 143.59 363.389 131.344 369.665 118.187L0.838658 96.5786ZM136.675 129H129.912C130.809 129 131.669 129.356 132.303 129.99C132.937 130.625 133.294 131.485 133.294 132.382C133.294 133.279 132.937 134.14 132.303 134.774C131.669 135.408 130.809 135.765 129.912 135.765H90.7948C89.8981 135.765 89.0381 135.408 88.404 134.774C87.7699 134.14 87.4137 133.279 87.4137 132.382C87.4137 131.485 87.7699 130.625 88.404 129.99C89.0381 129.356 89.8981 129 90.7948 129H97.5571C96.6604 129 95.8004 128.643 95.1663 128.009C94.5322 127.375 94.176 126.514 94.176 125.617C94.176 124.72 94.5322 123.86 95.1663 123.225C95.8004 122.591 96.6604 122.235 97.5571 122.235H92.7284C91.8317 122.235 90.9717 121.878 90.3376 121.244C89.7035 120.61 89.3473 119.749 89.3473 118.852C89.3473 117.955 89.7035 117.095 90.3376 116.46C90.9717 115.826 91.8317 115.47 92.7284 115.47H131.846C132.743 115.47 133.603 115.826 134.237 116.46C134.871 117.095 135.227 117.955 135.227 118.852C135.227 119.749 134.871 120.61 134.237 121.244C133.603 121.878 132.743 122.235 131.846 122.235H136.675C137.572 122.235 138.432 122.591 139.066 123.225C139.7 123.86 140.056 124.72 140.056 125.617C140.056 126.514 139.7 127.375 139.066 128.009C138.432 128.643 137.572 129 136.675 129Z" fill="#3E66FB"/>
<path d="M0.838658 96.5786C-0.663121 111.729 -0.152176 127.012 2.35816 142.028L345.802 154.593C355.362 143.59 363.389 131.344 369.665 118.187L0.838658 96.5786ZM136.675 129H129.912C130.809 129 131.669 129.356 132.303 129.99C132.937 130.625 133.294 131.485 133.294 132.382C133.294 133.279 132.937 134.14 132.303 134.774C131.669 135.408 130.809 135.765 129.912 135.765H90.7948C89.8981 135.765 89.0381 135.408 88.404 134.774C87.7699 134.14 87.4137 133.279 87.4137 132.382C87.4137 131.485 87.7699 130.625 88.404 129.99C89.0381 129.356 89.8981 129 90.7948 129H97.5571C96.6604 129 95.8004 128.643 95.1663 128.009C94.5322 127.375 94.176 126.514 94.176 125.617C94.176 124.72 94.5322 123.86 95.1663 123.225C95.8004 122.591 96.6604 122.235 97.5571 122.235H92.7284C91.8317 122.235 90.9717 121.878 90.3376 121.244C89.7035 120.61 89.3473 119.749 89.3473 118.852C89.3473 117.955 89.7035 117.095 90.3376 116.46C90.9717 115.826 91.8317 115.47 92.7284 115.47H131.846C132.743 115.47 133.603 115.826 134.237 116.46C134.871 117.095 135.227 117.955 135.227 118.852C135.227 119.749 134.871 120.61 134.237 121.244C133.603 121.878 132.743 122.235 131.846 122.235H136.675C137.572 122.235 138.432 122.591 139.066 123.225C139.7 123.86 140.056 124.72 140.056 125.617C140.056 126.514 139.7 127.375 139.066 128.009C138.432 128.643 137.572 129 136.675 129Z" fill="black" fill-opacity="0.25"/>
</g>
<g opacity="0.1">
<path d="M384.825 48.1945L9.86467 57.3223C5.30615 69.0514 2.29872 82.3112 0.89502 96.0555H378.255C380.719 87.9818 382.542 79.7259 383.705 71.365C384.828 63.2869 385.277 55.4722 384.825 48.1945ZM77.0177 78.0949H70.2554C71.1521 78.0949 72.0121 78.4513 72.6462 79.0857C73.2803 79.72 73.6365 80.5804 73.6365 81.4775C73.6365 82.3746 73.2803 83.2349 72.6462 83.8693C72.0121 84.5036 71.1521 84.86 70.2554 84.86H31.1377C30.241 84.86 29.381 84.5036 28.7469 83.8693C28.1128 83.2349 27.7566 82.3746 27.7566 81.4775C27.7566 80.5804 28.1128 79.72 28.7469 79.0857C29.381 78.4513 30.241 78.0949 31.1377 78.0949H37.9001C37.0033 78.0949 36.1433 77.7386 35.5092 77.1042C34.8751 76.4699 34.5189 75.6095 34.5189 74.7124C34.5189 73.8153 34.8751 72.9549 35.5092 72.3206C36.1433 71.6862 37.0033 71.3299 37.9001 71.3299H33.0714C32.1746 71.3299 31.3146 70.9735 30.6805 70.3391C30.0464 69.7048 29.6902 68.8444 29.6902 67.9473C29.6902 67.0502 30.0464 66.1899 30.6805 65.5555C31.3146 64.9212 32.1746 64.5648 33.0714 64.5648H72.189C73.0857 64.5648 73.9457 64.9212 74.5798 65.5555C75.2139 66.1899 75.5701 67.0502 75.5701 67.9473C75.5701 68.8444 75.2139 69.7048 74.5798 70.3391C73.9457 70.9735 73.0857 71.3299 72.189 71.3299H77.0177C77.9145 71.3299 78.7745 71.6862 79.4086 72.3206C80.0426 72.9549 80.3989 73.8153 80.3989 74.7124C80.3989 75.6095 80.0426 76.4699 79.4086 77.1042C78.7745 77.7386 77.9145 78.0949 77.0177 78.0949Z" fill="#3E66FB"/>
<path d="M384.825 48.1945L9.86467 57.3223C5.30615 69.0514 2.29872 82.3112 0.89502 96.0555H378.255C380.719 87.9818 382.542 79.7259 383.705 71.365C384.828 63.2869 385.277 55.4722 384.825 48.1945ZM77.0177 78.0949H70.2554C71.1521 78.0949 72.0121 78.4513 72.6462 79.0857C73.2803 79.72 73.6365 80.5804 73.6365 81.4775C73.6365 82.3746 73.2803 83.2349 72.6462 83.8693C72.0121 84.5036 71.1521 84.86 70.2554 84.86H31.1377C30.241 84.86 29.381 84.5036 28.7469 83.8693C28.1128 83.2349 27.7566 82.3746 27.7566 81.4775C27.7566 80.5804 28.1128 79.72 28.7469 79.0857C29.381 78.4513 30.241 78.0949 31.1377 78.0949H37.9001C37.0033 78.0949 36.1433 77.7386 35.5092 77.1042C34.8751 76.4699 34.5189 75.6095 34.5189 74.7124C34.5189 73.8153 34.8751 72.9549 35.5092 72.3206C36.1433 71.6862 37.0033 71.3299 37.9001 71.3299H33.0714C32.1746 71.3299 31.3146 70.9735 30.6805 70.3391C30.0464 69.7048 29.6902 68.8444 29.6902 67.9473C29.6902 67.0502 30.0464 66.1899 30.6805 65.5555C31.3146 64.9212 32.1746 64.5648 33.0714 64.5648H72.189C73.0857 64.5648 73.9457 64.9212 74.5798 65.5555C75.2139 66.1899 75.5701 67.0502 75.5701 67.9473C75.5701 68.8444 75.2139 69.7048 74.5798 70.3391C73.9457 70.9735 73.0857 71.3299 72.189 71.3299H77.0177C77.9145 71.3299 78.7745 71.6862 79.4086 72.3206C80.0426 72.9549 80.3989 73.8153 80.3989 74.7124C80.3989 75.6095 80.0426 76.4699 79.4086 77.1042C78.7745 77.7386 77.9145 78.0949 77.0177 78.0949Z" fill="black" fill-opacity="0.25"/>
</g>
<path d="M329.406 284.821C329.406 284.821 313.769 199.02 283.951 185.097C258.684 173.29 231.361 165.332 223.592 163.173C222.432 161.303 221.09 159.552 219.588 157.945C208.969 146.855 202.589 147.062 201.557 147.199C201.067 145 200.716 142.772 200.504 140.529C200.473 140.178 200.441 139.851 200.413 139.504L200.504 139.458C200.441 138.795 200.385 138.11 200.336 137.404C204.671 135.09 208.662 132.182 212.194 128.765C212.239 128.915 212.278 129.066 212.327 129.221C219.98 122.75 227.474 116.103 234.811 109.28C236.916 107.311 239.127 105.173 239.843 102.396C240.072 101.44 240.161 100.456 240.106 99.475C240.201 97.3686 239.703 95.2165 239.618 93.082C239.618 92.7309 239.657 92.4044 239.703 92.0709C240.194 88.5778 242.622 85.7096 244.616 82.7782C249.595 75.3702 252.195 66.6173 252.066 57.6909C252.12 53.4137 251.529 49.1529 250.311 45.0525C248.757 39.8497 245.521 34.3835 240.134 33.2461C238.05 32.8072 235.885 33.0811 233.758 32.9442C224.953 32.3825 218.363 25.2207 211.341 19.9722C202.771 13.5976 192.636 9.66224 182.011 8.58359C178.694 8.23252 175.269 8.20795 172.114 9.26115C165.029 11.6203 160.727 18.905 153.901 21.8996C148.855 24.1253 143.023 23.7637 137.759 25.4348C129.923 27.9274 123.273 35.9669 123.097 44.2275C123.097 44.5329 123.097 44.8383 123.097 45.1438C123.097 45.1964 123.097 45.2491 123.097 45.2982C123.01 49.4724 124.501 53.7238 124.62 57.9963C124.62 58.3825 124.626 58.7699 124.638 59.1584C124.599 63.7714 124.048 68.3985 122.367 72.7341C121.462 75.0687 120.297 77.772 120.486 80.1066C120.381 81.5354 120.658 82.8765 121.651 83.9683L123.346 82.4728C122.778 85.5506 122.493 88.6742 122.494 91.8041C122.494 107.581 129.667 121.708 140.98 131.215C141.046 132.266 141.109 133.392 141.17 134.592C141.437 139.795 141.647 146.321 141.588 153.434L125.038 168.653L82.4917 187.962C82.4917 187.962 43.5811 196.184 51.9612 250.869L55.9618 284.825H91.4859L91.4052 285.004H144.132L144.163 284.825H269.612L269.587 285.004H274.5V284.825L329.406 284.821ZM201.869 148.07C202.945 150.295 203.791 152.624 204.396 155.021C203.154 152.715 202.237 150.248 201.669 147.691L201.722 147.785L201.869 148.07ZM141.573 155.091C141.573 155.76 141.562 156.436 141.538 157.117L141.454 157.236C141.448 156.513 141.488 155.791 141.573 155.074V155.091Z" fill="url(#paint0_linear)"/>
<path d="M215.749 163.703L208.73 230.757L171.181 242.693C171.181 242.693 122.403 233.565 135.036 207.235C144.023 188.506 143.774 155.035 142.883 137.271C142.532 130.06 142.054 125.436 142.054 125.436C142.054 125.436 205.923 69.6167 200.659 119.819C199.641 129.54 199.582 137.141 200.147 143.081C202.515 167.81 215.749 163.703 215.749 163.703Z" fill="#FDC2CC"/>
<path opacity="0.03" d="M215.749 163.703L208.73 230.757L171.181 242.693C171.181 242.693 122.403 233.565 135.036 207.235C144.023 188.506 143.774 155.035 142.883 137.271C142.532 130.06 142.054 125.436 142.054 125.436C142.054 125.436 205.923 69.6167 200.659 119.819C199.641 129.54 199.582 137.141 200.147 143.081C202.515 167.81 215.749 163.703 215.749 163.703Z" fill="black"/>
<path opacity="0.1" d="M200.659 118.766C199.642 128.487 199.582 136.088 200.147 142.028C191.13 146.952 180.836 149.033 170.615 147.996C160.395 146.959 150.727 142.853 142.883 136.218C142.532 129.007 142.055 124.383 142.055 124.383C142.055 124.383 205.923 68.5635 200.659 118.766Z" fill="black"/>
<path d="M175.744 146.153C203.846 146.153 226.628 123.362 226.628 95.2481C226.628 67.1342 203.846 44.3433 175.744 44.3433C147.641 44.3433 124.859 67.1342 124.859 95.2481C124.859 123.362 147.641 146.153 175.744 146.153Z" fill="#FDC2CC"/>
<path opacity="0.03" d="M175.744 146.153C203.846 146.153 226.628 123.362 226.628 95.2481C226.628 67.1342 203.846 44.3433 175.744 44.3433C147.641 44.3433 124.859 67.1342 124.859 95.2481C124.859 123.362 147.641 146.153 175.744 146.153Z" fill="black"/>
<path opacity="0.1" d="M91.8726 231.459C91.8726 231.459 108.366 265.161 109.243 284.996L91.8726 231.459Z" fill="black"/>
<path opacity="0.1" d="M271.546 250.771L266.808 285H271.546V250.771Z" fill="black"/>
<path opacity="0.1" d="M95.5571 284.996L121.701 225.491C121.701 225.491 129.07 211.448 130.825 197.405C132.58 183.362 142.055 161.245 142.055 161.245C142.055 161.245 165.567 131.405 176.445 135.617C187.324 139.83 166.97 155.628 166.97 155.628C166.97 155.628 196.799 167.213 176.445 201.618C156.092 236.023 155.741 229.703 155.741 229.703L145.739 284.996H95.5571Z" fill="black"/>
<path d="M94.855 284.996L120.999 225.491C120.999 225.491 128.368 211.448 130.123 197.405C131.239 188.478 135.475 176.285 138.412 168.586C140.329 163.553 143.15 158.913 146.736 154.894C154.337 146.385 168.142 132.661 175.743 135.61C186.622 139.823 166.268 155.621 166.268 155.621C166.268 155.621 196.097 167.206 175.743 201.611C155.39 236.016 155.039 229.696 155.039 229.696L145.037 284.989L94.855 284.996Z" fill="#FDC2CC"/>
<path opacity="0.15" d="M191.36 67.6893C191.941 67.6893 192.412 67.2178 192.412 66.6361C192.412 66.0544 191.941 65.5829 191.36 65.5829C190.778 65.5829 190.307 66.0544 190.307 66.6361C190.307 67.2178 190.778 67.6893 191.36 67.6893Z" fill="white"/>
<path opacity="0.15" d="M186.447 69.7957C187.028 69.7957 187.499 69.3242 187.499 68.7425C187.499 68.1608 187.028 67.6893 186.447 67.6893C185.865 67.6893 185.394 68.1608 185.394 68.7425C185.394 69.3242 185.865 69.7957 186.447 69.7957Z" fill="white"/>
<path opacity="0.1" d="M139.594 31.0975C144.672 29.4545 150.308 29.8091 155.179 27.6255C161.766 24.6695 165.917 17.5147 172.753 15.1977C175.799 14.1656 179.105 14.2042 182.302 14.5342C192.582 15.6045 202.372 19.4743 210.608 25.7227C217.384 30.8799 223.743 37.9118 232.239 38.4629C234.292 38.5963 236.38 38.326 238.39 38.7578C243.598 39.8742 246.718 45.242 248.216 50.343C249.95 56.3883 250.356 62.7372 249.408 68.9543C248.459 75.1714 246.178 81.1099 242.721 86.3626C240.798 89.2413 238.454 92.0604 237.98 95.4903C237.517 98.8535 238.948 102.34 238.113 105.633C237.411 108.36 235.306 110.46 233.256 112.394C226.179 119.09 218.947 125.614 211.559 131.966C207.72 119.763 213.352 106.623 212.475 93.8614C212.124 88.8902 210.369 83.4627 205.986 81.1176C201.884 78.9269 196.641 80.0644 192.489 77.958C187.857 75.6234 185.955 70.0941 182.453 66.2675C176.487 59.7376 166.131 58.895 157.79 61.844C149.448 64.793 142.63 70.8594 136.033 76.7749L124.041 87.5351C121.701 84.8951 123.476 80.8438 124.743 77.5438C126.631 72.5972 127.045 67.2645 126.919 62.0125C126.817 57.7997 125.364 53.6396 125.449 49.5391C125.617 41.4505 132.032 33.5445 139.594 31.0975Z" fill="black"/>
<path d="M139.594 30.0443C144.672 28.4014 150.308 28.7559 155.179 26.5723C161.766 23.6163 165.917 16.4616 172.753 14.1445C175.799 13.1124 179.105 13.151 182.302 13.481C192.582 14.5513 202.372 18.4211 210.608 24.6695C217.384 29.8267 223.743 36.8586 232.239 37.4097C234.292 37.5431 236.38 37.2728 238.39 37.7046C243.598 38.821 246.718 44.1889 248.216 49.2899C249.95 55.3352 250.356 61.684 249.408 67.9011C248.459 74.1182 246.178 80.0567 242.721 85.3094C240.798 88.1881 238.454 91.0072 237.98 94.4371C237.517 97.8004 238.948 101.286 238.113 104.579C237.411 107.307 235.306 109.407 233.256 111.341C226.179 118.037 218.947 124.561 211.559 130.913C207.72 118.71 213.352 105.569 212.475 92.8082C212.124 87.8371 210.369 82.4096 205.986 80.0644C201.884 77.8738 196.641 79.0112 192.489 76.9048C187.857 74.5702 185.955 69.0409 182.453 65.2143C176.487 58.6844 166.131 57.8419 157.79 60.7908C149.448 63.7398 142.63 69.8062 136.033 75.7217L124.041 86.4819C121.701 83.8419 123.476 79.7906 124.743 76.4906C126.631 71.544 127.045 66.2113 126.919 60.9593C126.817 56.7465 125.364 52.5864 125.449 48.4859C125.617 40.3973 132.032 32.4913 139.594 30.0443Z" fill="#865A61"/>
</g>
<defs>
<linearGradient id="paint0_linear" x1="190.089" y1="284.997" x2="190.089" y2="8.34837" gradientUnits="userSpaceOnUse">
<stop stop-color="#808080" stop-opacity="0.25"/>
<stop offset="0.54" stop-color="#808080" stop-opacity="0.12"/>
<stop offset="1" stop-color="#808080" stop-opacity="0.1"/>
</linearGradient>
<clipPath id="clip0">
<rect width="385" height="285" fill="white"/>
</clipPath>
</defs>
</svg>
