<svg width="428" height="298" viewBox="0 0 428 298" fill="none" xmlns="http://www.w3.org/2000/svg">
<g clip-path="url(#clip0)">
<path d="M85.2762 298C132.373 298 170.552 295.098 170.552 291.519C170.552 287.939 132.373 285.037 85.2762 285.037C38.1794 285.037 0 287.939 0 291.519C0 295.098 38.1794 298 85.2762 298Z" fill="#E6E6E6"/>
<path d="M65.1836 66.121C80.0242 59.8041 98.5085 63.8064 116.56 66.5842C116.728 63.2203 118.764 59.1263 116.632 56.7795C114.04 53.9283 114.279 50.9325 115.838 47.9195C119.826 40.2147 114.113 32.0164 108.344 25.1996C107.044 23.6666 105.401 22.4621 103.549 21.6839C101.696 20.9058 99.686 20.5759 97.682 20.7211L86.9969 21.4849C84.3967 21.6707 81.9153 22.6468 79.8847 24.2825C77.8541 25.9182 76.3711 28.1356 75.6341 30.6378C73.0827 34.1103 71.7171 37.5732 72.5769 41.0181C68.7553 43.6316 68.1132 46.7864 69.8305 50.3429C71.2867 52.5822 71.2712 54.7619 69.7643 56.8813C67.7852 59.5834 66.2695 62.5963 65.2791 65.7966L65.1836 66.121Z" fill="#2F2E41"/>
<path d="M417.858 257.616H115.388C112.698 257.616 110.118 256.547 108.216 254.643C106.314 252.74 105.246 250.159 105.246 247.467C214.891 234.715 322.476 234.715 428 247.467C428 250.159 426.931 252.74 425.029 254.643C423.127 256.547 420.548 257.616 417.858 257.616Z" fill="#2F2E41"/>
<path d="M428 248.064L105.246 247.467L142.652 184.481L142.831 184.182V45.3679C142.831 43.683 143.162 42.0146 143.807 40.4579C144.451 38.9012 145.395 37.4868 146.586 36.2954C147.776 35.104 149.19 34.1589 150.745 33.5142C152.301 32.8695 153.968 32.5377 155.652 32.5379H375.804C377.488 32.5377 379.155 32.8695 380.711 33.5142C382.266 34.1589 383.68 35.104 384.87 36.2954C386.061 37.4868 387.005 38.9012 387.649 40.4579C388.294 42.0146 388.625 43.683 388.625 45.3679V185.137L428 248.064Z" fill="#3F3D56"/>
<path d="M155.359 41.4932C154.252 41.4945 153.191 41.9352 152.408 42.7187C151.625 43.5021 151.184 44.5644 151.183 45.6724V172.242C151.184 173.35 151.625 174.412 152.408 175.195C153.191 175.979 154.252 176.42 155.359 176.421H377.887C378.994 176.42 380.055 175.979 380.838 175.195C381.621 174.412 382.061 173.35 382.063 172.242V45.6724C382.061 44.5644 381.621 43.5022 380.838 42.7187C380.055 41.9352 378.994 41.4945 377.887 41.4932H155.359Z" fill="white"/>
<path d="M156.292 193.138C155.95 193.138 155.615 193.237 155.327 193.421C155.039 193.606 154.809 193.869 154.666 194.18L143.14 219.255C143.014 219.528 142.959 219.828 142.98 220.128C143.001 220.427 143.097 220.717 143.259 220.97C143.42 221.223 143.643 221.431 143.907 221.575C144.17 221.719 144.465 221.795 144.765 221.795H387.151C387.456 221.795 387.756 221.717 388.022 221.568C388.289 221.419 388.513 221.205 388.673 220.945C388.833 220.685 388.925 220.389 388.938 220.084C388.952 219.779 388.888 219.476 388.751 219.203L376.223 194.128C376.075 193.829 375.847 193.579 375.564 193.404C375.281 193.229 374.955 193.137 374.622 193.138H156.292Z" fill="#2F2E41"/>
<path d="M265.728 39.4036C267.211 39.4036 268.413 38.2008 268.413 36.717C268.413 35.2333 267.211 34.0304 265.728 34.0304C264.245 34.0304 263.043 35.2333 263.043 36.717C263.043 38.2008 264.245 39.4036 265.728 39.4036Z" fill="white"/>
<path d="M241.904 226.571C241.51 226.571 241.128 226.701 240.815 226.941C240.503 227.18 240.278 227.516 240.175 227.896L237.284 238.643C237.213 238.908 237.203 239.186 237.257 239.456C237.31 239.726 237.425 239.98 237.592 240.198C237.759 240.416 237.974 240.593 238.22 240.715C238.467 240.836 238.738 240.9 239.012 240.9H293.996C294.281 240.9 294.563 240.831 294.816 240.7C295.07 240.57 295.288 240.38 295.454 240.147C295.619 239.915 295.727 239.646 295.767 239.363C295.808 239.081 295.78 238.792 295.687 238.523L291.97 227.776C291.848 227.424 291.619 227.119 291.316 226.903C291.013 226.687 290.651 226.571 290.278 226.571H241.904Z" fill="#2F2E41"/>
<path d="M388.625 182.093V184.48H142.652L142.837 184.182V182.093H388.625Z" fill="#2F2E41"/>
<path d="M381.764 83.5835C404.828 83.5835 423.525 64.8727 423.525 41.7917C423.525 18.7108 404.828 0 381.764 0C358.7 0 340.003 18.7108 340.003 41.7917C340.003 64.8727 358.7 83.5835 381.764 83.5835Z" fill="#3E66FB"/>
<path d="M381.764 83.5835C404.828 83.5835 423.525 64.8727 423.525 41.7917C423.525 18.7108 404.828 0 381.764 0C358.7 0 340.003 18.7108 340.003 41.7917C340.003 64.8727 358.7 83.5835 381.764 83.5835Z" fill="white" fill-opacity="0.5"/>
<path d="M399.066 60.001H364.464C363.831 60.0004 363.224 59.7486 362.777 59.3009C362.329 58.8531 362.078 58.2461 362.077 57.6129V36.717C362.078 36.0839 362.329 35.4768 362.777 35.0291C363.224 34.5814 363.831 34.3296 364.464 34.3289H399.066C399.698 34.3296 400.305 34.5814 400.752 35.0291C401.2 35.4768 401.451 36.0839 401.452 36.717V57.6129C401.451 58.2461 401.2 58.8531 400.752 59.3009C400.305 59.7486 399.698 60.0004 399.066 60.001ZM364.464 36.717V57.6129H399.067L399.066 36.717L364.464 36.717Z" fill="white"/>
<path d="M392.503 36.717H371.026V27.1646C371.026 20.2458 375.542 15.2241 381.764 15.2241C387.987 15.2241 392.503 20.2458 392.503 27.1646L392.503 36.717ZM373.412 34.3289H390.117V27.1646C390.117 21.5404 386.682 17.6122 381.764 17.6122C376.847 17.6122 373.412 21.5404 373.412 27.1646L373.412 34.3289Z" fill="white"/>
<path d="M381.765 48.956C383.082 48.956 384.151 47.8868 384.151 46.5679C384.151 45.249 383.082 44.1798 381.765 44.1798C380.447 44.1798 379.378 45.249 379.378 46.5679C379.378 47.8868 380.447 48.956 381.765 48.956Z" fill="white"/>
<path d="M352.612 133.49H180.634C179.79 133.489 178.981 133.153 178.384 132.555C177.787 131.958 177.451 131.148 177.45 130.303V87.6113C177.451 86.7663 177.787 85.9563 178.384 85.3588C178.981 84.7613 179.79 84.4252 180.634 84.4242H352.612C353.456 84.4252 354.265 84.7613 354.862 85.3588C355.459 85.9563 355.795 86.7663 355.796 87.6113V130.303C355.795 131.148 355.459 131.958 354.862 132.555C354.265 133.153 353.456 133.489 352.612 133.49ZM180.634 85.6991C180.128 85.6996 179.642 85.9013 179.284 86.2598C178.926 86.6183 178.724 87.1043 178.724 87.6113V130.303C178.724 130.81 178.926 131.296 179.284 131.654C179.642 132.013 180.128 132.214 180.634 132.215H352.612C353.118 132.214 353.604 132.013 353.962 131.654C354.32 131.296 354.522 130.81 354.522 130.303V87.6113C354.522 87.1043 354.32 86.6182 353.962 86.2597C353.604 85.9012 353.118 85.6996 352.612 85.699L180.634 85.6991Z" fill="#E6E6E6"/>
<path d="M207.356 120.301C214.521 120.301 220.329 114.489 220.329 107.319C220.329 100.149 214.521 94.3364 207.356 94.3364C200.191 94.3364 194.383 100.149 194.383 107.319C194.383 114.489 200.191 120.301 207.356 120.301Z" fill="#E6E6E6"/>
<path d="M237.318 98.664C237.033 98.6635 236.752 98.7191 236.489 98.8277C236.226 98.9362 235.988 99.0955 235.787 99.2965C235.585 99.4975 235.426 99.7361 235.317 99.9989C235.208 100.262 235.152 100.543 235.152 100.828C235.152 101.112 235.208 101.394 235.317 101.657C235.426 101.919 235.585 102.158 235.787 102.359C235.988 102.56 236.226 102.719 236.489 102.828C236.752 102.936 237.033 102.992 237.318 102.991H339.248C339.822 102.991 340.372 102.763 340.777 102.358C341.183 101.952 341.411 101.402 341.411 100.828C341.411 100.254 341.183 99.7035 340.777 99.2977C340.372 98.8919 339.822 98.664 339.248 98.664H237.318Z" fill="#E6E6E6"/>
<path d="M237.318 111.646C236.744 111.646 236.194 111.874 235.789 112.28C235.383 112.686 235.156 113.236 235.156 113.81C235.156 114.384 235.383 114.934 235.789 115.34C236.194 115.746 236.744 115.974 237.318 115.974H281.179C281.752 115.974 282.302 115.746 282.708 115.34C283.113 114.934 283.341 114.384 283.341 113.81C283.341 113.236 283.113 112.686 282.708 112.28C282.302 111.874 281.752 111.646 281.179 111.646H237.318Z" fill="#E6E6E6"/>
<path d="M142.229 112.522L110.437 129.436L110.035 115.341C120.411 113.607 130.284 110.589 139.412 105.676L142.737 97.4549C143.099 96.5592 143.688 95.7731 144.445 95.1739C145.203 94.5746 146.103 94.1828 147.058 94.037C148.012 93.8911 148.989 93.9961 149.89 94.3418C150.792 94.6875 151.589 95.2619 152.201 96.0086C153.098 97.1011 153.547 98.4939 153.455 99.9049C153.364 101.316 152.741 102.639 151.711 103.607L142.229 112.522Z" fill="#FFB8B8"/>
<path d="M64.5498 210.178C64.3179 209.326 64.2687 208.436 64.4054 207.564C64.542 206.692 64.8615 205.86 65.3429 205.12L72.3265 194.395C73.9783 191.858 76.5128 190.026 79.4384 189.253C82.3639 188.481 85.4719 188.824 88.1592 190.215C85.2242 195.214 85.6334 199.6 89.1729 203.412C83.6782 206.096 78.5999 209.561 74.0952 213.698C73.2728 214.259 72.3283 214.616 71.3405 214.737C70.3527 214.859 69.3501 214.743 68.4162 214.399C67.4823 214.054 66.6442 213.491 65.9717 212.757C65.2991 212.023 64.8117 211.139 64.5498 210.178Z" fill="#2F2E41"/>
<path d="M143.677 196.154C142.62 197.916 141.128 199.378 139.345 200.397C137.561 201.417 135.546 201.96 133.492 201.976L87.097 202.327L85.085 190.649L105.608 184.608L88.3043 171.318L107.218 149.169L141.571 181.211C143.579 183.084 144.884 185.59 145.267 188.309C145.65 191.029 145.089 193.798 143.677 196.154Z" fill="#2F2E41"/>
<path d="M79.8536 276.025H68.9882C59.2326 209.105 49.3024 141.999 78.6463 116.952L113.255 122.59L108.828 151.988L89.5117 174.137L79.8536 276.025Z" fill="#2F2E41"/>
<path d="M89.4046 291.184C88.554 291.416 87.6639 291.465 86.7929 291.329C85.9219 291.192 85.0897 290.872 84.351 290.391L72.5535 288.804C70.0184 287.151 68.1872 284.614 67.4152 281.687C66.6432 278.759 66.9854 275.649 68.3755 272.96C73.3716 275.896 77.7543 275.487 81.5628 271.944C84.2538 277.382 88.6877 277.05 92.9221 281.631C93.4828 282.454 93.8389 283.399 93.9607 284.388C94.0824 285.376 93.9664 286.38 93.6223 287.314C93.2781 288.249 92.7158 289.088 91.9822 289.761C91.2485 290.434 90.3648 290.922 89.4046 291.184Z" fill="#2F2E41"/>
<path d="M105.608 72.2501L85.4873 67.4175C88.8291 60.5721 89.1043 52.9552 87.4994 44.8654L101.182 44.4627C101.61 54.5226 102.907 63.9211 105.608 72.2501Z" fill="#FFB8B8"/>
<path d="M111.138 134.715C96.4909 144.704 86.1415 135.057 78.2437 120.173C79.3412 111.066 77.5642 100.167 74.2731 88.3246C72.8095 83.1012 73.3559 77.5185 75.8045 72.6786C78.2532 67.8388 82.4261 64.0935 87.4994 62.1822L104.804 69.4311C119.497 81.4166 122.389 94.3992 116.876 108.092L111.138 134.715Z" fill="#3E66FB"/>
<path d="M111.138 134.715C96.4909 144.704 86.1415 135.057 78.2437 120.173C79.3412 111.066 77.5642 100.167 74.2731 88.3246C72.8095 83.1012 73.3559 77.5185 75.8045 72.6786C78.2532 67.8388 82.4261 64.0935 87.4994 62.1822L104.804 69.4311C119.497 81.4166 122.389 94.3992 116.876 108.092L111.138 134.715Z" fill="white" fill-opacity="0.5"/>
<path d="M68.9881 82.318L52.8912 90.7751L81.4632 107.689L85.4388 117.503C85.7041 118.158 85.8334 118.86 85.8187 119.567C85.804 120.273 85.6456 120.97 85.3533 121.613C85.0609 122.256 84.6407 122.833 84.1182 123.309C83.5957 123.785 82.9819 124.149 82.3142 124.379C81.5552 124.641 80.7459 124.723 79.9497 124.62C79.1536 124.517 78.3921 124.23 77.725 123.783C77.0578 123.336 76.5032 122.741 76.1044 122.044C75.7057 121.346 75.4736 120.566 75.4265 119.764L75.0244 112.924L38.7098 100.932C37.4863 100.528 36.3707 99.8504 35.4475 98.951C34.5243 98.0516 33.8178 96.9537 33.3813 95.7405C32.7452 93.9722 32.7128 92.0427 33.2893 90.254C33.8657 88.4652 35.0185 86.9182 36.5671 85.855L65.7687 65.8067L68.9881 82.318Z" fill="#FFB8B8"/>
<path d="M85.0848 83.9289C78.3714 80.9847 72.2667 84.183 64.5613 86.7479L63.354 65.4039C71.0052 61.323 78.3 60.2227 85.0848 63.3904L85.0848 83.9289Z" fill="#3E66FB"/>
<path d="M85.0848 83.9289C78.3714 80.9847 72.2667 84.183 64.5613 86.7479L63.354 65.4039C71.0052 61.323 78.3 60.2227 85.0848 63.3904L85.0848 83.9289Z" fill="white" fill-opacity="0.5"/>
<path d="M93.1156 55.0351C100.211 55.0351 105.962 49.2793 105.962 42.1792C105.962 35.079 100.211 29.3232 93.1156 29.3232C86.0206 29.3232 80.269 35.079 80.269 42.1792C80.269 49.2793 86.0206 55.0351 93.1156 55.0351Z" fill="#FFB8B8"/>
<path d="M108.484 40.5571C95.765 41.8037 86.0731 39.722 79.8789 33.7947V29.0213H107.405L108.484 40.5571Z" fill="#2F2E41"/>
</g>
<defs>
<clipPath id="clip0">
<rect width="428" height="298" fill="white"/>
</clipPath>
</defs>
</svg>
