<svg width="145" height="130" viewBox="0 0 145 130" fill="none" xmlns="http://www.w3.org/2000/svg">
<g clip-path="url(#clip0)">
<path d="M143.548 49.7146C143.496 49.7147 143.446 49.6988 143.403 49.6691L73.1384 0.734785C72.9246 0.586562 72.6705 0.507349 72.4103 0.507793C72.1501 0.508236 71.8963 0.588315 71.683 0.737266L1.92445 49.6686C1.86928 49.7073 1.80099 49.7225 1.73461 49.7109C1.66823 49.6992 1.60919 49.6617 1.57049 49.6065C1.53179 49.5513 1.51659 49.483 1.52824 49.4166C1.53989 49.3503 1.57743 49.2912 1.63261 49.2525L71.3912 0.321181C71.6899 0.11268 72.0452 0.000601028 72.4095 2.41049e-06C72.7737 -0.000596207 73.1294 0.110313 73.4288 0.317831L143.693 49.252C143.738 49.283 143.771 49.3272 143.789 49.3784C143.806 49.4297 143.807 49.4851 143.791 49.5367C143.774 49.5883 143.742 49.6334 143.698 49.6654C143.655 49.6974 143.602 49.7146 143.548 49.7146L143.548 49.7146Z" fill="#3F3D56"/>
<path d="M5.91016 51.4492L72.4789 2.11359L139.553 54.9596L75.9088 92.6887L41.3556 84.8126L5.91016 51.4492Z" fill="#E6E6E6"/>
<path d="M44.2727 115.992H11.3861C11.1841 115.993 10.9841 115.953 10.7975 115.876C10.6109 115.799 10.4412 115.686 10.2984 115.543C10.1555 115.4 10.0421 115.231 9.9648 115.044C9.88747 114.858 9.84766 114.658 9.84766 114.456C9.84766 114.254 9.88747 114.054 9.9648 113.867C10.0421 113.681 10.1555 113.511 10.2984 113.369C10.4412 113.226 10.6109 113.113 10.7975 113.036C10.9841 112.959 11.1841 112.919 11.3861 112.919H44.2727C44.4746 112.919 44.6746 112.959 44.8612 113.036C45.0479 113.113 45.2175 113.226 45.3604 113.369C45.5032 113.511 45.6166 113.681 45.6939 113.867C45.7713 114.054 45.8111 114.254 45.8111 114.456C45.8111 114.658 45.7713 114.858 45.6939 115.044C45.6166 115.231 45.5032 115.4 45.3604 115.543C45.2175 115.686 45.0479 115.799 44.8612 115.876C44.6746 115.953 44.4746 115.993 44.2727 115.992Z" fill="#3E66FB"/>
<path d="M44.2727 115.992H11.3861C11.1841 115.993 10.9841 115.953 10.7975 115.876C10.6109 115.799 10.4412 115.686 10.2984 115.543C10.1555 115.4 10.0421 115.231 9.9648 115.044C9.88747 114.858 9.84766 114.658 9.84766 114.456C9.84766 114.254 9.88747 114.054 9.9648 113.867C10.0421 113.681 10.1555 113.511 10.2984 113.369C10.4412 113.226 10.6109 113.113 10.7975 113.036C10.9841 112.959 11.1841 112.919 11.3861 112.919H44.2727C44.4746 112.919 44.6746 112.959 44.8612 113.036C45.0479 113.113 45.2175 113.226 45.3604 113.369C45.5032 113.511 45.6166 113.681 45.6939 113.867C45.7713 114.054 45.8111 114.254 45.8111 114.456C45.8111 114.658 45.7713 114.858 45.6939 115.044C45.6166 115.231 45.5032 115.4 45.3604 115.543C45.2175 115.686 45.0479 115.799 44.8612 115.876C44.6746 115.953 44.4746 115.993 44.2727 115.992Z" fill="black" fill-opacity="0.25"/>
<path d="M23.1851 109.387H11.3861C11.1841 109.387 10.9841 109.347 10.7975 109.27C10.6109 109.193 10.4412 109.08 10.2984 108.937C10.1555 108.795 10.0421 108.625 9.9648 108.439C9.88747 108.252 9.84766 108.052 9.84766 107.85C9.84766 107.648 9.88747 107.448 9.9648 107.262C10.0421 107.075 10.1555 106.906 10.2984 106.763C10.4412 106.62 10.6109 106.507 10.7975 106.43C10.9841 106.353 11.1841 106.313 11.3861 106.314H23.1851C23.387 106.313 23.587 106.353 23.7736 106.43C23.9603 106.507 24.1299 106.62 24.2728 106.763C24.4156 106.906 24.529 107.075 24.6063 107.262C24.6837 107.448 24.7235 107.648 24.7235 107.85C24.7235 108.052 24.6837 108.252 24.6063 108.439C24.529 108.625 24.4156 108.795 24.2728 108.937C24.1299 109.08 23.9603 109.193 23.7736 109.27C23.587 109.347 23.387 109.387 23.1851 109.387Z" fill="#3E66FB"/>
<path d="M23.1851 109.387H11.3861C11.1841 109.387 10.9841 109.347 10.7975 109.27C10.6109 109.193 10.4412 109.08 10.2984 108.937C10.1555 108.795 10.0421 108.625 9.9648 108.439C9.88747 108.252 9.84766 108.052 9.84766 107.85C9.84766 107.648 9.88747 107.448 9.9648 107.262C10.0421 107.075 10.1555 106.906 10.2984 106.763C10.4412 106.62 10.6109 106.507 10.7975 106.43C10.9841 106.353 11.1841 106.313 11.3861 106.314H23.1851C23.387 106.313 23.587 106.353 23.7736 106.43C23.9603 106.507 24.1299 106.62 24.2728 106.763C24.4156 106.906 24.529 107.075 24.6063 107.262C24.6837 107.448 24.7235 107.648 24.7235 107.85C24.7235 108.052 24.6837 108.252 24.6063 108.439C24.529 108.625 24.4156 108.795 24.2728 108.937C24.1299 109.08 23.9603 109.193 23.7736 109.27C23.587 109.347 23.387 109.387 23.1851 109.387Z" fill="black" fill-opacity="0.25"/>
<path d="M73.4153 78.9285C73.1653 78.9288 72.9177 78.8803 72.6863 78.7857L31.6313 61.7508V8.4286C31.6319 7.95709 31.8194 7.50504 32.1528 7.17163C32.4863 6.83822 32.9383 6.65067 33.4098 6.65012H112.171C112.642 6.65067 113.094 6.83822 113.428 7.17163C113.761 7.50504 113.949 7.95709 113.949 8.4286V61.788L113.872 61.821L74.1663 78.7774C73.9286 78.8773 73.6732 78.9287 73.4153 78.9285Z" fill="white"/>
<path d="M73.4154 79.0554C73.1488 79.0557 72.8848 79.0041 72.638 78.9033L31.5044 61.8356V8.42859C31.505 7.9234 31.7059 7.43906 32.0631 7.08183C32.4204 6.7246 32.9047 6.52366 33.4099 6.52309H112.171C112.676 6.52366 113.16 6.7246 113.518 7.08183C113.875 7.43906 114.076 7.9234 114.076 8.42859V61.8719L74.2163 78.8941C73.9628 79.0008 73.6904 79.0557 73.4154 79.0554ZM32.0125 61.4962L72.8318 78.4335C73.2125 78.588 73.6389 78.5855 74.0178 78.4265L113.568 61.5364V8.42859C113.568 8.05812 113.42 7.70295 113.158 7.44099C112.897 7.17903 112.541 7.03166 112.171 7.03122H33.4099C33.0394 7.03166 32.6843 7.17903 32.4223 7.44099C32.1603 7.70295 32.013 8.05812 32.0125 8.42859L32.0125 61.4962Z" fill="#3F3D56"/>
<path d="M143.04 49.2065H142.989L113.822 61.6609L73.9159 78.7012C73.76 78.7668 73.5927 78.801 73.4235 78.8019C73.2543 78.8028 73.0867 78.7703 72.9301 78.7063L31.7585 61.6253L1.87499 49.2268L1.82934 49.2065H1.77847C1.30695 49.207 0.854894 49.3946 0.521479 49.728C0.188064 50.0614 0.000523189 50.5135 0 50.985V128.222C0.00052386 128.693 0.188064 129.145 0.521479 129.479C0.854894 129.812 1.30695 129.999 1.77847 130H143.04C143.512 129.999 143.964 129.812 144.297 129.479C144.63 129.145 144.818 128.693 144.819 128.222V50.985C144.818 50.5135 144.63 50.0614 144.297 49.728C143.964 49.3946 143.512 49.207 143.04 49.2065ZM144.31 128.222C144.31 128.558 144.176 128.881 143.938 129.12C143.7 129.358 143.377 129.492 143.04 129.492H1.77847C1.4416 129.492 1.11856 129.358 0.880359 129.12C0.642154 128.881 0.50827 128.558 0.508135 128.222V50.985C0.508596 50.6565 0.636023 50.3408 0.863774 50.1041C1.09153 49.8674 1.40197 49.7278 1.73022 49.7146L31.7585 62.1741L72.7346 79.1763C73.1781 79.3568 73.6751 79.354 74.1167 79.1687L113.822 62.2122L143.091 49.7146C143.419 49.7288 143.728 49.8687 143.955 50.1053C144.182 50.3419 144.31 50.657 144.31 50.985V128.222Z" fill="#3F3D56"/>
<path d="M73.0045 63.8083C71.4889 63.8112 70.0135 63.3211 68.8008 62.4119L68.7256 62.3555L52.8944 50.2346C52.1612 49.6728 51.5458 48.9721 51.0835 48.1726C50.6211 47.373 50.3207 46.4902 50.1995 45.5745C50.0783 44.6588 50.1386 43.7283 50.377 42.8359C50.6155 41.9436 51.0273 41.107 51.5891 40.3738C52.1508 39.6406 52.8515 39.0253 53.6511 38.5629C54.4507 38.1005 55.3335 37.8001 56.2491 37.6789C57.1648 37.5577 58.0954 37.618 58.9877 37.8564C59.88 38.0949 60.7167 38.5067 61.4499 39.0685L71.7041 46.9313L95.9366 15.3287C96.4986 14.5957 97.1995 13.9806 97.9992 13.5185C98.7989 13.0563 99.6819 12.7563 100.598 12.6354C101.513 12.5145 102.444 12.5752 103.336 12.814C104.228 13.0527 105.065 13.4649 105.798 14.0269L105.647 14.2315L105.802 14.0299C107.28 15.1663 108.248 16.8427 108.492 18.6914C108.736 20.5401 108.236 22.4101 107.103 23.8912L78.6002 61.0634C77.941 61.92 77.0933 62.6132 76.1229 63.0892C75.1525 63.5653 74.0854 63.8113 73.0045 63.8083Z" fill="#3E66FB"/>
<path d="M73.0045 63.8083C71.4889 63.8112 70.0135 63.3211 68.8008 62.4119L68.7256 62.3555L52.8944 50.2346C52.1612 49.6728 51.5458 48.9721 51.0835 48.1726C50.6211 47.373 50.3207 46.4902 50.1995 45.5745C50.0783 44.6588 50.1386 43.7283 50.377 42.8359C50.6155 41.9436 51.0273 41.107 51.5891 40.3738C52.1508 39.6406 52.8515 39.0253 53.6511 38.5629C54.4507 38.1005 55.3335 37.8001 56.2491 37.6789C57.1648 37.5577 58.0954 37.618 58.9877 37.8564C59.88 38.0949 60.7167 38.5067 61.4499 39.0685L71.7041 46.9313L95.9366 15.3287C96.4986 14.5957 97.1995 13.9806 97.9992 13.5185C98.7989 13.0563 99.6819 12.7563 100.598 12.6354C101.513 12.5145 102.444 12.5752 103.336 12.814C104.228 13.0527 105.065 13.4649 105.798 14.0269L105.647 14.2315L105.802 14.0299C107.28 15.1663 108.248 16.8427 108.492 18.6914C108.736 20.5401 108.236 22.4101 107.103 23.8912L78.6002 61.0634C77.941 61.92 77.0933 62.6132 76.1229 63.0892C75.1525 63.5653 74.0854 63.8113 73.0045 63.8083Z" fill="black" fill-opacity="0.25"/>
</g>
<defs>
<clipPath id="clip0">
<rect width="144.819" height="130" fill="white"/>
</clipPath>
</defs>
</svg>
