<svg width="537" height="275" viewBox="0 0 537 275" fill="none" xmlns="http://www.w3.org/2000/svg">
<g clip-path="url(#clip0)">
<path d="M137.114 142.591H137.085C134.683 142.618 132.327 141.934 130.313 140.624C128.483 139.435 126.992 137.792 125.987 135.855C124.982 133.918 124.496 131.753 124.577 129.572L129.283 12.018C129.404 8.78431 130.776 5.72389 133.109 3.48192C135.443 1.23995 138.555 -0.00839494 141.791 4.24935e-05H409.463C418.009 -0.000521982 426.266 3.09542 432.705 8.71466L497.205 64.998C505.503 69.9112 512.283 77.0195 516.798 85.5398C521.314 94.0601 523.39 103.662 522.798 113.286C522.397 120.081 522.118 124.239 521.933 126.99C521.579 131.28 521.464 135.585 521.589 139.888L521.602 141.738L521.297 141.739L137.114 142.591Z" fill="#F0F0F0"/>
<path d="M369.631 105.663H150.273C147.737 105.66 145.306 104.651 143.513 102.858C141.72 101.065 140.711 98.6338 140.708 96.0979V30.9132C140.711 28.3774 141.72 25.9462 143.513 24.153C145.306 22.3599 147.737 21.3513 150.273 21.3484H369.631C372.167 21.3513 374.598 22.3599 376.391 24.153C378.184 25.9462 379.193 28.3774 379.196 30.9132V96.0979C379.193 98.6338 378.184 101.065 376.391 102.858C374.598 104.651 372.167 105.66 369.631 105.663Z" fill="#E4E4E4"/>
<path d="M453.918 78.3303C453.449 78.3299 452.982 78.2655 452.53 78.1386L406.231 65.1905C405.168 64.8887 404.231 64.2529 403.558 63.3771C402.884 62.5012 402.511 61.4319 402.492 60.3273L402.131 32.1754C402.122 31.486 402.253 30.8019 402.515 30.1642C402.777 29.5265 403.165 28.9484 403.656 28.4644C404.147 27.9804 404.731 27.6006 405.372 27.3478C406.014 27.095 406.7 26.9743 407.389 26.9931L434.86 27.7459C436.187 27.7795 437.449 28.3302 438.376 29.2806L458.234 49.5526C458.717 50.0477 459.095 50.6351 459.346 51.2798C459.597 51.9245 459.715 52.6132 459.693 53.3046L459.024 73.3803C458.979 74.7057 458.422 75.9621 457.47 76.8852C456.517 77.8084 455.244 78.3264 453.918 78.3303L453.918 78.3303Z" fill="white"/>
<path d="M492.158 163.293C504.956 163.293 515.331 152.918 515.331 140.119C515.331 127.321 504.956 116.946 492.158 116.946C479.36 116.946 468.985 127.321 468.985 140.119C468.985 152.918 479.36 163.293 492.158 163.293Z" fill="#3F3D56"/>
<path d="M492.158 154.78C500.255 154.78 506.818 148.216 506.818 140.119C506.818 132.022 500.255 125.458 492.158 125.458C484.061 125.458 477.497 132.022 477.497 140.119C477.497 148.216 484.061 154.78 492.158 154.78Z" fill="white"/>
<path d="M227.557 163.529C240.355 163.529 250.73 153.154 250.73 140.356C250.73 127.557 240.355 117.182 227.557 117.182C214.759 117.182 204.384 127.557 204.384 140.356C204.384 153.154 214.759 163.529 227.557 163.529Z" fill="#3F3D56"/>
<path d="M227.557 155.016C235.654 155.016 242.218 148.453 242.218 140.356C242.218 132.259 235.654 125.695 227.557 125.695C219.46 125.695 212.896 132.259 212.896 140.356C212.896 148.453 219.46 155.016 227.557 155.016Z" fill="white"/>
<path d="M460.708 81.7803H458.817C457.169 81.7784 455.589 81.123 454.424 79.9579C453.259 78.7928 452.603 77.213 452.602 75.5653V61.8504C452.603 60.2027 453.259 58.623 454.424 57.4579C455.589 56.2927 457.169 55.6374 458.817 55.6355H460.708C462.356 55.6374 463.936 56.2927 465.101 57.4579C466.266 58.623 466.921 60.2027 466.923 61.8504V75.5653C466.921 77.213 466.266 78.7928 465.101 79.9579C463.936 81.123 462.356 81.7784 460.708 81.7803Z" fill="#3F3D56"/>
<path d="M263.463 58.0671H152.362V60.9047H263.463V58.0671Z" fill="#F0F0F0"/>
<path d="M263.463 76.9839H152.362V79.8214H263.463V76.9839Z" fill="#F0F0F0"/>
<path d="M182.866 100.164H174.826C173.946 100.164 173.102 99.8149 172.48 99.1928C171.858 98.5706 171.509 97.7268 171.509 96.8469C171.509 95.967 171.858 95.1232 172.48 94.501C173.102 93.8788 173.946 93.5293 174.826 93.5293H182.866C183.746 93.5293 184.59 93.8788 185.212 94.501C185.834 95.1232 186.183 95.967 186.183 96.8469C186.183 97.7268 185.834 98.5706 185.212 99.1928C184.59 99.8149 183.746 100.164 182.866 100.164H182.866Z" fill="#F0F0F0"/>
<path d="M192.324 94.1362C191.605 94.1362 190.916 94.4218 190.407 94.9302C189.899 95.4385 189.614 96.128 189.614 96.8469C189.614 97.5658 189.899 98.2553 190.407 98.7636C190.916 99.272 191.605 99.5576 192.324 99.5576H200.364C201.083 99.5576 201.772 99.272 202.281 98.7636C202.789 98.2553 203.075 97.5658 203.075 96.8469C203.075 96.128 202.789 95.4385 202.281 94.9302C201.772 94.4218 201.083 94.1362 200.364 94.1362H192.324Z" fill="#F0F0F0"/>
<path d="M217.862 100.164H209.822C208.943 100.164 208.099 99.8149 207.477 99.1928C206.854 98.5706 206.505 97.7268 206.505 96.8469C206.505 95.967 206.854 95.1232 207.477 94.501C208.099 93.8788 208.943 93.5293 209.822 93.5293H217.862C218.742 93.5293 219.586 93.8788 220.208 94.501C220.83 95.1232 221.18 95.967 221.18 96.8469C221.18 97.7268 220.83 98.5706 220.208 99.1928C219.586 99.8149 218.742 100.164 217.862 100.164Z" fill="#F0F0F0"/>
<path d="M263.985 106.785H164.172C163.106 106.782 162.085 106.356 161.333 105.601C160.581 104.846 160.158 103.824 160.158 102.758C160.158 101.692 160.581 100.67 161.333 99.9153C162.085 99.1605 163.106 98.7347 164.172 98.7312H263.985C265.051 98.7347 266.072 99.1605 266.824 99.9153C267.577 100.67 267.999 101.692 267.999 102.758C267.999 103.824 267.577 104.846 266.824 105.601C266.072 106.356 265.051 106.782 263.985 106.785Z" fill="#F0F0F0"/>
<path d="M165.948 77.4798H162.104C161.784 77.4795 161.477 77.3522 161.251 77.1259C161.025 76.8996 160.897 76.5928 160.897 76.2728V67.8574C160.897 67.5373 161.025 67.2304 161.251 67.004C161.477 66.7776 161.784 66.6502 162.104 66.6498C162.17 66.6498 162.233 66.6237 162.279 66.5774C162.325 66.531 162.351 66.4682 162.351 66.4027V64.5843C162.351 64.1401 162.528 63.7141 162.842 63.4C163.156 63.0859 163.582 62.9094 164.026 62.9094C164.471 62.9094 164.897 63.0859 165.211 63.4C165.525 63.7141 165.701 64.1401 165.701 64.5843V66.4027C165.701 66.4682 165.727 66.531 165.774 66.5774C165.82 66.6237 165.883 66.6498 165.948 66.6498C166.268 66.6502 166.575 66.7776 166.802 67.004C167.028 67.2304 167.155 67.5373 167.156 67.8574V76.2727C167.155 76.5928 167.028 76.8996 166.802 77.1259C166.575 77.3522 166.268 77.4795 165.948 77.4798Z" fill="#F0F0F0"/>
<path d="M175.133 77.4797H171.289C170.969 77.4794 170.662 77.3521 170.435 77.1258C170.209 76.8996 170.082 76.5927 170.081 76.2727V67.8573C170.082 67.5372 170.209 67.2303 170.435 67.0039C170.662 66.7775 170.968 66.6501 171.289 66.6497C171.354 66.6497 171.417 66.6236 171.463 66.5773C171.51 66.5309 171.536 66.4681 171.536 66.4026V64.5842C171.538 64.1411 171.715 63.7168 172.029 63.4041C172.343 63.0913 172.768 62.9158 173.211 62.9158C173.654 62.9158 174.079 63.0913 174.393 63.4041C174.707 63.7168 174.884 64.1411 174.885 64.5842V66.4026C174.886 66.4681 174.912 66.5309 174.958 66.5773C175.004 66.6236 175.067 66.6497 175.133 66.6497C175.453 66.6501 175.76 66.7775 175.986 67.0039C176.212 67.2302 176.34 67.5372 176.34 67.8573V76.2726C176.34 76.5927 176.212 76.8995 175.986 77.1258C175.76 77.3521 175.453 77.4794 175.133 77.4797Z" fill="#F0F0F0"/>
<path d="M234.124 59.8178H230.279C229.959 59.8175 229.653 59.6901 229.426 59.4638C229.2 59.2375 229.072 58.9306 229.072 58.6105V50.1955C229.072 49.8754 229.2 49.5684 229.426 49.342C229.652 49.1156 229.959 48.9883 230.279 48.9879C230.345 48.9878 230.408 48.9618 230.454 48.9154C230.501 48.8691 230.527 48.8063 230.527 48.7407V46.9224C230.529 46.4795 230.706 46.0556 231.02 45.7432C231.334 45.4308 231.759 45.2554 232.201 45.2554C232.644 45.2554 233.069 45.4308 233.383 45.7432C233.697 46.0556 233.874 46.4795 233.876 46.9224V48.7407C233.876 48.8063 233.902 48.8691 233.949 48.9155C233.995 48.9618 234.058 48.9878 234.123 48.9879C234.444 48.9883 234.751 49.1157 234.977 49.342C235.203 49.5684 235.33 49.8754 235.331 50.1955V58.6105C235.33 58.9306 235.203 59.2375 234.977 59.4638C234.75 59.6901 234.444 59.8174 234.124 59.8178Z" fill="#F0F0F0"/>
<path d="M243.308 59.8179H239.464C239.144 59.8175 238.837 59.6902 238.61 59.4639C238.384 59.2375 238.257 58.9307 238.256 58.6106V50.1955C238.257 49.8754 238.384 49.5685 238.61 49.3421C238.837 49.1157 239.144 48.9883 239.464 48.9879C239.529 48.9879 239.592 48.9618 239.639 48.9155C239.685 48.8691 239.711 48.8063 239.711 48.7408V46.9224C239.712 46.4788 239.889 46.0536 240.203 45.7402C240.517 45.4268 240.942 45.2507 241.386 45.2507C241.829 45.2507 242.255 45.4268 242.569 45.7402C242.883 46.0536 243.06 46.4788 243.061 46.9224V48.7408C243.061 48.8063 243.087 48.8691 243.133 48.9155C243.179 48.9618 243.242 48.9879 243.308 48.9879C243.628 48.9883 243.935 49.1157 244.161 49.3421C244.388 49.5685 244.515 49.8754 244.515 50.1955V58.6106C244.515 58.9307 244.387 59.2375 244.161 59.4639C243.935 59.6902 243.628 59.8175 243.308 59.8179Z" fill="#F0F0F0"/>
<path d="M357.071 36.9678H304.792V106.556H357.071V36.9678Z" fill="#F0F0F0"/>
<path d="M357.071 52.7095H304.792V54.1224H357.071V52.7095Z" fill="#E4E4E4"/>
<path d="M357.071 69.665H304.792V71.078H357.071V69.665Z" fill="#E4E4E4"/>
<path d="M357.071 86.6204H304.792V88.0333H357.071V86.6204Z" fill="#E4E4E4"/>
<path d="M187.008 78.2696H183.08C182.537 78.2689 182.016 78.0529 181.632 77.6687C181.248 77.2846 181.032 76.7639 181.031 76.2207V71.2338C181.032 70.6906 181.248 70.1698 181.632 69.7857C182.016 69.4016 182.537 69.1855 183.08 69.1848H187.008C187.551 69.1855 188.072 69.4016 188.456 69.7857C188.84 70.1698 189.056 70.6906 189.056 71.2338V76.2207C189.056 76.7639 188.84 77.2846 188.456 77.6687C188.072 78.0529 187.551 78.2689 187.008 78.2696Z" fill="#F0F0F0"/>
<path d="M313.009 74.0124C312.747 74.0388 312.484 74.0449 312.221 74.0308C312.176 74.0259 312.132 74.0388 312.096 74.0666C312.061 74.0945 312.038 74.1352 312.032 74.1798L311.53 77.9473C311.491 78.2208 311.379 78.4787 311.206 78.6937C311.063 78.8648 310.957 79.0634 310.894 79.2773C310.831 79.4911 310.812 79.7157 310.84 79.9369V86.3367C310.84 86.3367 310.807 87.19 311.463 87.19C312.248 87.2886 313.042 87.2886 313.826 87.19C313.826 87.19 314.351 87.0906 314.351 86.3032V80.0017C314.391 79.7819 314.383 79.5559 314.327 79.3396C314.271 79.1232 314.169 78.9216 314.027 78.7488C313.86 78.533 313.751 78.2772 313.713 78.0067L313.191 74.1604C313.185 74.1171 313.163 74.0778 313.129 74.0503C313.095 74.0228 313.052 74.0093 313.009 74.0124Z" fill="#E4E4E4"/>
<path d="M319.367 74.0124C319.105 74.0388 318.842 74.0449 318.58 74.0308C318.535 74.0259 318.49 74.0388 318.455 74.0666C318.419 74.0945 318.396 74.1352 318.391 74.1798L317.888 77.9473C317.85 78.2208 317.738 78.4787 317.564 78.6937C317.421 78.8648 317.315 79.0634 317.252 79.2773C317.189 79.4911 317.171 79.7157 317.198 79.9369V86.3367C317.198 86.3367 317.166 87.19 317.821 87.19C318.606 87.2886 319.4 87.2886 320.185 87.19C320.185 87.19 320.71 87.0906 320.71 86.3032V80.0017C320.75 79.7819 320.741 79.5559 320.685 79.3396C320.63 79.1232 320.527 78.9216 320.386 78.7488C320.218 78.533 320.11 78.2772 320.071 78.0067L319.55 74.1604C319.544 74.1171 319.521 74.0778 319.488 74.0503C319.454 74.0228 319.411 74.0093 319.367 74.0124Z" fill="#E4E4E4"/>
<path d="M325.725 74.0124C325.464 74.0388 325.2 74.0449 324.938 74.0308C324.893 74.0259 324.848 74.0388 324.813 74.0666C324.777 74.0945 324.754 74.1352 324.749 74.1798L324.246 77.9473C324.208 78.2208 324.096 78.4787 323.922 78.6937C323.779 78.8648 323.673 79.0634 323.61 79.2773C323.547 79.4911 323.529 79.7157 323.556 79.9369V86.3367C323.556 86.3367 323.524 87.19 324.18 87.19C324.964 87.2886 325.758 87.2886 326.543 87.19C326.543 87.19 327.068 87.0907 327.068 86.3032V80.0017C327.108 79.7819 327.1 79.5559 327.044 79.3396C326.988 79.1232 326.885 78.9216 326.744 78.7488C326.576 78.533 326.468 78.2772 326.429 78.0067L325.908 74.1604C325.902 74.1171 325.88 74.0778 325.846 74.0503C325.812 74.0228 325.769 74.0093 325.725 74.0124Z" fill="#E4E4E4"/>
<path d="M313.009 57.0568C312.747 57.0832 312.484 57.0893 312.221 57.0752C312.176 57.0703 312.132 57.0832 312.096 57.1111C312.061 57.139 312.038 57.1796 312.032 57.2243L311.53 60.9918C311.491 61.2652 311.379 61.5232 311.206 61.7381C311.063 61.9092 310.957 62.1078 310.894 62.3217C310.831 62.5356 310.812 62.7601 310.84 62.9814V69.3811C310.84 69.3811 310.807 70.2344 311.463 70.2344C312.248 70.333 313.042 70.333 313.826 70.2344C313.826 70.2344 314.351 70.1351 314.351 69.3476V63.0462C314.391 62.8263 314.383 62.6004 314.327 62.384C314.271 62.1677 314.169 61.9661 314.027 61.7932C313.86 61.5775 313.751 61.3217 313.713 61.0512L313.191 57.2048C313.185 57.1616 313.163 57.1222 313.129 57.0947C313.095 57.0673 313.052 57.0537 313.009 57.0568Z" fill="#E4E4E4"/>
<path d="M319.367 57.0568C319.105 57.0832 318.842 57.0893 318.58 57.0752C318.535 57.0703 318.49 57.0832 318.455 57.1111C318.419 57.139 318.396 57.1796 318.391 57.2243L317.888 60.9918C317.85 61.2652 317.738 61.5232 317.564 61.7381C317.421 61.9092 317.315 62.1078 317.252 62.3217C317.189 62.5356 317.171 62.7601 317.198 62.9814V69.3811C317.198 69.3811 317.166 70.2344 317.821 70.2344C318.606 70.333 319.4 70.333 320.185 70.2344C320.185 70.2344 320.71 70.1351 320.71 69.3476V63.0462C320.75 62.8263 320.741 62.6004 320.685 62.384C320.63 62.1677 320.527 61.9661 320.386 61.7932C320.218 61.5775 320.11 61.3217 320.071 61.0512L319.55 57.2048C319.544 57.1616 319.521 57.1222 319.488 57.0947C319.454 57.0672 319.411 57.0537 319.367 57.0568Z" fill="#E4E4E4"/>
<path d="M325.725 57.0568C325.464 57.0832 325.2 57.0893 324.938 57.0752C324.893 57.0703 324.848 57.0832 324.813 57.1111C324.777 57.139 324.754 57.1796 324.749 57.2243L324.246 60.9918C324.208 61.2652 324.096 61.5232 323.922 61.7381C323.779 61.9092 323.673 62.1078 323.61 62.3217C323.547 62.5356 323.529 62.7601 323.556 62.9814V69.3811C323.556 69.3811 323.524 70.2344 324.18 70.2344C324.964 70.333 325.758 70.333 326.543 70.2344C326.543 70.2344 327.068 70.1351 327.068 69.3476V63.0462C327.108 62.8263 327.1 62.6004 327.044 62.384C326.988 62.1677 326.885 61.9661 326.744 61.7932C326.576 61.5775 326.468 61.3217 326.429 61.0512L325.908 57.2048C325.902 57.1616 325.88 57.1222 325.846 57.0947C325.812 57.0673 325.769 57.0537 325.725 57.0568Z" fill="#E4E4E4"/>
<path d="M338.795 57.0568C338.533 57.0832 338.27 57.0893 338.008 57.0752C337.963 57.0703 337.918 57.0832 337.883 57.1111C337.847 57.139 337.824 57.1796 337.819 57.2243L337.316 60.9918C337.278 61.2652 337.166 61.5232 336.992 61.7381C336.849 61.9092 336.743 62.1078 336.68 62.3217C336.617 62.5356 336.599 62.7601 336.626 62.9814V69.3811C336.626 69.3811 336.594 70.2344 337.249 70.2344C338.034 70.333 338.828 70.333 339.613 70.2344C339.613 70.2344 340.138 70.1351 340.138 69.3476V63.0462C340.178 62.8263 340.169 62.6004 340.113 62.384C340.058 62.1677 339.955 61.9661 339.814 61.7932C339.646 61.5775 339.538 61.3217 339.499 61.0512L338.978 57.2048C338.972 57.1616 338.949 57.1222 338.916 57.0947C338.882 57.0673 338.839 57.0537 338.795 57.0568Z" fill="#E4E4E4"/>
<path d="M345.153 57.0568C344.892 57.0832 344.629 57.0893 344.366 57.0752C344.321 57.0703 344.276 57.0832 344.241 57.1111C344.206 57.139 344.183 57.1796 344.177 57.2243L343.675 60.9918C343.636 61.2652 343.524 61.5232 343.351 61.7381C343.208 61.9092 343.101 62.1078 343.038 62.3217C342.975 62.5356 342.957 62.7601 342.985 62.9814V69.3811C342.985 69.3811 342.952 70.2344 343.608 70.2344C344.392 70.333 345.186 70.333 345.971 70.2344C345.971 70.2344 346.496 70.1351 346.496 69.3476V63.0462C346.536 62.8263 346.528 62.6004 346.472 62.384C346.416 62.1677 346.314 61.9661 346.172 61.7932C346.004 61.5775 345.896 61.3217 345.858 61.0512L345.336 57.2048C345.33 57.1616 345.308 57.1222 345.274 57.0947C345.24 57.0673 345.197 57.0537 345.153 57.0568Z" fill="#E4E4E4"/>
<path d="M351.512 57.0568C351.25 57.0832 350.987 57.0893 350.724 57.0752C350.68 57.0703 350.635 57.0832 350.599 57.1111C350.564 57.139 350.541 57.1796 350.535 57.2243L350.033 60.9918C349.994 61.2652 349.882 61.5232 349.709 61.7381C349.566 61.9092 349.46 62.1078 349.397 62.3217C349.334 62.5356 349.315 62.7601 349.343 62.9814V69.3811C349.343 69.3811 349.31 70.2344 349.966 70.2344C350.751 70.333 351.545 70.333 352.329 70.2344C352.329 70.2344 352.854 70.1351 352.854 69.3476V63.0462C352.894 62.8263 352.886 62.6004 352.83 62.384C352.774 62.1677 352.672 61.9661 352.53 61.7932C352.363 61.5775 352.254 61.3217 352.216 61.0512L351.694 57.2048C351.688 57.1616 351.666 57.1222 351.632 57.0947C351.598 57.0673 351.555 57.0537 351.512 57.0568Z" fill="#E4E4E4"/>
<path d="M323.959 40.4545C323.697 40.4809 323.434 40.487 323.172 40.4729C323.127 40.468 323.082 40.4809 323.047 40.5088C323.011 40.5367 322.988 40.5773 322.983 40.622L322.48 44.3895C322.442 44.6629 322.33 44.9209 322.156 45.1358C322.013 45.3069 321.907 45.5055 321.844 45.7194C321.781 45.9333 321.763 46.1578 321.79 46.3791V52.7788C321.79 52.7788 321.758 53.6321 322.413 53.6321C323.198 53.7307 323.992 53.7307 324.777 53.6321C324.777 53.6321 325.302 53.5328 325.302 52.7454V46.4439C325.342 46.224 325.334 45.9981 325.278 45.7817C325.222 45.5654 325.119 45.3638 324.978 45.1909C324.81 44.9752 324.702 44.7194 324.663 44.4489L324.142 40.6025C324.136 40.5593 324.114 40.5199 324.08 40.4924C324.046 40.4649 324.003 40.4514 323.959 40.4545Z" fill="#E4E4E4"/>
<path d="M330.317 40.4545C330.056 40.4809 329.793 40.487 329.53 40.4729C329.485 40.468 329.44 40.4809 329.405 40.5088C329.37 40.5367 329.347 40.5773 329.341 40.622L328.839 44.3895C328.8 44.6629 328.688 44.9209 328.515 45.1358C328.372 45.3069 328.265 45.5055 328.202 45.7194C328.139 45.9333 328.121 46.1578 328.149 46.3791V52.7788C328.149 52.7788 328.116 53.6321 328.772 53.6321C329.557 53.7307 330.35 53.7307 331.135 53.6321C331.135 53.6321 331.66 53.5328 331.66 52.7454V46.4439C331.7 46.224 331.692 45.9981 331.636 45.7817C331.58 45.5654 331.478 45.3638 331.336 45.1909C331.168 44.9752 331.06 44.7194 331.022 44.4489L330.5 40.6025C330.494 40.5593 330.472 40.5199 330.438 40.4924C330.404 40.4649 330.361 40.4514 330.317 40.4545Z" fill="#E4E4E4"/>
<path d="M336.676 40.4545C336.414 40.4809 336.151 40.487 335.888 40.4729C335.843 40.468 335.799 40.4809 335.763 40.5088C335.728 40.5367 335.705 40.5773 335.699 40.622L335.197 44.3895C335.158 44.6629 335.046 44.9209 334.873 45.1358C334.73 45.3069 334.624 45.5055 334.561 45.7194C334.498 45.9333 334.479 46.1578 334.507 46.3791V52.7788C334.507 52.7788 334.474 53.6321 335.13 53.6321C335.915 53.7307 336.709 53.7307 337.493 53.6321C337.493 53.6321 338.018 53.5328 338.018 52.7454V46.4439C338.058 46.224 338.05 45.9981 337.994 45.7817C337.938 45.5654 337.836 45.3638 337.694 45.1909C337.527 44.9752 337.418 44.7194 337.38 44.4489L336.858 40.6025C336.852 40.5593 336.83 40.5199 336.796 40.4924C336.762 40.4649 336.719 40.4514 336.676 40.4545Z" fill="#E4E4E4"/>
<path d="M535.906 163.935H98.32C98.1591 163.935 98.0047 163.871 97.8909 163.757C97.7771 163.643 97.7131 163.489 97.7131 163.328C97.7131 163.167 97.7771 163.012 97.8909 162.898C98.0047 162.785 98.1591 162.721 98.32 162.721H535.906C536.067 162.721 536.221 162.785 536.335 162.898C536.449 163.012 536.513 163.167 536.513 163.328C536.513 163.489 536.449 163.643 536.335 163.757C536.221 163.871 536.067 163.935 535.906 163.935Z" fill="#CACACA"/>
<path d="M395.059 195.556C395.457 195.287 395.792 194.935 396.04 194.523C396.287 194.111 396.441 193.65 396.491 193.172C396.542 192.694 396.486 192.211 396.329 191.757C396.173 191.303 395.918 190.889 395.584 190.544L400.847 180.118L394.819 180.817L390.745 190.61C390.202 191.21 389.899 191.988 389.891 192.797C389.884 193.606 390.174 194.39 390.705 194.999C391.237 195.609 391.974 196.002 392.776 196.105C393.579 196.207 394.391 196.012 395.059 195.556Z" fill="#FFB7B7"/>
<path d="M437.269 269.405L432.526 269.404L430.269 251.109H437.27L437.269 269.405Z" fill="#FFB7B7"/>
<path d="M438.479 274.002L423.185 274.002V273.808C423.185 272.23 423.812 270.716 424.928 269.599C426.045 268.483 427.559 267.856 429.138 267.855H429.138L438.479 267.856L438.479 274.002Z" fill="#2F2E41"/>
<path d="M411.347 269.405L406.604 269.404L404.347 251.109H411.347L411.347 269.405Z" fill="#FFB7B7"/>
<path d="M411.396 274.002L396.101 274.002V273.808C396.101 272.23 396.729 270.716 397.845 269.599C398.961 268.483 400.476 267.856 402.054 267.855H402.055L411.396 267.856L411.396 274.002Z" fill="#2F2E41"/>
<path d="M410.958 192.132L406.315 202.828L402.486 264.307L412.158 263.919L414.8 234.613L422.949 208.509L427.634 237.61L429.569 263.145L437.572 263.492L440.762 192.132H410.958Z" fill="#2F2E41"/>
<path d="M434.166 139.352L420.71 139.688L412.81 143.744L412.376 173.666L407.449 194.325C407.449 194.325 438.235 196.444 442.491 193.349L437.461 169.747L444.207 144.241L434.166 139.352Z" fill="#3E66FB"/>
<path d="M434.166 139.352L420.71 139.688L412.81 143.744L412.376 173.666L407.449 194.325C407.449 194.325 438.235 196.444 442.491 193.349L437.461 169.747L444.207 144.241L434.166 139.352Z" fill="black" fill-opacity="0.25"/>
<path d="M414.887 144.24L413.635 143.394C413.635 143.394 408.445 144.949 406.911 151.87C406.911 151.87 405.737 155.341 405.222 157.728C404.631 160.466 391.587 185.615 391.587 185.615L399.397 187.856L413.715 164.7L414.887 144.24Z" fill="#3E66FB"/>
<path d="M414.887 144.24L413.635 143.394C413.635 143.394 408.445 144.949 406.911 151.87C406.911 151.87 405.737 155.341 405.222 157.728C404.631 160.466 391.587 185.615 391.587 185.615L399.397 187.856L413.715 164.7L414.887 144.24Z" fill="black" fill-opacity="0.25"/>
<path d="M443.996 199.393C443.687 199.025 443.463 198.593 443.338 198.129C443.214 197.665 443.193 197.18 443.277 196.707C443.36 196.233 443.547 195.784 443.822 195.391C444.098 194.998 444.457 194.67 444.874 194.43L442.689 182.958L448.291 185.292L449.507 195.829C449.863 196.555 449.94 197.387 449.724 198.166C449.508 198.946 449.014 199.619 448.334 200.058C447.655 200.497 446.838 200.672 446.039 200.55C445.239 200.427 444.513 200.015 443.996 199.393Z" fill="#FFB7B7"/>
<path d="M442.182 144.599L443.62 144.131C443.62 144.131 448.179 147.057 447.746 154.132C447.746 154.132 447.916 157.793 447.753 160.23C447.566 163.024 450.075 190.795 450.075 190.795H441.95L438.468 165.646L442.182 144.599Z" fill="#3E66FB"/>
<path d="M442.182 144.599L443.62 144.131C443.62 144.131 448.179 147.057 447.746 154.132C447.746 154.132 447.916 157.793 447.753 160.23C447.566 163.024 450.075 190.795 450.075 190.795H441.95L438.468 165.646L442.182 144.599Z" fill="black" fill-opacity="0.25"/>
<path d="M437.47 126.798C437.47 128.643 436.923 130.447 435.898 131.981C434.873 133.515 433.416 134.71 431.711 135.416C430.007 136.122 428.131 136.307 426.322 135.947C424.512 135.587 422.85 134.699 421.545 133.394C420.241 132.09 419.352 130.428 418.992 128.618C418.633 126.809 418.817 124.933 419.523 123.228C420.229 121.524 421.425 120.067 422.959 119.042C424.493 118.017 426.297 117.47 428.141 117.47C430.609 117.464 432.979 118.438 434.728 120.179C436.477 121.92 437.464 124.284 437.47 126.752C437.47 126.767 437.47 126.783 437.47 126.798Z" fill="#FFB7B7"/>
<path d="M418.844 114.269C419.937 111.919 422.052 112.384 423.901 113.18C426.243 112.661 428.471 111.105 430.994 112.025C433.48 115.64 441.825 114.577 440.05 120.462C440.047 121.873 442.703 121.052 442.24 123.362C443.647 127.807 437.161 136.225 433.437 134.452C434.358 132.765 436.462 128.932 433.271 128.551C426.408 134.937 432.563 116.391 423.94 121.784C421.084 124.398 417.175 116.882 418.844 114.269Z" fill="#2F2E41"/>
<path d="M383.789 167.392C383.658 167.525 383.539 167.67 383.431 167.822L366.689 167.413L364.735 163.844L358.964 166.087L361.807 172.742C362.037 173.279 362.435 173.728 362.941 174.02C363.448 174.312 364.035 174.432 364.616 174.362L383.532 172.077C383.978 172.642 384.585 173.058 385.274 173.269C385.962 173.48 386.698 173.476 387.384 173.259C388.07 173.042 388.674 172.62 389.115 172.051C389.556 171.482 389.814 170.793 389.853 170.074C389.892 169.355 389.712 168.641 389.336 168.028C388.96 167.414 388.406 166.929 387.747 166.638C387.089 166.347 386.358 166.263 385.65 166.397C384.943 166.532 384.294 166.879 383.789 167.391V167.392Z" fill="#9F616A"/>
<path d="M329.211 269.071H334.715L337.334 247.837L329.209 247.837L329.211 269.071Z" fill="#9F616A"/>
<path d="M327.806 267.274L338.648 267.273H338.648C340.48 267.273 342.238 268.001 343.533 269.297C344.829 270.593 345.557 272.35 345.557 274.182V274.407L327.806 274.407L327.806 267.274Z" fill="#2F2E41"/>
<path d="M379.198 268.948L384.261 266.786L378.328 246.23L370.856 249.422L379.198 268.948Z" fill="#9F616A"/>
<path d="M377.201 267.847L387.171 263.588L387.171 263.588C388.856 262.868 390.758 262.847 392.459 263.53C394.159 264.212 395.519 265.542 396.239 267.227L396.327 267.434L380.004 274.407L377.201 267.847Z" fill="#2F2E41"/>
<path d="M355.969 171.991L356.367 178.442L344.731 179.687L332.555 180.99L336.139 171.195L355.969 171.991Z" fill="#9F616A"/>
<path d="M356.378 174.306C356.246 174.254 343.103 169.142 335.029 173.322L334.831 173.425L333.22 165.498L332.303 148.455L338.274 145.633L339.918 141.95L351.117 141.287L353.419 144.443L361.254 147.011L356.571 174.382L356.378 174.306Z" fill="#3F3D56"/>
<path d="M356.789 158.922L358.174 148.038L361.328 147.078L361.381 147.098C361.983 147.378 362.505 147.805 362.899 148.339C363.293 148.873 363.547 149.497 363.638 150.154C364.088 152.432 367.48 166.607 367.514 166.75L367.548 166.891L359.578 170.08L356.789 158.922Z" fill="#3F3D56"/>
<path d="M375.098 265.217L385.707 263.04L368.751 216.252L362.948 200.293C362.948 200.293 359.267 187.498 357.604 182.546L356.601 175.902L332.844 178.531C332.844 178.531 326.208 188.276 328.224 204.159L327.312 263.857L337.921 264.401L346.808 204.192L362.404 237.198C362.404 237.198 367.319 251.283 370.836 254.336L375.098 265.217Z" fill="#2F2E41"/>
<path d="M354.124 138.734H335.103C334.712 138.733 334.337 138.577 334.06 138.301C333.784 138.024 333.628 137.649 333.627 137.258V129.059C333.627 126.145 334.785 123.351 336.845 121.291C338.906 119.23 341.7 118.073 344.614 118.073C347.527 118.073 350.322 119.23 352.382 121.291C354.443 123.351 355.6 126.145 355.6 129.059V137.258C355.6 137.649 355.444 138.024 355.167 138.301C354.891 138.577 354.515 138.733 354.124 138.734Z" fill="#2F2E41"/>
<path d="M346.871 138.543C351.32 138.543 354.926 134.936 354.926 130.488C354.926 126.039 351.32 122.433 346.871 122.433C342.423 122.433 338.817 126.039 338.817 130.488C338.817 134.936 342.423 138.543 346.871 138.543Z" fill="#9F616A"/>
<path d="M358.199 129.879H346.568L346.449 128.209L345.853 129.879H344.062L343.825 126.569L342.644 129.879H339.178V129.715C339.181 127.411 340.097 125.202 341.726 123.572C343.356 121.943 345.565 121.027 347.869 121.024H349.509C351.813 121.027 354.022 121.943 355.651 123.572C357.28 125.202 358.197 127.411 358.199 129.715L358.199 129.879Z" fill="#2F2E41"/>
<path d="M346.473 140.264C346.386 140.264 346.298 140.256 346.212 140.241L337.695 138.738V124.663H347.071L346.838 124.933C343.609 128.7 346.042 134.807 347.78 138.112C347.908 138.354 347.965 138.627 347.944 138.9C347.924 139.173 347.827 139.435 347.664 139.655C347.528 139.844 347.349 139.997 347.142 140.103C346.935 140.209 346.706 140.264 346.473 140.264Z" fill="#2F2E41"/>
<path d="M393.067 165.995C392.537 166.048 392.002 166.061 391.47 166.032C391.379 166.022 391.288 166.048 391.216 166.105C391.144 166.161 391.098 166.244 391.086 166.335L390.067 173.98C389.988 174.535 389.761 175.058 389.409 175.494C389.119 175.842 388.903 176.245 388.776 176.679C388.648 177.113 388.611 177.568 388.666 178.017V191.004C388.666 191.004 388.6 192.736 389.931 192.736C391.523 192.936 393.134 192.936 394.727 192.736C394.727 192.736 395.792 192.534 395.792 190.936V178.149C395.873 177.703 395.856 177.244 395.743 176.805C395.629 176.366 395.422 175.957 395.134 175.606C394.794 175.168 394.574 174.649 394.497 174.1L393.438 166.295C393.426 166.207 393.381 166.127 393.312 166.072C393.243 166.016 393.156 165.988 393.067 165.995Z" fill="white"/>
<path d="M392.324 193.104C391.519 193.104 390.715 193.054 389.917 192.955C389.738 192.959 389.561 192.926 389.396 192.859C389.231 192.791 389.081 192.69 388.957 192.562C388.607 192.116 388.427 191.561 388.447 190.996L388.447 178.03C388.391 177.554 388.432 177.071 388.568 176.61C388.705 176.15 388.934 175.723 389.241 175.354C389.567 174.949 389.777 174.464 389.85 173.949L390.869 166.305C390.889 166.158 390.965 166.025 391.082 165.933C391.198 165.842 391.346 165.799 391.494 165.814C392.011 165.841 392.53 165.829 393.046 165.777L393.052 165.776C393.196 165.766 393.338 165.81 393.45 165.901C393.562 165.992 393.636 166.122 393.655 166.265L394.714 174.071C394.787 174.581 394.991 175.064 395.308 175.472C395.612 175.844 395.833 176.277 395.954 176.743C396.076 177.208 396.095 177.694 396.011 178.168V190.936C396.011 192.695 394.78 192.949 394.768 192.951C393.957 193.053 393.141 193.104 392.324 193.104ZM391.44 166.25C391.407 166.248 391.375 166.259 391.35 166.28C391.325 166.3 391.308 166.33 391.304 166.362L390.284 174.009C390.2 174.603 389.957 175.164 389.58 175.632C389.309 175.957 389.107 176.333 388.988 176.739C388.868 177.145 388.833 177.57 388.884 177.99L388.886 178.017V191.004C388.869 191.454 389.006 191.897 389.274 192.259C389.359 192.345 389.462 192.413 389.575 192.458C389.688 192.502 389.81 192.522 389.931 192.516L389.958 192.518C391.533 192.716 393.125 192.716 394.699 192.518C394.72 192.513 395.573 192.318 395.573 190.936L395.576 178.109C395.652 177.694 395.637 177.268 395.531 176.86C395.426 176.451 395.232 176.071 394.965 175.745C394.6 175.276 394.364 174.719 394.28 174.131L393.221 166.324C393.216 166.292 393.2 166.263 393.175 166.243C393.15 166.222 393.118 166.212 393.086 166.213C392.545 166.267 392.001 166.28 391.458 166.251L391.44 166.25Z" fill="#3F3D56"/>
<path d="M393.074 178.25H391.459C390.121 178.25 389.037 179.334 389.037 180.672V186.75C389.037 188.087 390.121 189.172 391.459 189.172H393.074C394.412 189.172 395.496 188.087 395.496 186.75V180.672C395.496 179.334 394.412 178.25 393.074 178.25Z" fill="#3E66FB"/>
<path d="M393.074 178.25H391.459C390.121 178.25 389.037 179.334 389.037 180.672V186.75C389.037 188.087 390.121 189.172 391.459 189.172H393.074C394.412 189.172 395.496 188.087 395.496 186.75V180.672C395.496 179.334 394.412 178.25 393.074 178.25Z" fill="black" fill-opacity="0.25"/>
<path d="M384.383 152.418C383.852 152.471 383.318 152.484 382.785 152.455C382.694 152.445 382.603 152.471 382.532 152.528C382.46 152.584 382.413 152.667 382.402 152.757L381.382 160.403C381.304 160.958 381.077 161.481 380.725 161.917C380.435 162.264 380.219 162.667 380.091 163.101C379.963 163.535 379.926 163.991 379.982 164.44V177.427C379.982 177.427 379.916 179.158 381.247 179.158C382.839 179.358 384.45 179.358 386.042 179.158C386.042 179.158 387.108 178.957 387.108 177.359V164.572C387.189 164.125 387.172 163.667 387.059 163.228C386.945 162.789 386.737 162.38 386.45 162.029C386.11 161.591 385.89 161.072 385.812 160.523L384.754 152.718C384.742 152.63 384.697 152.55 384.628 152.495C384.559 152.439 384.471 152.411 384.383 152.418Z" fill="white"/>
<path d="M383.64 179.527C382.835 179.527 382.031 179.477 381.232 179.377C381.054 179.382 380.877 179.349 380.711 179.281C380.546 179.214 380.397 179.113 380.273 178.985C379.923 178.539 379.742 177.984 379.763 177.418L379.763 164.453C379.706 163.977 379.747 163.493 379.884 163.033C380.02 162.573 380.249 162.145 380.557 161.777C380.882 161.372 381.093 160.886 381.165 160.372L382.184 152.728C382.204 152.581 382.28 152.448 382.397 152.356C382.514 152.264 382.661 152.222 382.809 152.237C383.327 152.264 383.845 152.252 384.361 152.2L384.367 152.199C384.511 152.189 384.654 152.233 384.766 152.324C384.878 152.415 384.951 152.545 384.971 152.688L386.029 160.494C386.102 161.004 386.307 161.487 386.623 161.894C386.928 162.267 387.148 162.7 387.27 163.166C387.391 163.631 387.411 164.117 387.327 164.591V177.359C387.327 179.118 386.095 179.371 386.083 179.374C385.273 179.476 384.457 179.527 383.64 179.527ZM382.755 152.673C382.723 152.671 382.691 152.682 382.666 152.703C382.64 152.723 382.624 152.753 382.619 152.785L381.6 160.432C381.516 161.026 381.272 161.587 380.895 162.055C380.624 162.379 380.423 162.756 380.303 163.162C380.183 163.567 380.148 163.993 380.199 164.413L380.201 164.44V177.427C380.185 177.877 380.321 178.319 380.589 178.682C380.675 178.768 380.777 178.836 380.89 178.881C381.004 178.925 381.125 178.945 381.246 178.939L381.274 178.941C382.848 179.138 384.441 179.138 386.015 178.941C386.036 178.936 386.888 178.741 386.888 177.359L386.892 164.532C386.968 164.117 386.952 163.691 386.847 163.283C386.741 162.874 386.548 162.494 386.28 162.168C385.915 161.699 385.679 161.142 385.595 160.554L384.536 152.747C384.532 152.715 384.515 152.686 384.49 152.666C384.465 152.645 384.433 152.634 384.401 152.636C383.86 152.69 383.316 152.703 382.773 152.674L382.755 152.673Z" fill="#3F3D56"/>
<path d="M384.39 164.672H382.774C381.437 164.672 380.352 165.757 380.352 167.094V173.172C380.352 174.51 381.437 175.594 382.774 175.594H384.39C385.727 175.594 386.812 174.51 386.812 173.172V167.094C386.812 165.757 385.727 164.672 384.39 164.672Z" fill="#3E66FB"/>
<path d="M384.39 164.672H382.774C381.437 164.672 380.352 165.757 380.352 167.094V173.172C380.352 174.51 381.437 175.594 382.774 175.594H384.39C385.727 175.594 386.812 174.51 386.812 173.172V167.094C386.812 165.757 385.727 164.672 384.39 164.672Z" fill="black" fill-opacity="0.25"/>
<path d="M354.998 182.052H347.46C346.761 182.052 346.09 181.774 345.595 181.279C345.1 180.784 344.822 180.113 344.822 179.414C344.822 178.714 345.1 178.043 345.595 177.548C346.09 177.053 346.761 176.775 347.46 176.775H354.998C355.698 176.775 356.369 177.053 356.864 177.548C357.359 178.043 357.636 178.714 357.636 179.414C357.636 180.113 357.359 180.784 356.864 181.279C356.369 181.774 355.698 182.052 354.998 182.052Z" fill="#E4E4E4"/>
<path d="M357.636 180.544H344.822C344.424 180.542 344.042 180.382 343.761 180.1C343.48 179.817 343.323 179.435 343.323 179.037C343.323 178.638 343.48 178.256 343.761 177.973C344.042 177.691 344.424 177.531 344.822 177.529H357.636C357.835 177.528 358.032 177.566 358.216 177.642C358.399 177.717 358.567 177.828 358.707 177.968C358.848 178.108 358.96 178.274 359.036 178.458C359.113 178.641 359.152 178.838 359.152 179.037C359.152 179.235 359.113 179.432 359.036 179.615C358.96 179.799 358.848 179.965 358.707 180.105C358.567 180.246 358.399 180.356 358.216 180.432C358.032 180.507 357.835 180.545 357.636 180.544Z" fill="#CACACA"/>
<path d="M356.115 186.971H346.13C345.038 186.969 343.991 186.534 343.219 185.762C342.448 184.989 342.014 183.942 342.014 182.85C342.014 181.758 342.448 180.711 343.219 179.938C343.991 179.166 345.038 178.731 346.13 178.73H356.115C357.208 178.73 358.256 179.164 359.029 179.937C359.801 180.709 360.235 181.757 360.235 182.85C360.235 183.943 359.801 184.991 359.029 185.764C358.256 186.536 357.208 186.971 356.115 186.971Z" fill="#E4E4E4"/>
<path d="M342.371 180.747C342.184 180.743 341.997 180.753 341.812 180.778L330.729 168.222L332.018 164.363L326.449 161.656L323.502 168.266C323.264 168.8 323.206 169.397 323.336 169.967C323.466 170.537 323.777 171.049 324.223 171.427L338.76 183.745C338.649 184.456 338.758 185.184 339.071 185.832C339.384 186.481 339.887 187.018 340.513 187.373C341.139 187.729 341.858 187.885 342.575 187.822C343.292 187.758 343.973 187.478 344.527 187.018C345.081 186.558 345.482 185.941 345.676 185.248C345.87 184.554 345.849 183.819 345.615 183.138C345.381 182.457 344.945 181.864 344.366 181.437C343.786 181.01 343.09 180.769 342.371 180.747Z" fill="#9F616A"/>
<path d="M325.445 163.517L329.778 151.175C330.265 149.72 330.875 148.836 331.591 148.548C331.733 148.485 331.885 148.451 332.04 148.45C332.195 148.448 332.348 148.479 332.491 148.54L334.433 150.994L336.237 158.569L331.613 169.444L325.445 163.517Z" fill="#3F3D56"/>
<path d="M76.3113 129.644H70.2421C69.6787 129.644 69.1385 129.42 68.7401 129.022C68.3417 128.623 68.1179 128.083 68.1179 127.52C68.1179 126.956 68.3417 126.416 68.7401 126.018C69.1385 125.619 69.6787 125.396 70.2421 125.396H76.3113C76.8746 125.396 77.4149 125.619 77.8133 126.018C78.2117 126.416 78.4355 126.956 78.4355 127.52C78.4355 128.083 78.2117 128.623 77.8133 129.022C77.4149 129.42 76.8746 129.644 76.3113 129.644Z" fill="#E4E4E4"/>
<path d="M78.4354 128.43H68.1179C67.796 128.43 67.4872 128.302 67.2596 128.075C67.032 127.847 66.9041 127.538 66.9041 127.216C66.9041 126.894 67.032 126.586 67.2596 126.358C67.4872 126.13 67.796 126.002 68.1179 126.002H78.4354C78.7574 126.002 79.0661 126.13 79.2937 126.358C79.5214 126.586 79.6493 126.894 79.6493 127.216C79.6493 127.538 79.5214 127.847 79.2937 128.075C79.0661 128.302 78.7574 128.43 78.4354 128.43Z" fill="#CACACA"/>
<path d="M77.2104 133.604H69.1707C68.2916 133.603 67.449 133.253 66.8278 132.631C66.2066 132.009 65.8577 131.166 65.8577 130.287C65.8577 129.407 66.2066 128.564 66.8278 127.942C67.449 127.32 68.2916 126.97 69.1707 126.969H77.2104C78.0903 126.969 78.9342 127.319 79.5563 127.941C80.1785 128.563 80.528 129.407 80.528 130.287C80.528 131.166 80.1785 132.01 79.5563 132.632C78.9342 133.255 78.0903 133.604 77.2104 133.604Z" fill="#E4E4E4"/>
<path d="M101.195 135.106H95.1257C94.5623 135.106 94.022 134.882 93.6236 134.484C93.2253 134.086 93.0015 133.545 93.0015 132.982C93.0015 132.418 93.2253 131.878 93.6236 131.48C94.022 131.081 94.5623 130.858 95.1257 130.858H101.195C101.758 130.858 102.298 131.081 102.697 131.48C103.095 131.878 103.319 132.418 103.319 132.982C103.319 133.545 103.095 134.086 102.697 134.484C102.298 134.882 101.758 135.106 101.195 135.106Z" fill="#E4E4E4"/>
<path d="M103.319 133.892H93.0014C92.6795 133.892 92.3708 133.764 92.1431 133.537C91.9155 133.309 91.7876 133 91.7876 132.678C91.7876 132.357 91.9155 132.048 92.1431 131.82C92.3708 131.592 92.6795 131.465 93.0014 131.465H103.319C103.641 131.465 103.95 131.592 104.177 131.82C104.405 132.048 104.533 132.357 104.533 132.678C104.533 133 104.405 133.309 104.177 133.537C103.95 133.764 103.641 133.892 103.319 133.892Z" fill="#CACACA"/>
<path d="M102.094 139.067H94.0543C93.1752 139.065 92.3325 138.715 91.7113 138.093C91.0901 137.471 90.7412 136.628 90.7412 135.749C90.7412 134.87 91.0901 134.027 91.7113 133.405C92.3325 132.783 93.1752 132.433 94.0543 132.431H102.094C102.974 132.431 103.818 132.781 104.44 133.403C105.062 134.025 105.412 134.869 105.412 135.749C105.412 136.629 105.062 137.473 104.44 138.095C103.818 138.717 102.974 139.067 102.094 139.067Z" fill="#E4E4E4"/>
<path d="M58.0963 145.613C56.5296 155.795 135.884 155.795 134.311 145.611C135.878 135.431 56.5235 135.431 58.0963 145.613Z" fill="#F0F0F0"/>
<path d="M98.4454 149.504H93.9622V208.82H98.4454V149.504Z" fill="#F0F0F0"/>
<path d="M69.9989 141.86C69.7357 141.347 69.3594 140.901 68.8983 140.555C68.4372 140.209 67.9035 139.972 67.3375 139.863C66.7715 139.753 66.188 139.774 65.6312 139.923C65.0744 140.073 64.5589 140.347 64.1236 140.725L47.6655 136.827L46.4518 132.799L39.8862 133.877C40.7752 136.617 40.4179 143.637 44.6444 143.709L63.2642 145.349C65.4777 149.716 72.2725 146.172 69.9989 141.86Z" fill="#9F616A"/>
<path d="M34.3117 170.511H50.8685C50.8685 170.987 67.9323 171.373 67.9323 171.373C71.2093 173.773 69.6685 179.945 65.3493 179.822L34.3117 179.823C28.6035 179.904 28.5918 170.431 34.3117 170.511Z" fill="#F0F0F0"/>
<path d="M52.3218 179.651H47.8386V208.62H52.3218V179.651Z" fill="#F0F0F0"/>
<path d="M65.0817 208.462C65.0817 208.947 58.288 208.65 49.9077 208.65C41.5273 208.65 34.7336 208.947 34.7336 208.462C40.4959 202.96 59.4014 203.01 65.0817 208.462Z" fill="#F0F0F0"/>
<path d="M60.6896 204.722L64.9173 204.721L66.9287 193.756H60.689L60.6896 204.722Z" fill="#9F616A"/>
<path d="M59.6113 208.82L73.244 208.82C73.4453 201.665 64.0942 203.543 59.6111 203.342L59.6113 208.82Z" fill="#2F2E41"/>
<path d="M67.0133 197.922L75.4421 179.021C76.1458 177.428 76.2237 175.628 75.6601 173.98C75.0965 172.332 73.9328 170.957 72.4009 170.129L54.1185 160.325C50.1288 160.002 42.0546 159.284 38.0803 158.916C30.8553 171.972 61.0139 174.926 65.2842 177.165C65.4454 177.208 65.596 177.284 65.7265 177.388C65.857 177.492 65.9647 177.622 66.0426 177.769C66.1206 177.917 66.1672 178.079 66.1796 178.245C66.192 178.412 66.1699 178.579 66.1147 178.736L58.284 196.329C58.2034 196.553 58.1749 196.791 58.2005 197.027C58.2262 197.263 58.3054 197.49 58.4322 197.69C58.5589 197.891 58.7298 198.06 58.9318 198.185C59.1338 198.309 59.3616 198.386 59.5978 198.409C60.8356 198.121 66.4761 199.831 67.0133 197.922Z" fill="#2F2E41"/>
<path d="M57.9305 204.722L62.1583 204.721L64.1702 193.756H57.9299L57.9305 204.722Z" fill="#9F616A"/>
<path d="M56.8523 208.82L70.4849 208.82C70.6862 201.665 61.3352 203.543 56.8521 203.342L56.8523 208.82Z" fill="#2F2E41"/>
<path d="M63.9095 198.957L72.3382 180.056C73.042 178.462 73.1198 176.663 72.5562 175.015C71.9926 173.367 70.8289 171.992 69.297 171.164L51.0146 161.36C47.5331 161.081 40.0816 160.418 36.6444 160.127L36.6453 160.045C34.8345 162.266 35.5104 170.309 40.873 171.675C49.0509 174.673 58.4984 177.236 62.1806 178.199C62.3418 178.242 62.4923 178.318 62.6228 178.422C62.7533 178.526 62.8609 178.656 62.9388 178.804C63.0167 178.951 63.0634 179.113 63.0758 179.28C63.0882 179.446 63.0661 179.613 63.0109 179.771L55.1802 197.364C55.0996 197.587 55.071 197.826 55.0967 198.062C55.1224 198.298 55.2016 198.525 55.3283 198.725C55.4551 198.926 55.626 199.095 55.828 199.219C56.03 199.344 56.2578 199.42 56.4939 199.443C57.7403 199.165 63.3661 200.859 63.9095 198.957Z" fill="#2F2E41"/>
<path d="M48.0249 160.472C48.4291 160.186 54.2325 163.231 55.2671 160.817C50.439 148.747 53.7661 143.535 50.8086 136.613C48.862 131.101 42.0956 131.481 37.422 131.336C35.6797 132.179 34.2568 133.563 33.3658 135.281C32.4749 136.999 32.1637 138.959 32.4788 140.869C32.5061 148.402 37.0132 154.147 35.4372 159.611C35.3714 159.835 35.3516 160.07 35.3788 160.302C35.4061 160.534 35.4799 160.758 35.5958 160.961C35.7117 161.163 35.8674 161.34 36.0535 161.481C36.2395 161.622 36.4522 161.724 36.6786 161.781C37.5307 161.575 47.7793 160.51 48.1954 160.162L48.0249 160.472Z" fill="#3E66FB"/>
<path d="M48.0249 160.472C48.4291 160.186 54.2325 163.231 55.2671 160.817C50.439 148.747 53.7661 143.535 50.8086 136.613C48.862 131.101 42.0956 131.481 37.422 131.336C35.6797 132.179 34.2568 133.563 33.3658 135.281C32.4749 136.999 32.1637 138.959 32.4788 140.869C32.5061 148.402 37.0132 154.147 35.4372 159.611C35.3714 159.835 35.3516 160.07 35.3788 160.302C35.4061 160.534 35.4799 160.758 35.5958 160.961C35.7117 161.163 35.8674 161.34 36.0535 161.481C36.2395 161.622 36.4522 161.724 36.6786 161.781C37.5307 161.575 47.7793 160.51 48.1954 160.162L48.0249 160.472Z" fill="black" fill-opacity="0.25"/>
<path d="M39.983 111.529C28.9058 111.579 28.9068 128.422 39.9835 128.47C51.0602 128.42 51.0593 111.577 39.983 111.529Z" fill="#9F616A"/>
<path d="M37.2852 127.774C37.7352 127.971 38.6568 124.385 38.244 123.668C37.63 122.601 37.6663 122.609 37.2588 121.903C36.0403 120.424 38.1471 117.973 39.2778 119.851C39.3459 114.208 50.3146 119.085 49.2434 112.804C36.7096 100.549 19.2115 119.844 37.2852 127.774Z" fill="#2F2E41"/>
<path d="M162.399 168.015H149.456C149.456 168.569 135.308 169.019 135.308 169.019C131.488 171.815 133.285 179.007 138.318 178.865L162.399 178.865C169.054 178.96 169.062 167.921 162.399 168.015Z" fill="#F0F0F0"/>
<path d="M152.987 178.666H147.763V208.82H152.987V178.666Z" fill="#F0F0F0"/>
<path d="M132.519 208.262C131.49 208.738 168.908 208.736 167.883 208.263C161.168 201.85 139.138 201.908 132.519 208.262Z" fill="#F0F0F0"/>
<path d="M55.9815 148.702L70.6984 137.092C75.2891 138.748 77.8308 131.514 73.2057 129.934C72.6624 129.741 72.0824 129.674 71.5096 129.739C70.9368 129.803 70.3862 129.997 69.8993 130.306C69.4125 130.615 69.0022 131.03 68.6995 131.52C68.3968 132.011 68.2095 132.564 68.152 133.137L53.5016 141.589L49.8558 139.49L45.8171 144.778C48.3063 146.134 52.8981 151.52 55.9815 148.702Z" fill="#9F616A"/>
<path d="M44.0214 146.424L52.4184 140.714C50.4321 138.433 47.7564 131.643 43.6687 133.87C38.9994 135.756 43.5673 143.324 44.0214 146.424Z" fill="#3E66FB"/>
<path d="M44.0214 146.424L52.4184 140.714C50.4321 138.433 47.7564 131.643 43.6687 133.87C38.9994 135.756 43.5673 143.324 44.0214 146.424Z" fill="black" fill-opacity="0.25"/>
<path d="M107.871 100.512H101.802C101.238 100.512 100.698 100.288 100.3 99.8899C99.9013 99.4916 99.6775 98.9512 99.6775 98.3879C99.6775 97.8245 99.9013 97.2842 100.3 96.8858C100.698 96.4875 101.238 96.2637 101.802 96.2637H107.871C108.434 96.2637 108.975 96.4875 109.373 96.8858C109.771 97.2842 109.995 97.8245 109.995 98.3879C109.995 98.9512 109.771 99.4916 109.373 99.8899C108.975 100.288 108.434 100.512 107.871 100.512Z" fill="#E4E4E4"/>
<path d="M109.995 99.2983H99.6775C99.3555 99.2983 99.0468 99.1704 98.8192 98.9427C98.5915 98.7151 98.4636 98.4064 98.4636 98.0844C98.4636 97.7625 98.5915 97.4538 98.8192 97.2261C99.0468 96.9985 99.3555 96.8706 99.6775 96.8706H109.995C110.317 96.8706 110.626 96.9985 110.853 97.2261C111.081 97.4538 111.209 97.7625 111.209 98.0844C111.209 98.4064 111.081 98.7151 110.853 98.9427C110.626 99.1704 110.317 99.2983 109.995 99.2983Z" fill="#CACACA"/>
<path d="M108.77 104.472H100.73C99.8505 104.472 99.0067 104.123 98.3845 103.501C97.7624 102.878 97.4128 102.035 97.4128 101.155C97.4128 100.275 97.7624 99.431 98.3845 98.8089C99.0067 98.1867 99.8505 97.8372 100.73 97.8372H108.77C109.65 97.8372 110.494 98.1867 111.116 98.8089C111.738 99.431 112.088 100.275 112.088 101.155C112.088 102.035 111.738 102.878 111.116 103.501C110.494 104.123 109.65 104.472 108.77 104.472Z" fill="#E4E4E4"/>
<path d="M151.332 145.355C150.87 145.125 150.464 144.797 150.143 144.393C149.822 143.989 149.593 143.52 149.473 143.019C149.352 142.517 149.344 141.995 149.447 141.49C149.55 140.984 149.763 140.507 150.07 140.093L147.432 114.295H153.134L155.231 139.486C155.893 140.048 156.325 140.834 156.446 141.694C156.567 142.554 156.369 143.428 155.888 144.152C155.408 144.875 154.679 145.397 153.839 145.619C152.999 145.841 152.107 145.747 151.332 145.355Z" fill="#FFB6B6"/>
<path d="M146.096 100.058C150.552 100.058 154.164 96.4457 154.164 91.9902C154.164 87.5346 150.552 83.9226 146.096 83.9226C141.641 83.9226 138.029 87.5346 138.029 91.9902C138.029 96.4457 141.641 100.058 146.096 100.058Z" fill="#FFB6B6"/>
<path d="M144.26 129.285L132.22 126.655C131.903 126.586 131.618 126.414 131.409 126.167C131.199 125.92 131.076 125.611 131.059 125.287C130.92 122.6 130.82 115.65 132.89 109.161C133.289 107.917 133.935 106.766 134.787 105.776C135.639 104.786 136.682 103.976 137.853 103.396C139.023 102.816 140.298 102.476 141.603 102.397C142.907 102.318 144.214 102.502 145.446 102.937C146.746 103.393 147.935 104.12 148.935 105.069C149.934 106.017 150.722 107.167 151.246 108.441C151.771 109.716 152.019 111.087 151.976 112.464C151.934 113.841 151.6 115.194 150.997 116.434C148.327 121.917 146.646 125.887 145.999 128.235C145.899 128.6 145.663 128.912 145.339 129.107C145.016 129.302 144.629 129.366 144.26 129.285L144.26 129.285Z" fill="#3E66FB"/>
<path d="M144.26 129.285L132.22 126.655C131.903 126.586 131.618 126.414 131.409 126.167C131.199 125.92 131.076 125.611 131.059 125.287C130.92 122.6 130.82 115.65 132.89 109.161C133.289 107.917 133.935 106.766 134.787 105.776C135.639 104.786 136.682 103.976 137.853 103.396C139.023 102.816 140.298 102.476 141.603 102.397C142.907 102.318 144.214 102.502 145.446 102.937C146.746 103.393 147.935 104.12 148.935 105.069C149.934 106.017 150.722 107.167 151.246 108.441C151.771 109.716 152.019 111.087 151.976 112.464C151.934 113.841 151.6 115.194 150.997 116.434C148.327 121.917 146.646 125.887 145.999 128.235C145.899 128.6 145.663 128.912 145.339 129.107C145.016 129.302 144.629 129.366 144.26 129.285L144.26 129.285Z" fill="black" fill-opacity="0.25"/>
<path d="M132.918 205.927H128.891L126.975 190.395L132.919 190.395L132.918 205.927Z" fill="#FFB6B6"/>
<path d="M126.014 204.777H133.78V209.667H121.124C121.124 209.024 121.251 208.389 121.496 207.795C121.742 207.202 122.102 206.663 122.556 206.209C123.011 205.755 123.55 205.395 124.143 205.149C124.736 204.903 125.372 204.777 126.014 204.777Z" fill="#2F2E41"/>
<path d="M173.185 200.708L169.656 202.649L160.494 189.961L165.702 187.097L173.185 200.708Z" fill="#FFB6B6"/>
<path d="M166.581 203.026L173.387 199.284L175.743 203.569L164.652 209.667C164.343 209.104 164.147 208.486 164.077 207.848C164.006 207.209 164.062 206.564 164.241 205.947C164.421 205.33 164.719 204.755 165.121 204.254C165.522 203.753 166.019 203.335 166.581 203.026Z" fill="#2F2E41"/>
<path d="M132.991 197.302L126.792 196.825C126.445 196.799 126.118 196.651 125.87 196.408C125.621 196.164 125.467 195.841 125.434 195.494C124.55 186.279 120.674 139.58 131.158 125.202L131.187 125.162L131.234 125.145C131.328 125.11 140.678 121.776 146.042 127.886C146.21 128.08 146.325 128.315 146.375 128.567C146.425 128.819 146.408 129.08 146.327 129.324L146.122 129.938C146.063 130.112 146.048 130.297 146.076 130.479C146.104 130.66 146.176 130.832 146.285 130.98C147.773 132.993 152.784 140.744 154.753 155.986C154.766 156.083 154.791 156.178 154.828 156.269L169.367 191.985C169.441 192.168 169.478 192.363 169.476 192.56C169.474 192.757 169.432 192.951 169.353 193.132C169.275 193.313 169.161 193.476 169.019 193.612C168.876 193.748 168.708 193.854 168.524 193.924L163.949 195.667C163.616 195.792 163.249 195.793 162.915 195.671C162.581 195.548 162.302 195.31 162.129 194.999L141.14 156.919C141.056 156.768 140.927 156.646 140.77 156.573C140.614 156.499 140.438 156.477 140.268 156.509C140.098 156.541 139.942 156.626 139.823 156.752C139.705 156.878 139.629 157.038 139.606 157.21L134.57 196.018C134.524 196.374 134.35 196.701 134.081 196.938C133.811 197.175 133.465 197.306 133.106 197.306C133.068 197.306 133.03 197.305 132.991 197.302Z" fill="#2F2E41"/>
<path d="M114.733 101.362C114.773 101.539 114.799 101.719 114.811 101.9L128.921 110.04L132.351 108.066L136.007 112.853L130.275 116.938C129.812 117.268 129.255 117.439 128.686 117.425C128.118 117.411 127.569 117.213 127.123 116.861L112.573 105.382C111.916 105.626 111.201 105.663 110.523 105.49C109.844 105.316 109.235 104.941 108.775 104.413C108.315 103.884 108.027 103.229 107.949 102.533C107.871 101.837 108.007 101.134 108.338 100.517C108.67 99.9004 109.181 99.3991 109.804 99.08C110.427 98.7608 111.133 98.6389 111.827 98.7306C112.521 98.8223 113.171 99.1231 113.69 99.5931C114.209 100.063 114.573 100.68 114.733 101.362Z" fill="#FFB6B6"/>
<path d="M129.115 109.227C129.158 109.019 129.245 108.822 129.37 108.651C129.495 108.479 129.656 108.337 129.842 108.233L136.317 104.613C137.177 103.948 138.266 103.651 139.344 103.788C140.423 103.925 141.403 104.484 142.07 105.343C142.737 106.202 143.035 107.29 142.901 108.369C142.766 109.448 142.209 110.429 141.351 111.098L136.188 116.459C136.041 116.612 135.863 116.731 135.665 116.809C135.467 116.887 135.255 116.921 135.043 116.909C134.831 116.898 134.624 116.841 134.436 116.742C134.248 116.643 134.083 116.505 133.954 116.337L129.393 110.426C129.263 110.258 129.171 110.064 129.123 109.857C129.075 109.65 129.073 109.435 129.115 109.227Z" fill="#3E66FB"/>
<path d="M129.115 109.227C129.158 109.019 129.245 108.822 129.37 108.651C129.495 108.479 129.656 108.337 129.842 108.233L136.317 104.613C137.177 103.948 138.266 103.651 139.344 103.788C140.423 103.925 141.403 104.484 142.07 105.343C142.737 106.202 143.035 107.29 142.901 108.369C142.766 109.448 142.209 110.429 141.351 111.098L136.188 116.459C136.041 116.612 135.863 116.731 135.665 116.809C135.467 116.887 135.255 116.921 135.043 116.909C134.831 116.898 134.624 116.841 134.436 116.742C134.248 116.643 134.083 116.505 133.954 116.337L129.393 110.426C129.263 110.258 129.171 110.064 129.123 109.857C129.075 109.65 129.073 109.435 129.115 109.227Z" fill="black" fill-opacity="0.25"/>
<path d="M145.876 120.389C145.711 120.255 145.577 120.088 145.482 119.898C145.388 119.707 145.335 119.499 145.329 119.287L145.096 111.872C144.903 110.802 145.141 109.699 145.76 108.805C146.378 107.911 147.325 107.299 148.395 107.103C149.464 106.907 150.567 107.142 151.462 107.758C152.358 108.375 152.973 109.321 153.171 110.389L155.553 117.441C155.621 117.642 155.645 117.855 155.623 118.067C155.601 118.278 155.534 118.482 155.426 118.665C155.318 118.848 155.171 119.005 154.997 119.127C154.823 119.248 154.624 119.33 154.415 119.368L147.069 120.695C146.86 120.732 146.645 120.725 146.439 120.672C146.233 120.619 146.041 120.523 145.876 120.389Z" fill="#3E66FB"/>
<path d="M145.876 120.389C145.711 120.255 145.577 120.088 145.482 119.898C145.388 119.707 145.335 119.499 145.329 119.287L145.096 111.872C144.903 110.802 145.141 109.699 145.76 108.805C146.378 107.911 147.325 107.299 148.395 107.103C149.464 106.907 150.567 107.142 151.462 107.758C152.358 108.375 152.973 109.321 153.171 110.389L155.553 117.441C155.621 117.642 155.645 117.855 155.623 118.067C155.601 118.278 155.534 118.482 155.426 118.665C155.318 118.848 155.171 119.005 154.997 119.127C154.823 119.248 154.624 119.33 154.415 119.368L147.069 120.695C146.86 120.732 146.645 120.725 146.439 120.672C146.233 120.619 146.041 120.523 145.876 120.389Z" fill="black" fill-opacity="0.25"/>
<path d="M144.819 90.1347C142.746 91.5539 140.023 93.0127 137.905 91.5014C137.243 90.9969 136.762 90.2915 136.534 89.4907C136.306 88.6898 136.343 87.8367 136.641 87.0589C137.655 84.159 140.441 82.8823 143.105 81.9037C146.569 80.6315 150.34 79.6195 153.915 80.5305C157.491 81.4416 160.651 84.9034 160.005 88.5363C159.486 91.4578 156.731 93.8887 157.122 96.83C157.516 99.7902 160.845 101.348 163.784 101.877C166.723 102.407 170.012 102.577 172.124 104.688C174.818 107.381 174.145 112.194 171.61 115.037C169.075 117.881 165.249 119.17 161.541 120.046C156.629 121.207 151.316 121.817 146.651 119.89C141.986 117.964 138.355 112.777 139.707 107.914C140.278 105.86 141.622 104.124 142.922 102.434C144.222 100.744 145.538 98.9765 146.033 96.9029C146.262 96.0413 146.287 95.1383 146.107 94.2653C145.927 93.3922 145.546 92.5731 144.995 91.8725C144.786 91.6456 144.655 91.3585 144.62 91.0524C144.585 90.7463 144.648 90.437 144.799 90.1689L144.819 90.1347Z" fill="#2F2E41"/>
<path d="M231.841 210.06H0.606915C0.445951 210.06 0.291579 209.996 0.177761 209.882C0.0639422 209.768 0 209.614 0 209.453C0 209.292 0.0639422 209.138 0.177761 209.024C0.291579 208.91 0.445951 208.846 0.606915 208.846H231.841C232.002 208.846 232.157 208.91 232.271 209.024C232.384 209.138 232.448 209.292 232.448 209.453C232.448 209.614 232.384 209.768 232.271 209.882C232.157 209.996 232.002 210.06 231.841 210.06Z" fill="#CACACA"/>
<path d="M484.318 275H253.083C252.923 275 252.768 274.936 252.654 274.822C252.541 274.708 252.477 274.554 252.477 274.393C252.477 274.232 252.541 274.078 252.654 273.964C252.768 273.85 252.923 273.786 253.083 273.786H484.318C484.479 273.786 484.633 273.85 484.747 273.964C484.861 274.078 484.925 274.232 484.925 274.393C484.925 274.554 484.861 274.708 484.747 274.822C484.633 274.936 484.479 275 484.318 275Z" fill="#CACACA"/>
<path d="M390.841 38.6067H135.641C135 38.6067 134.369 38.4506 133.802 38.1517C133.235 37.8529 132.749 37.4204 132.387 36.8916C132.024 36.3629 131.796 35.7538 131.722 35.1171C131.648 34.4804 131.731 33.8353 131.962 33.2375L144.685 0.371094H381.797L394.52 33.2376C394.751 33.8353 394.834 34.4804 394.76 35.1171C394.686 35.7538 394.458 36.3629 394.095 36.8917C393.733 37.4204 393.247 37.8529 392.68 38.1518C392.113 38.4506 391.482 38.6068 390.841 38.6068V38.6067Z" fill="#CACACA"/>
</g>
<defs>
<clipPath id="clip0">
<rect width="536.513" height="275" fill="white"/>
</clipPath>
</defs>
</svg>
