<svg width="332" height="233" viewBox="0 0 332 233" fill="none" xmlns="http://www.w3.org/2000/svg">
<g clip-path="url(#clip0)">
<path d="M15.5628 89.6554C15.8795 109.206 23.1869 111.323 32.1606 109.284C42.412 106.954 50.826 99.6532 54.973 89.9929L57.833 83.3307C59.7343 78.9016 59.7983 73.8986 58.0109 69.4223C56.2235 64.946 52.7311 61.3631 48.302 59.4618H48.3019C46.1089 58.5203 43.7518 58.0201 41.3654 57.9895C38.979 57.959 36.61 58.3988 34.3935 59.2838C32.1771 60.1689 30.1567 61.4818 28.4476 63.1477C26.7386 64.8135 25.3744 66.7997 24.433 68.9927C15.23 72.6079 13.4124 80.0923 15.5628 89.6554Z" fill="#2F2E41"/>
<path d="M73.265 50.3054L76.0193 45.6447C76.3557 45.0755 76.5588 44.4376 76.6134 43.7788C76.668 43.1199 76.5727 42.4573 76.3346 41.8406C76.0966 41.2238 75.7219 40.669 75.2388 40.2177C74.7557 39.7664 74.1767 39.4304 73.5452 39.2348C72.8787 39.0284 72.1724 38.9842 71.4854 39.1061C70.7983 39.228 70.1503 39.5123 69.5954 39.9353C69.0405 40.3584 68.5948 40.9079 68.2953 41.5382C67.9959 42.1684 67.8514 42.8611 67.8739 43.5585L68.0358 48.5685L55.0918 84.0416L62.1504 85.5152L73.265 50.3054Z" fill="#9F616A"/>
<path d="M5.16725 137.753L1.77704 141.974C1.36305 142.489 1.07115 143.091 0.923242 143.736C0.775335 144.38 0.77526 145.05 0.923021 145.694C1.07078 146.338 1.36255 146.941 1.77642 147.456C2.19029 147.972 2.71553 148.387 3.31274 148.671C3.94308 148.97 4.63581 149.114 5.33322 149.091C6.03062 149.069 6.7125 148.88 7.32201 148.54C7.93153 148.2 8.45103 147.72 8.83722 147.139C9.22341 146.557 9.4651 145.892 9.54216 145.199L10.0957 140.217L27.9614 106.95L21.1848 104.486L5.16725 137.753Z" fill="#9F616A"/>
<path d="M26.113 172.868L26.612 178.862L26.7291 180.261L59.91 177.07C61.0537 176.941 62.1509 176.544 63.1124 175.911C64.0738 175.278 64.8724 174.428 65.4433 173.428C66.0141 172.429 66.3411 171.309 66.3977 170.159C66.4542 169.01 66.2387 167.863 65.7687 166.812L55.0678 143.839L51.3714 135.905L35.3539 132.208C22.1456 142.318 34.0294 153.475 48.9811 164.761C49.5664 165.204 50.1578 165.648 50.7554 166.091L26.113 172.868Z" fill="#2F2E41"/>
<path d="M14.9326 193.625C15.3368 193.682 15.7492 193.635 16.1301 193.488C16.5109 193.341 16.8475 193.098 17.1076 192.783L27.9612 179.644L27.3452 173.484L23.6444 171.263C23.3417 171.082 23.003 170.968 22.652 170.931C22.301 170.893 21.946 170.932 21.6117 171.046C21.2774 171.159 20.9718 171.344 20.7161 171.588C20.4605 171.831 20.2609 172.127 20.1313 172.456L13.0522 190.389C12.92 190.724 12.8654 191.085 12.8925 191.444C12.9196 191.803 13.0276 192.151 13.2086 192.463C13.3895 192.774 13.6386 193.04 13.9372 193.241C14.2358 193.443 14.5761 193.574 14.9326 193.625Z" fill="#2F2E41"/>
<path opacity="0.2" d="M24.2649 171.636L24.8809 179.029L26.6121 178.862L58.0618 175.838C59.2056 175.709 60.3028 175.312 61.2642 174.679C62.2257 174.046 63.0243 173.196 63.5951 172.196C64.166 171.197 64.493 170.077 64.5495 168.927C64.6061 167.777 64.3906 166.631 63.9206 165.58L55.0678 145.762V143.839L51.3715 135.905L35.354 132.208C22.1457 142.318 34.0294 153.475 48.9812 164.761L48.9072 164.859L24.2649 171.636Z" fill="black"/>
<path d="M11.8522 191.161C12.2565 191.218 12.6689 191.171 13.0497 191.024C13.4306 190.877 13.7672 190.634 14.0273 190.319L24.8809 177.18L24.2648 171.02L20.5641 168.799C20.2614 168.618 19.9227 168.504 19.5717 168.467C19.2207 168.429 18.8657 168.468 18.5314 168.582C18.197 168.695 17.8915 168.88 17.6358 169.124C17.3802 169.367 17.1806 169.663 17.051 169.992L9.97193 187.925C9.83972 188.26 9.7851 188.621 9.81217 188.98C9.83924 189.339 9.9473 189.687 10.1282 189.999C10.3092 190.31 10.5583 190.576 10.8569 190.778C11.1555 190.979 11.4958 191.11 11.8522 191.161Z" fill="#2F2E41"/>
<path d="M23.0327 170.404L23.6488 177.796L56.8297 174.604C57.9734 174.476 59.0705 174.079 60.032 173.446C60.9935 172.814 61.7922 171.963 62.3632 170.964C62.9343 169.965 63.2616 168.845 63.3186 167.695C63.3755 166.546 63.1605 165.399 62.691 164.348L53.8356 144.529V133.44L32.2736 129.744C18.5456 140.25 31.9213 151.889 47.6751 163.627L23.0327 170.404Z" fill="#2F2E41"/>
<path d="M43.9787 83.5396C49.0823 83.5396 53.2195 79.4023 53.2195 74.2987C53.2195 69.1951 49.0823 65.0579 43.9787 65.0579C38.8751 65.0579 34.7378 69.1951 34.7378 74.2987C34.7378 79.4023 38.8751 83.5396 43.9787 83.5396Z" fill="#9F616A"/>
<path d="M31.6577 89.7L44.5949 98.3248L55.684 95.8605L49.5234 89.7V80.4591L39.6665 79.843C39.4595 83.5332 37.345 86.91 31.6577 89.7Z" fill="#9F616A"/>
<path d="M29.8094 132.824L53.8357 135.905L59.3802 110.03C61.956 103.162 60.4782 97.0939 55.7093 91.6753C55.5269 90.7634 55.041 89.9402 54.3309 89.3398C53.6207 88.7394 52.7281 88.3972 51.7986 88.369L49.5233 88.4681C49.7807 96.6386 43.761 94.6707 34.7379 87.8521L33.6484 88.1789C32.2399 88.6015 31.0306 89.517 30.2419 90.7581C29.4532 91.9992 29.1377 93.4828 29.3532 94.9374L30.3467 101.643C30.768 104.302 31.4224 106.919 32.3024 109.462C34.7657 116.824 33.8854 124.618 29.8094 132.824Z" fill="#3E66FB"/>
<path d="M29.8094 132.824L53.8357 135.905L59.3802 110.03C61.956 103.162 60.4782 97.0939 55.7093 91.6753C55.5269 90.7634 55.041 89.9402 54.3309 89.3398C53.6207 88.7394 52.7281 88.3972 51.7986 88.369L49.5233 88.4681C49.7807 96.6386 43.761 94.6707 34.7379 87.8521L33.6484 88.1789C32.2399 88.6015 31.0306 89.517 30.2419 90.7581C29.4532 91.9992 29.1377 93.4828 29.3532 94.9374L30.3467 101.643C30.768 104.302 31.4224 106.919 32.3024 109.462C34.7657 116.824 33.8854 124.618 29.8094 132.824Z" fill="black" fill-opacity="0.25"/>
<path d="M18.7202 105.102L29.8093 108.798L34.7377 90.9324L33.0681 90.1734C31.6838 89.5442 30.112 89.4652 28.6716 89.9524C27.2312 90.4397 26.0301 91.4566 25.312 92.797L18.7202 105.102Z" fill="#3E66FB"/>
<path d="M18.7202 105.102L29.8093 108.798L34.7377 90.9324L33.0681 90.1734C31.6838 89.5442 30.112 89.4652 28.6716 89.9524C27.2312 90.4397 26.0301 91.4566 25.312 92.797L18.7202 105.102Z" fill="black" fill-opacity="0.25"/>
<path d="M51.3713 88.4681L57.5321 95.2445L64.9245 83.5394L55.6836 78.6111L51.3713 88.4681Z" fill="#3E66FB"/>
<path d="M51.3713 88.4681L57.5321 95.2445L64.9245 83.5394L55.6836 78.6111L51.3713 88.4681Z" fill="black" fill-opacity="0.25"/>
<path d="M33.198 71.5263C39.0049 73.7159 45.2022 73.4889 51.6797 71.5263V64.1335H33.198V71.5263Z" fill="#2F2E41"/>
<path d="M321.406 198.429L315.035 201.084L272.564 143.216L241.772 202.146L233.809 200.553L257.168 119.326H284.243L321.406 198.429Z" fill="#2F2E41"/>
<path d="M329.953 211.929C329.6 212.025 329.231 212.051 328.868 212.004C328.505 211.957 328.155 211.839 327.838 211.656L314.402 203.921C314.039 203.712 313.73 203.423 313.497 203.075C313.264 202.727 313.115 202.33 313.06 201.916C313.005 201.501 313.046 201.079 313.181 200.683C313.315 200.286 313.539 199.926 313.835 199.63L315.035 198.43L321.406 197.899L331.145 207.248C331.499 207.588 331.757 208.016 331.892 208.488C332.027 208.96 332.034 209.46 331.913 209.936C331.792 210.412 331.546 210.847 331.202 211.197C330.858 211.547 330.427 211.8 329.953 211.929Z" fill="#2F2E41"/>
<path d="M225.792 214.052C226.146 214.148 226.514 214.174 226.877 214.127C227.24 214.08 227.591 213.962 227.908 213.78L241.343 206.044C241.706 205.835 242.016 205.546 242.249 205.198C242.481 204.85 242.631 204.454 242.686 204.039C242.741 203.624 242.699 203.202 242.565 202.806C242.431 202.41 242.207 202.05 241.911 201.754L240.71 200.553L234.339 200.022L224.6 209.371C224.246 209.712 223.988 210.139 223.854 210.612C223.719 211.084 223.712 211.583 223.833 212.059C223.954 212.535 224.199 212.97 224.543 213.32C224.888 213.67 225.319 213.923 225.792 214.052Z" fill="#2F2E41"/>
<path d="M239.117 34.9136L236.463 36.5063L230.962 27.5674C230.624 27.0184 230.423 26.3962 230.376 25.7533C230.329 25.1104 230.438 24.4656 230.692 23.8733C230.947 23.2811 231.34 22.7587 231.838 22.3502C232.337 21.9418 232.927 21.6592 233.558 21.5264C234.118 21.4083 234.698 21.4116 235.258 21.5359C235.817 21.6601 236.344 21.9026 236.802 22.2471C237.26 22.5915 237.639 23.0299 237.914 23.5329C238.189 24.0359 238.353 24.5918 238.395 25.1634L239.117 34.9136Z" fill="#FFB9B9"/>
<path d="M312.65 104.508L313.751 101.615L323.602 105.238C324.207 105.461 324.749 105.826 325.184 106.302C325.618 106.778 325.932 107.352 326.098 107.975C326.264 108.598 326.278 109.251 326.139 109.881C325.999 110.51 325.711 111.097 325.297 111.591C324.929 112.031 324.472 112.386 323.955 112.635C323.439 112.883 322.875 113.018 322.302 113.031C321.729 113.043 321.16 112.933 320.633 112.708C320.106 112.482 319.633 112.147 319.246 111.724L312.65 104.508Z" fill="#FFB9B9"/>
<path d="M270.971 66.7674C275.369 66.7674 278.934 63.2021 278.934 58.804C278.934 54.4059 275.369 50.8406 270.971 50.8406C266.573 50.8406 263.007 54.4059 263.007 58.804C263.007 63.2021 266.573 66.7674 270.971 66.7674Z" fill="#FFB9B9"/>
<path d="M277.873 75.7926H266.724V63.5822L276.28 62.5203L277.873 75.7926Z" fill="#FFB9B9"/>
<path d="M285.836 122.511H255.575C256.642 105.627 257.487 89.3104 255.575 80.0399L257.335 71.594C257.578 70.4237 258.254 69.3881 259.226 68.693C260.199 67.998 261.397 67.6944 262.583 67.8427L266.724 68.3602C269.528 73.2897 272.916 73.2422 276.811 68.8911H281.798C282.463 68.8911 283.121 69.0237 283.734 69.2812C284.347 69.5387 284.903 69.9159 285.368 70.3907C285.834 70.8655 286.2 71.4283 286.445 72.0463C286.69 72.6643 286.81 73.3251 286.797 73.9898C288.096 79.9385 288.528 86.0439 288.08 92.1163L285.836 122.511Z" fill="#3F3D56"/>
<path d="M234.87 34.9137L239.117 32.7903L261.946 70.4839L255.575 80.0398L234.87 34.9137Z" fill="#3F3D56"/>
<path d="M312.71 106.018L316.339 102.957L297.053 75.9316C295.166 73.2877 292.565 71.2361 289.555 70.0171C286.544 68.7981 283.248 68.4623 280.053 69.0488L279.445 69.1606L286.737 81.9227L296.343 89.1949L312.71 106.018Z" fill="#3F3D56"/>
<path d="M280.181 54.1032C280.181 54.1032 281.669 50.8295 277.8 49.3414C277.8 49.3414 274.526 43.9844 267.979 47.5558C267.979 47.5558 263.514 49.3414 263.514 54.1032C263.514 58.865 262.026 59.7578 262.026 59.7578C262.026 59.7578 264.242 57.4844 264.838 55.6988C265.433 53.9131 270.062 53.508 271.848 55.2936C273.633 57.0793 278.097 56.7817 278.097 56.7817L277.8 63.3291C277.8 63.3291 279.288 59.4602 279.883 59.4602C280.478 59.4602 281.073 54.1032 280.181 54.1032Z" fill="#2F2E41"/>
<path d="M279.445 232.311C306.356 232.311 328.172 231.175 328.172 229.773C328.172 228.372 306.356 227.235 279.445 227.235C252.535 227.235 230.719 228.372 230.719 229.773C230.719 231.175 252.535 232.311 279.445 232.311Z" fill="#E6E6E6"/>
<path d="M36.162 231.114C50.3863 231.114 61.9173 230.514 61.9173 229.773C61.9173 229.032 50.3863 228.432 36.162 228.432C21.9378 228.432 10.4067 229.032 10.4067 229.773C10.4067 230.514 21.9378 231.114 36.162 231.114Z" fill="#E6E6E6"/>
<path d="M232.941 45.4669L76.3665 59.4997C75.5977 59.5677 74.8333 59.3279 74.241 58.8331C73.6487 58.3382 73.2769 57.6287 73.2071 56.86L69.7262 18.0206C69.6582 17.2518 69.8979 16.4874 70.3928 15.8952C70.8876 15.3029 71.5972 14.931 72.3658 14.8612L228.94 0.828478C229.709 0.760486 230.473 1.00021 231.066 1.49506C231.658 1.98992 232.03 2.69949 232.1 3.46813L235.58 42.3075C235.648 43.0763 235.409 43.8407 234.914 44.433C234.419 45.0253 233.709 45.3971 232.941 45.4669Z" fill="#3E66FB"/>
<path d="M232.941 45.4669L76.3665 59.4997C75.5977 59.5677 74.8333 59.3279 74.241 58.8331C73.6487 58.3382 73.2769 57.6287 73.2071 56.86L69.7262 18.0206C69.6582 17.2518 69.8979 16.4874 70.3928 15.8952C70.8876 15.3029 71.5972 14.931 72.3658 14.8612L228.94 0.828478C229.709 0.760486 230.473 1.00021 231.066 1.49506C231.658 1.98992 232.03 2.69949 232.1 3.46813L235.58 42.3075C235.648 43.0763 235.409 43.8407 234.914 44.433C234.419 45.0253 233.709 45.3971 232.941 45.4669Z" fill="black" fill-opacity="0.25"/>
<path d="M94.6631 47.5881C101.416 47.5881 106.89 42.114 106.89 35.3613C106.89 28.6086 101.416 23.1345 94.6631 23.1345C87.9104 23.1345 82.4363 28.6086 82.4363 35.3613C82.4363 42.114 87.9104 47.5881 94.6631 47.5881Z" fill="white"/>
<path d="M122.061 24.7221C121.523 24.7713 121.027 25.0318 120.681 25.4464C120.336 25.8609 120.168 26.3957 120.217 26.9334C120.265 27.471 120.524 27.9676 120.938 28.314C121.352 28.6605 121.887 28.8286 122.424 28.7815L218.108 20.2059C218.375 20.1824 218.635 20.1065 218.872 19.9826C219.11 19.8586 219.32 19.6891 219.492 19.4837C219.664 19.2782 219.794 19.0409 219.874 18.7853C219.954 18.5297 219.983 18.2609 219.959 17.9941C219.935 17.7273 219.859 17.4678 219.735 17.2306C219.61 16.9933 219.441 16.7828 219.235 16.6112C219.029 16.4396 218.792 16.3103 218.536 16.2306C218.28 16.1508 218.011 16.1223 217.745 16.1466L122.061 24.7221Z" fill="white"/>
<path d="M123.152 36.9001C122.885 36.9235 122.625 36.9993 122.388 37.1232C122.15 37.2471 121.939 37.4166 121.767 37.622C121.595 37.8275 121.465 38.0649 121.385 38.3205C121.305 38.5762 121.276 38.8452 121.3 39.112C121.324 39.3789 121.4 39.6384 121.525 39.8758C121.649 40.1131 121.819 40.3236 122.025 40.4952C122.231 40.6668 122.468 40.7961 122.724 40.8758C122.98 40.9554 123.249 40.9839 123.516 40.9594L219.2 32.3839C219.467 32.3604 219.726 32.2845 219.964 32.1605C220.201 32.0366 220.412 31.8671 220.584 31.6616C220.756 31.4562 220.885 31.2189 220.965 30.9633C221.045 30.7077 221.074 30.4388 221.05 30.1721C221.026 29.9053 220.95 29.6458 220.826 29.4085C220.702 29.1713 220.532 28.9608 220.326 28.7892C220.12 28.6176 219.883 28.4883 219.627 28.4085C219.372 28.3288 219.103 28.3003 218.836 28.3246L123.152 36.9001Z" fill="white"/>
</g>
<defs>
<clipPath id="clip0">
<rect width="331.189" height="231.494" fill="white" transform="translate(0.811035 0.816895)"/>
</clipPath>
</defs>
</svg>
