<svg width="536" height="394" viewBox="0 0 536 394" fill="none" xmlns="http://www.w3.org/2000/svg">
<g opacity="0.5" clip-path="url(#clip0)">
<path d="M250.725 283.508C250.408 283.663 250.098 283.811 249.781 283.973C245.54 286.068 241.475 288.502 237.626 291.253C237.324 291.459 237.021 291.681 236.726 291.894C227.532 298.609 219.664 306.972 213.521 316.558C212.135 318.712 210.851 320.932 209.656 323.196C208.742 324.952 207.881 326.736 207.075 328.551C204.043 335.432 201.344 343.287 195.377 347.506C194.736 347.966 194.06 348.376 193.356 348.73C193.296 348.76 193.23 348.789 193.171 348.819C193.137 344.956 192.549 341.119 191.423 337.424C191.239 336.804 191.032 336.184 190.811 335.58C190.708 335.292 190.604 335.004 190.487 334.724C189.753 332.784 188.858 330.908 187.809 329.119C184.822 323.851 180.476 319.48 175.226 316.462C173.712 320.215 171.785 323.787 169.48 327.113C171.221 323.454 173.109 319.885 175.182 316.433C175.231 316.338 175.288 316.246 175.351 316.16C175.661 315.629 175.986 315.105 176.31 314.582C181.314 306.355 187.665 299.027 195.097 292.905C200.242 288.776 206.007 285.485 212.179 283.154C224.423 278.53 238.017 277.866 249.833 283.103C250.135 283.236 250.43 283.368 250.725 283.508Z" fill="#F0F0F0"/>
<path d="M250.6 283.907C250.327 283.929 250.054 283.951 249.781 283.973C244.033 284.454 238.356 285.569 232.854 287.299C232.581 287.388 232.3 287.476 232.02 287.565C224.401 290.036 217.211 293.671 210.704 298.341C210.637 298.385 210.563 298.436 210.497 298.488C208.985 299.587 207.512 300.743 206.079 301.955C203.328 304.174 200.945 306.815 199.02 309.78C197.504 312.264 196.587 315.067 196.343 317.967C196.313 318.255 196.291 318.55 196.269 318.837C196.262 319.073 196.247 319.302 196.24 319.538C196.173 321.751 196.276 324 196.062 326.205C195.977 327.21 195.799 328.205 195.532 329.178C195 331.058 193.982 332.765 192.581 334.127C192.037 334.664 191.444 335.151 190.811 335.58C190.708 335.292 190.604 335.004 190.487 334.724C191.113 334.289 191.696 333.795 192.227 333.249C193.215 332.238 193.972 331.025 194.447 329.694C194.806 328.655 195.044 327.579 195.155 326.486C195.406 324.317 195.303 322.09 195.354 319.929C195.369 319.368 195.399 318.815 195.443 318.269C195.625 315.475 196.402 312.752 197.722 310.282C199.489 307.229 201.764 304.5 204.449 302.213C206.131 300.708 207.889 299.29 209.715 297.965C209.951 297.788 210.188 297.611 210.431 297.448C222.051 289.239 235.655 284.286 249.833 283.103C250.106 283.073 250.371 283.059 250.644 283.036C251.205 282.992 251.16 283.87 250.6 283.907Z" fill="white"/>
<path d="M209.926 298.319C208.443 295.969 207.844 293.168 208.236 290.417C208.627 287.666 209.984 285.144 212.064 283.3C212.486 282.929 213.083 283.567 212.66 283.939C210.72 285.652 209.457 288.002 209.097 290.564C208.738 293.127 209.307 295.734 210.7 297.914C211.003 298.388 210.227 298.79 209.926 298.319Z" fill="white"/>
<path d="M196.078 317.907C201.608 319.21 207.425 318.381 212.37 315.586C212.86 315.309 213.265 316.084 212.776 316.361C207.624 319.26 201.568 320.11 195.817 318.741C195.269 318.61 195.533 317.776 196.078 317.907Z" fill="white"/>
<path d="M232.748 287.047C233.133 288.075 233.767 288.993 234.593 289.716C235.419 290.44 236.413 290.946 237.483 291.191C238.033 291.315 237.768 292.148 237.222 292.025C236.041 291.749 234.944 291.188 234.03 290.391C233.115 289.594 232.409 288.585 231.974 287.452C231.924 287.348 231.916 287.23 231.95 287.12C231.984 287.011 232.059 286.918 232.159 286.862C232.262 286.809 232.381 286.798 232.492 286.833C232.602 286.868 232.694 286.944 232.748 287.047Z" fill="white"/>
<path d="M267.343 348.553C267.004 348.487 266.665 348.421 266.325 348.369L266.318 348.362H266.303C261.659 347.471 256.95 346.966 252.223 346.85H252.215C251.847 346.835 251.485 346.82 251.124 346.82H251.116C239.732 346.643 228.415 348.584 217.74 352.543C217.726 352.551 217.718 352.551 217.704 352.558C213.453 354.135 209.33 356.036 205.371 358.245C201.145 360.598 196.793 363.363 192.279 364.971C191.374 365.303 190.451 365.579 189.513 365.797C189.734 365.325 189.948 364.846 190.147 364.367C191.619 360.848 192.565 357.133 192.957 353.34C192.994 353.023 193.024 352.706 193.046 352.381C193.142 351.201 193.186 350.006 193.171 348.819C193.137 344.956 192.548 341.119 191.423 337.424C191.239 336.804 191.032 336.185 190.811 335.58C190.708 335.292 190.604 335.005 190.487 334.724C189.753 332.784 188.858 330.909 187.809 329.119C188.48 328.846 189.159 328.58 189.837 328.33C191.593 327.666 193.37 327.054 195.155 326.486H195.163C195.458 326.39 195.76 326.294 196.062 326.206C200.505 324.837 205.051 323.831 209.656 323.196C212.179 322.855 214.717 322.644 217.261 322.562C223.837 322.365 230.403 323.203 236.718 325.048C236.733 325.055 236.748 325.055 236.763 325.062C249.331 328.735 260.579 336.391 266.871 347.69C267.033 347.978 267.188 348.258 267.343 348.553Z" fill="#F0F0F0"/>
<path d="M267.004 348.797C266.775 348.649 266.554 348.509 266.325 348.369L266.318 348.361C261.437 345.282 256.23 342.754 250.792 340.824C250.519 340.72 250.238 340.625 249.966 340.536C242.387 337.915 234.447 336.487 226.429 336.302C226.341 336.295 226.26 336.295 226.178 336.295C224.312 336.258 222.449 336.295 220.587 336.406C217.056 336.521 213.566 337.196 210.247 338.405C207.54 339.474 205.12 341.161 203.18 343.331C202.974 343.545 202.782 343.759 202.598 343.98C202.443 344.165 202.295 344.342 202.148 344.526C200.134 347.026 198.364 349.822 195.775 351.791C195.62 351.909 195.465 352.02 195.311 352.116C194.581 352.621 193.79 353.033 192.957 353.34C192.994 353.023 193.024 352.706 193.046 352.381C193.59 352.156 194.111 351.879 194.602 351.555C194.868 351.378 195.126 351.194 195.377 350.995C197.715 349.18 199.382 346.606 201.204 344.298C201.536 343.877 201.867 343.479 202.221 343.088C204.054 340.933 206.335 339.204 208.904 338.021C212.15 336.647 215.608 335.839 219.127 335.631C221.374 335.441 223.629 335.364 225.883 335.403C226.178 335.403 226.473 335.41 226.769 335.425C234.904 335.673 242.954 337.168 250.637 339.858C256.329 341.842 261.775 344.47 266.871 347.69C267.107 347.83 267.336 347.978 267.565 348.125C268.036 348.435 267.476 349.099 267.004 348.797Z" fill="white"/>
<path d="M225.849 335.818C226.08 333.049 227.288 330.452 229.257 328.491C231.226 326.531 233.828 325.333 236.598 325.114C237.159 325.071 237.252 325.941 236.69 325.983C234.11 326.183 231.686 327.298 229.857 329.128C228.027 330.958 226.911 333.381 226.711 335.961C226.667 336.522 225.805 336.376 225.849 335.818V335.818Z" fill="white"/>
<path d="M202.999 343.121C206.629 347.49 211.773 350.331 217.404 351.077C217.962 351.15 217.819 352.012 217.262 351.939C211.403 351.152 206.056 348.185 202.288 343.63C201.929 343.195 202.642 342.689 202.999 343.121Z" fill="white"/>
<path d="M250.859 340.558C250.546 341.611 250.5 342.725 250.724 343.8C250.948 344.875 251.436 345.878 252.144 346.718C252.508 347.147 251.795 347.653 251.433 347.226C250.656 346.295 250.118 345.187 249.868 343.999C249.617 342.812 249.661 341.582 249.996 340.415C250.019 340.303 250.083 340.203 250.176 340.136C250.27 340.069 250.385 340.04 250.499 340.055C250.613 340.075 250.715 340.139 250.782 340.233C250.849 340.327 250.877 340.444 250.859 340.558Z" fill="white"/>
<path d="M34.2993 177.171C22.8968 160.949 18.911 138.395 28.5144 121.048C36.6335 141.023 51.557 157.484 70.6444 167.516C78.0196 171.358 86.6227 174.864 89.8928 182.51C91.9277 187.267 91.3822 192.813 89.5346 197.646C87.6867 202.479 84.6409 206.745 81.6275 210.952L81.4429 212.23C63.3172 204.19 45.7018 193.393 34.2993 177.171Z" fill="#F0F0F0"/>
<path d="M28.9023 121.198C29.0292 137.61 34.3242 153.564 44.0353 166.795C46.0753 169.681 48.5574 172.227 51.3902 174.339C54.2162 176.308 57.5179 177.484 60.9522 177.745C64.1495 178.053 67.4556 177.998 70.5223 179.078C72.0839 179.654 73.5061 180.553 74.6956 181.717C75.8852 182.882 76.8151 184.284 77.4246 185.833C79.0436 189.652 79.1936 193.826 79.1985 197.912C79.2038 202.449 79.1375 207.162 81.1754 211.336C81.4224 211.842 80.6231 212.196 80.3766 211.691C76.8309 204.428 79.4525 196.101 77.4194 188.508C76.4708 184.965 74.4485 181.686 70.971 180.191C67.93 178.883 64.5207 178.937 61.2807 178.653C57.9267 178.447 54.6741 177.423 51.807 175.671C48.8758 173.709 46.2997 171.263 44.1892 168.438C39.3362 162.152 35.5018 155.142 32.8264 147.665C29.7257 139.148 28.1047 130.164 28.0337 121.101C28.0295 120.54 28.8982 120.641 28.9023 121.198H28.9023Z" fill="white"/>
<path d="M40.6577 162.719C38.2165 164.047 35.3828 164.464 32.6626 163.895C29.9424 163.327 27.5128 161.81 25.8078 159.616C25.4644 159.171 26.1401 158.616 26.484 159.062C28.0679 161.108 30.3312 162.521 32.8653 163.045C35.3994 163.569 38.0375 163.17 40.3033 161.92C40.796 161.649 41.1475 162.45 40.6577 162.719Z" fill="white"/>
<path d="M59.3105 177.803C60.9684 172.37 60.5173 166.511 58.0474 161.396C57.8023 160.889 58.6014 160.535 58.8463 161.041C61.4066 166.369 61.8636 172.467 60.126 178.117C59.96 178.656 59.1455 178.338 59.3105 177.803Z" fill="white"/>
<path d="M30.8824 139.217C31.934 138.9 32.8904 138.327 33.6657 137.549C34.4411 136.771 35.011 135.813 35.3244 134.76C35.4835 134.22 36.2979 134.538 36.1399 135.075C35.7882 136.236 35.1575 137.294 34.3027 138.155C33.448 139.016 32.3954 139.655 31.2367 140.016C31.1304 140.059 31.0116 140.06 30.9045 140.019C30.7974 139.978 30.71 139.897 30.6601 139.794C30.6137 139.688 30.6111 139.568 30.6527 139.46C30.6943 139.352 30.7768 139.265 30.8824 139.217Z" fill="white"/>
<path d="M94.5008 108.671C94.411 109.011 94.3213 109.351 94.2363 109.697C93.0535 114.277 92.2447 118.945 91.818 123.656C91.7792 124.019 91.7453 124.388 91.7171 124.753C90.8099 136.112 92.0198 147.542 95.2852 158.46C96.5886 162.804 98.2206 167.042 100.167 171.138C102.855 176.794 106.22 182.713 106.864 188.75C106.938 189.379 106.973 190.012 106.969 190.645L83.017 212.356C82.9378 212.378 82.8632 212.406 82.7838 212.428L81.8671 213.339C81.7519 213.135 81.6369 212.92 81.5218 212.716C81.4545 212.598 81.3925 212.475 81.3252 212.357C81.2821 212.276 81.2391 212.196 81.1956 212.126C81.1811 212.099 81.1669 212.072 81.1574 212.051C81.1139 211.981 81.0808 211.911 81.0423 211.847C80.396 210.651 79.757 209.448 79.1253 208.239C79.1203 208.233 79.1203 208.233 79.1207 208.223C74.3308 198.996 70.2692 189.288 67.8102 179.273C67.7363 178.972 67.6572 178.665 67.5943 178.354C66.5109 173.833 65.7989 169.232 65.4653 164.595C65.2908 162.055 65.2449 159.509 65.328 156.965C65.5551 150.391 66.8147 143.895 69.0608 137.713C73.5401 125.391 81.9106 114.638 93.6033 109.086C93.9025 108.944 94.1966 108.807 94.5008 108.671Z" fill="#F0F0F0"/>
<path d="M94.7226 109.024C84.9426 122.204 79.5643 138.13 79.3517 154.541C79.2432 158.073 79.6921 161.6 80.682 164.992C81.7531 168.266 83.6811 171.192 86.2659 173.469C88.6334 175.639 91.3064 177.586 93.1049 180.294C94.005 181.694 94.5989 183.269 94.8477 184.914C95.0965 186.56 94.9947 188.24 94.5488 189.843C93.5417 193.867 91.1487 197.29 88.6921 200.556C85.9646 204.182 83.0741 207.905 82.1879 212.464C82.0806 213.017 81.2295 212.818 81.3368 212.266C82.8785 204.333 89.9854 199.263 92.9339 191.976C94.3098 188.576 94.6692 184.741 92.7931 181.453C91.1526 178.578 88.3978 176.568 85.9818 174.391C83.4277 172.208 81.4471 169.432 80.2131 166.306C79.0537 162.976 78.4696 159.472 78.4858 155.945C78.3957 148.004 79.5548 140.099 81.9205 132.518C84.5725 123.851 88.6876 115.702 94.0877 108.423C94.4221 107.973 95.0549 108.576 94.7227 109.024H94.7226Z" fill="white"/>
<path d="M79.1091 149.253C76.3604 148.843 73.8469 147.47 72.0172 145.379C70.1876 143.287 69.161 140.613 69.1209 137.835C69.1202 137.721 69.1636 137.612 69.2419 137.53C69.3202 137.448 69.4273 137.4 69.5405 137.395C69.6538 137.391 69.7644 137.43 69.849 137.506C69.9337 137.581 69.9858 137.686 69.9943 137.799C70.0269 140.387 70.9834 142.877 72.6911 144.822C74.3989 146.766 76.7454 148.036 79.3071 148.402C79.8637 148.482 79.6625 149.333 79.1091 149.253V149.253Z" fill="white"/>
<path d="M84.9205 172.526C89.5155 169.186 92.6827 164.237 93.7906 158.665C93.8999 158.113 94.751 158.312 94.6418 158.863C93.4781 164.659 90.1716 169.803 85.3823 173.268C84.9256 173.598 84.4662 172.854 84.9204 172.526H84.9205Z" fill="white"/>
<path d="M85.4545 124.603C86.485 124.983 87.5937 125.101 88.6812 124.947C89.7686 124.792 90.8007 124.37 91.6847 123.718C92.137 123.383 92.5959 124.127 92.1465 124.46C91.1665 125.176 90.0261 125.641 88.825 125.814C87.6239 125.987 86.3987 125.863 85.2564 125.454C85.1455 125.424 85.05 125.354 84.9893 125.256C84.9287 125.159 84.9074 125.042 84.9299 124.929C84.9566 124.817 85.0268 124.719 85.125 124.658C85.2232 124.597 85.3416 124.577 85.4545 124.603Z" fill="white"/>
<path d="M195.377 347.506C195.163 342.926 194.219 338.409 192.581 334.127C192.471 333.832 192.353 333.544 192.227 333.249C191.541 331.558 190.743 329.914 189.837 328.33C186.646 322.614 181.973 317.865 176.31 314.582C176.199 314.523 176.096 314.464 175.993 314.405C177.735 309.45 178.321 304.162 177.704 298.945C176.391 288.494 170.549 279.194 163.498 271.604C150.421 257.517 132.033 249.102 119.346 234.749C119.184 234.564 119.014 234.373 118.852 234.181C118.682 233.989 118.52 233.79 118.35 233.591C116.669 231.606 115.122 229.511 113.718 227.322C111.324 223.556 109.333 219.549 107.781 215.366C107.242 213.913 106.748 212.43 106.313 210.94C105.878 209.48 105.494 208.005 105.162 206.515C104.838 205.047 104.56 203.572 104.329 202.09C104.1 200.622 103.921 199.147 103.79 197.664C103.657 196.189 103.571 194.714 103.532 193.239C103.338 186.026 104.284 178.827 106.335 171.909C106.401 171.666 106.475 171.43 106.556 171.186C106.63 170.943 106.704 170.699 106.785 170.456C106.851 170.242 106.918 170.036 106.991 169.822C110.406 159.614 116.491 151.022 124.022 143.425C128.728 138.675 133.81 134.286 138.693 129.706C138.87 129.544 139.047 129.374 139.224 129.205C139.409 129.035 139.6 128.858 139.785 128.681C142.878 125.785 145.808 122.719 148.562 119.498C150.155 117.613 151.64 115.638 153.01 113.583C153.976 112.152 154.876 110.67 155.702 109.158C156.498 107.712 157.224 106.237 157.878 104.733C158.504 103.287 159.065 101.805 159.545 100.307C160.012 98.8546 160.398 97.3773 160.702 95.882C161.005 94.4211 161.219 92.9433 161.344 91.4567C161.35 91.4428 161.353 91.4276 161.352 91.4124C162.03 83.8223 159.752 76.2633 154.994 70.311C154.817 70.0824 154.632 69.8611 154.441 69.6398C154.256 69.4112 154.064 69.1899 153.865 68.976C152.886 67.8666 151.826 66.8312 150.694 65.8783C138.59 55.6263 122.739 53.893 108.068 49.3055C107.832 49.2317 107.604 49.1579 107.367 49.0842C107.124 49.0031 106.881 48.9293 106.637 48.8482C102.857 47.646 99.188 46.121 95.6694 44.2901C95.6251 44.268 95.5883 44.2458 95.544 44.2237C93.5544 43.1609 91.6549 41.9374 89.8644 40.5655C88.1316 39.2434 86.5265 37.7618 85.0701 36.1401C84.6941 35.7271 84.3328 35.3067 83.9861 34.8789C83.1674 33.8832 81.81 35.0854 82.2455 36.1401C82.2873 36.2523 82.347 36.3569 82.4223 36.4499C83.622 37.9234 84.9366 39.2995 86.3537 40.5655C88.2082 42.2267 90.216 43.7084 92.3502 44.9908C96.5064 47.4301 100.932 49.3781 105.538 50.7953C105.782 50.8765 106.025 50.9502 106.269 51.0313C106.504 51.1051 106.741 51.1789 106.984 51.2526C115.872 54.0184 125.283 55.7812 133.707 58.9232C140.08 61.2981 146.497 64.5876 151.328 69.4628C151.527 69.6693 151.726 69.8759 151.918 70.0824C152.117 70.2889 152.309 70.5028 152.501 70.7167C153.67 72.0389 154.713 73.4688 155.613 74.9871C158.477 79.9741 159.69 85.7386 159.08 91.4567C158.95 92.9441 158.728 94.422 158.416 95.882C158.095 97.3799 157.686 98.8576 157.192 100.307C156.749 101.642 156.233 102.948 155.665 104.231C155.591 104.401 155.51 104.57 155.436 104.733C154.735 106.259 153.968 107.734 153.135 109.158C152.25 110.685 151.298 112.152 150.28 113.583C146.644 118.534 142.541 123.126 138.029 127.294C137.845 127.471 137.66 127.648 137.476 127.818C137.299 127.988 137.122 128.15 136.952 128.32C128.935 135.872 120.334 142.975 113.821 151.811C109.703 157.438 106.549 163.712 104.491 170.375C104.417 170.618 104.336 170.862 104.27 171.113C104.189 171.356 104.115 171.599 104.048 171.85C102.058 178.8 101.145 186.013 101.341 193.239C101.378 194.714 101.459 196.189 101.592 197.664C101.718 199.147 101.89 200.622 102.108 202.09C102.212 202.82 102.33 203.543 102.462 204.266C102.595 205.018 102.743 205.77 102.912 206.515C103.222 208.005 103.591 209.48 104.004 210.94C104.425 212.43 104.904 213.905 105.428 215.366C107.231 220.437 109.659 225.263 112.656 229.733C113.777 231.393 114.972 232.979 116.241 234.505C116.41 234.704 116.58 234.911 116.75 235.11C116.912 235.309 117.082 235.501 117.251 235.693C122.282 241.49 128.278 246.417 134.444 251.027C150.701 263.174 171.206 275.661 175.233 297.338C176.185 302.707 175.753 308.23 173.979 313.387C171.628 312.298 169.154 311.498 166.611 311.004C158.728 309.609 150.606 310.751 143.413 314.264C143.192 314.375 142.971 314.486 142.75 314.596C142.521 314.722 142.292 314.84 142.071 314.965C137.571 317.324 133.817 320.889 131.228 325.261C130.442 326.665 129.806 328.149 129.333 329.687C128.895 331.129 128.603 332.611 128.462 334.112C128.396 334.798 128.359 335.506 128.352 336.221C128.343 336.995 128.383 337.769 128.47 338.537C128.636 340.058 129.016 341.548 129.598 342.963C130.197 344.444 131.079 345.795 132.195 346.938C132.35 347.093 132.504 347.248 132.667 347.388C134.251 348.75 136.147 349.699 138.187 350.151C140.227 350.602 142.347 350.543 144.358 349.977C145.474 349.688 146.563 349.301 147.61 348.819C147.949 348.671 148.281 348.509 148.606 348.332C148.931 348.17 149.255 347.993 149.58 347.808C152.432 346.102 155.053 344.034 157.376 341.657C161.275 337.757 164.856 333.552 168.086 329.082C168.558 328.433 169.022 327.776 169.48 327.113C171.785 323.787 173.712 320.215 175.225 316.462C180.476 319.48 184.822 323.851 187.809 329.119C188.858 330.908 189.753 332.784 190.486 334.724C190.604 335.004 190.708 335.292 190.811 335.58C191.032 336.185 191.238 336.804 191.423 337.424C192.548 341.119 193.137 344.956 193.171 348.819C193.186 350.006 193.142 351.201 193.046 352.381C193.024 352.706 192.994 353.023 192.957 353.34C192.565 357.133 191.619 360.848 190.147 364.366C189.948 364.846 189.734 365.325 189.513 365.797C185.589 374.002 179.407 380.917 171.692 385.733C167.722 388.257 163.423 390.222 158.917 391.575C157.56 391.988 158.136 394.127 159.508 393.714C173.824 389.392 186.585 378.771 192.279 364.971C193.926 360.994 194.942 356.783 195.288 352.492C195.295 352.366 195.31 352.241 195.31 352.116C195.34 351.74 195.362 351.371 195.377 350.995C195.428 349.837 195.421 348.671 195.377 347.506ZM166.699 327.238C163.543 331.661 160.039 335.824 156.218 339.688C154.481 341.48 152.591 343.116 150.568 344.578C150.266 344.792 149.956 344.998 149.646 345.205C149.336 345.404 149.019 345.596 148.702 345.78C146.943 346.842 145.018 347.6 143.008 348.022C140.422 348.548 137.734 348.073 135.484 346.695C134.019 345.782 132.824 344.493 132.025 342.963C131.951 342.836 131.885 342.706 131.826 342.572C131.234 341.296 130.848 339.934 130.683 338.537C130.497 337.068 130.499 335.581 130.69 334.112C130.841 332.877 131.1 331.658 131.465 330.468C131.546 330.203 131.634 329.945 131.723 329.687C132.274 328.128 133.012 326.642 133.921 325.261C136.351 321.661 139.622 318.707 143.451 316.654C143.672 316.529 143.893 316.411 144.121 316.293C144.335 316.175 144.549 316.064 144.77 315.961C146.398 315.155 148.09 314.488 149.831 313.969C157.557 311.627 165.87 312.151 173.241 315.444C171.56 319.633 169.362 323.594 166.699 327.238V327.238Z" fill="#E4E4E4"/>
<path d="M77.8272 67.1174C96.1584 67.1174 111.019 52.2578 111.019 33.9275C111.019 15.5972 96.1584 0.737549 77.8272 0.737549C59.4961 0.737549 44.6357 15.5972 44.6357 33.9275C44.6357 52.2578 59.4961 67.1174 77.8272 67.1174Z" fill="white"/>
<path d="M77.8271 3.18761e-06C71.8884 -0.00257064 66.0531 1.55357 60.9043 4.51287C55.7556 7.47218 51.4738 11.731 48.487 16.8636C45.5001 21.9963 43.9128 27.8229 43.8837 33.7612C43.8546 39.6996 45.3847 45.5415 48.3211 50.7032C51.2576 55.8648 55.4974 60.1654 60.6169 63.175C65.7364 66.1846 71.5562 67.7979 77.4946 67.8535C83.433 67.9091 89.282 66.4052 94.457 63.492C99.6319 60.5788 103.952 56.3584 106.984 51.2526C107.367 50.6184 107.729 49.9693 108.068 49.3055C110.7 44.1335 111.96 38.373 111.729 32.5747C111.499 26.7765 109.784 21.1344 106.75 16.1878C103.716 11.2412 99.4642 7.15548 94.4004 4.32133C89.3365 1.48718 83.6302 -0.00067663 77.8271 3.18761e-06ZM77.8271 66.3799C70.7392 66.3855 63.8441 64.0724 58.1936 59.7937C52.5431 55.5149 48.4474 49.5053 46.5313 42.6817C44.6153 35.858 44.9841 28.5949 47.5814 22.0004C50.1787 15.4059 54.8621 9.84203 60.9169 6.15754C66.9717 2.47304 74.0657 0.870228 81.1165 1.59361C88.1674 2.31699 94.788 5.32684 99.9685 10.164C105.149 15.0012 108.605 21.4001 109.809 28.3846C111.013 35.3692 109.899 42.5558 106.637 48.8482C106.298 49.512 105.929 50.1611 105.538 50.7954C102.644 55.5517 98.5747 59.4836 93.7216 62.2129C88.8686 64.9422 83.395 66.3772 77.8271 66.3799Z" fill="#E4E4E4"/>
<path d="M61.6002 27.2896L94.0541 27.2896C95.2762 27.2896 96.2668 26.2989 96.2668 25.0769C96.2668 23.8549 95.2762 22.8642 94.0541 22.8642L61.6002 22.8642C60.3781 22.8642 59.3874 23.8549 59.3874 25.0769C59.3874 26.2989 60.3781 27.2896 61.6002 27.2896Z" fill="#E4E4E4"/>
<path d="M61.6002 36.1401L94.0541 36.1401C95.2762 36.1401 96.2668 35.1495 96.2668 33.9275C96.2668 32.7055 95.2762 31.7148 94.0541 31.7148L61.6002 31.7148C60.3781 31.7148 59.3874 32.7055 59.3874 33.9275C59.3874 35.1495 60.3781 36.1401 61.6002 36.1401Z" fill="#E4E4E4"/>
<path d="M61.6002 44.9908L94.0541 44.9908C95.2762 44.9908 96.2668 44.0002 96.2668 42.7782C96.2668 41.5562 95.2762 40.5655 94.0541 40.5655L61.6002 40.5655C60.3781 40.5655 59.3874 41.5562 59.3874 42.7782C59.3874 44.0002 60.3781 44.9908 61.6002 44.9908Z" fill="#E4E4E4"/>
<path d="M104.38 237.492C122.711 237.492 137.572 222.633 137.572 204.302C137.572 185.972 122.711 171.113 104.38 171.113C86.0491 171.113 71.1887 185.972 71.1887 204.302C71.1887 222.633 86.0491 237.492 104.38 237.492Z" fill="white"/>
<path d="M106.785 170.456C106.025 170.405 105.265 170.375 104.491 170.375H104.38C99.3682 170.375 94.4184 171.484 89.8865 173.625C85.3546 175.765 81.3533 178.883 78.1701 182.754C74.9869 186.626 72.7008 191.154 71.4764 196.014C70.2519 200.874 70.1194 205.944 71.0883 210.862C72.0573 215.779 74.1036 220.42 77.0803 224.452C80.057 228.484 83.89 231.807 88.3039 234.181C92.7178 236.556 97.6029 237.923 102.608 238.184C107.613 238.445 112.614 237.594 117.251 235.693C117.959 235.398 118.66 235.081 119.346 234.749C126.038 231.46 131.461 226.057 134.775 219.377C138.089 212.698 139.11 205.112 137.68 197.794C136.25 190.475 132.449 183.832 126.864 178.891C121.28 173.949 114.223 170.985 106.785 170.456ZM104.38 236.755C95.8017 236.755 87.5721 233.358 81.4908 227.308C75.4095 221.258 71.971 213.046 71.9271 204.468C71.8832 195.89 75.2375 187.643 81.2566 181.531C87.2757 175.419 95.4701 171.938 104.048 171.85H104.38C105.037 171.85 105.686 171.872 106.335 171.909C113.517 172.342 120.351 175.149 125.764 179.889C131.176 184.63 134.86 191.034 136.235 198.096C137.611 205.158 136.601 212.477 133.363 218.902C130.126 225.327 124.845 230.494 118.35 233.591C117.657 233.923 116.956 234.225 116.241 234.505C112.464 235.996 108.44 236.759 104.38 236.755V236.755Z" fill="#E4E4E4"/>
<path d="M88.1534 197.665H120.607C121.829 197.665 122.82 196.674 122.82 195.452C122.82 194.23 121.829 193.239 120.607 193.239H88.1534C86.9313 193.239 85.9406 194.23 85.9406 195.452C85.9406 196.674 86.9313 197.665 88.1534 197.665Z" fill="#E4E4E4"/>
<path d="M88.1534 206.515H120.607C121.829 206.515 122.82 205.524 122.82 204.302C122.82 203.08 121.829 202.09 120.607 202.09H88.1534C86.9313 202.09 85.9406 203.08 85.9406 204.302C85.9406 205.524 86.9313 206.515 88.1534 206.515Z" fill="#E4E4E4"/>
<path d="M88.1534 215.366H120.607C121.829 215.366 122.82 214.375 122.82 213.153C122.82 211.931 121.829 210.941 120.607 210.941H88.1534C86.9313 210.941 85.9406 211.931 85.9406 213.153C85.9406 214.375 86.9313 215.366 88.1534 215.366Z" fill="#E4E4E4"/>
<path d="M117.657 369.515C135.988 369.515 150.848 354.655 150.848 336.325C150.848 317.994 135.988 303.135 117.657 303.135C99.3257 303.135 84.4653 317.994 84.4653 336.325C84.4653 354.655 99.3257 369.515 117.657 369.515Z" fill="white"/>
<path d="M144.77 315.961C144.335 315.378 143.886 314.818 143.413 314.264C138.56 308.603 131.977 304.699 124.682 303.155C117.386 301.612 109.785 302.516 103.055 305.727C96.3255 308.939 90.8414 314.278 87.4517 320.92C84.062 327.561 82.9557 335.135 84.3038 342.468C85.652 349.802 89.3796 356.487 94.9097 361.489C100.44 366.491 107.464 369.531 114.896 370.139C122.329 370.747 129.754 368.889 136.023 364.852C142.293 360.816 147.058 354.825 149.58 347.808C149.966 346.75 150.296 345.671 150.568 344.578C151.797 339.677 151.915 334.564 150.912 329.612C149.908 324.661 147.81 319.996 144.77 315.961ZM117.657 368.777C112.227 368.78 106.883 367.421 102.115 364.824C97.3462 362.227 93.3056 358.475 90.363 353.912C87.4203 349.349 85.6697 344.12 85.2714 338.705C84.8731 333.29 85.8399 327.862 88.0832 322.917C90.3266 317.972 93.7747 313.67 98.1119 310.403C102.449 307.136 107.537 305.01 112.908 304.219C118.28 303.427 123.765 303.997 128.86 305.874C133.955 307.752 138.497 310.877 142.071 314.965C142.55 315.511 143.008 316.071 143.451 316.654C146.577 320.743 148.684 325.517 149.597 330.582C150.51 335.647 150.203 340.857 148.702 345.78C148.391 346.811 148.027 347.826 147.61 348.819C145.139 354.726 140.977 359.771 135.648 363.322C130.319 366.873 124.06 368.77 117.657 368.777Z" fill="#E4E4E4"/>
<path d="M101.43 329.687H133.884C135.106 329.687 136.097 328.696 136.097 327.474C136.097 326.252 135.106 325.261 133.884 325.261H101.43C100.208 325.261 99.2172 326.252 99.2172 327.474C99.2172 328.696 100.208 329.687 101.43 329.687Z" fill="#E4E4E4"/>
<path d="M101.43 338.537H133.884C135.106 338.537 136.097 337.547 136.097 336.325C136.097 335.103 135.106 334.112 133.884 334.112H101.43C100.208 334.112 99.2172 335.103 99.2172 336.325C99.2172 337.547 100.208 338.537 101.43 338.537Z" fill="#E4E4E4"/>
<path d="M101.43 347.388H133.884C135.106 347.388 136.097 346.397 136.097 345.175C136.097 343.953 135.106 342.963 133.884 342.963H101.43C100.208 342.963 99.2172 343.953 99.2172 345.175C99.2172 346.397 100.208 347.388 101.43 347.388Z" fill="#E4E4E4"/>
<path d="M158.962 135.71C177.293 135.71 192.154 120.85 192.154 102.52C192.154 84.1897 177.293 69.3301 158.962 69.3301C140.631 69.3301 125.771 84.1897 125.771 102.52C125.771 120.85 140.631 135.71 158.962 135.71Z" fill="#E6E6E6"/>
<path d="M158.962 68.5925C157.256 68.5927 155.552 68.7209 153.865 68.9761C153.002 69.1014 152.161 69.2637 151.328 69.4628C145.204 70.8742 139.594 73.9591 135.122 78.3732C130.65 82.7874 127.492 88.3572 126.001 94.4613C124.51 100.565 124.745 106.964 126.678 112.942C128.612 118.921 132.169 124.245 136.952 128.32C137.52 128.799 138.095 129.264 138.693 129.706C142.999 132.917 148.006 135.059 153.302 135.956C158.597 136.853 164.03 136.48 169.154 134.868C174.277 133.255 178.945 130.449 182.771 126.68C186.598 122.912 189.476 118.288 191.166 113.19C192.857 108.092 193.313 102.666 192.497 97.3572C191.68 92.0486 189.615 87.0098 186.471 82.6553C183.326 78.3009 179.193 74.7554 174.41 72.3105C169.628 69.8657 164.333 68.5914 158.962 68.5925ZM158.962 134.972C152.061 134.98 145.34 132.775 139.785 128.681C139.18 128.239 138.597 127.781 138.029 127.295C133.369 123.364 129.911 118.199 128.052 112.392C126.193 106.586 126.009 100.373 127.519 94.4671C129.03 88.5606 132.175 83.1996 136.594 78.9988C141.012 74.798 146.525 71.9276 152.501 70.7167C153.327 70.5471 154.153 70.4143 154.994 70.3111C156.31 70.1481 157.635 70.0668 158.962 70.0677C167.569 70.0677 175.824 73.4868 181.91 79.5728C187.997 85.6588 191.416 93.9132 191.416 102.52C191.416 111.127 187.997 119.381 181.91 125.467C175.824 131.553 167.569 134.972 158.962 134.972V134.972Z" fill="#E4E4E4"/>
<path d="M142.735 95.8821H175.189C176.411 95.8821 177.402 94.8914 177.402 93.6694C177.402 92.4474 176.411 91.4567 175.189 91.4567H142.735C141.513 91.4567 140.522 92.4474 140.522 93.6694C140.522 94.8914 141.513 95.8821 142.735 95.8821Z" fill="white"/>
<path d="M142.735 104.733H175.189C176.411 104.733 177.402 103.742 177.402 102.52C177.402 101.298 176.411 100.307 175.189 100.307H142.735C141.513 100.307 140.522 101.298 140.522 102.52C140.522 103.742 141.513 104.733 142.735 104.733Z" fill="white"/>
<path d="M142.735 113.583H175.189C176.411 113.583 177.402 112.593 177.402 111.371C177.402 110.149 176.411 109.158 175.189 109.158H142.735C141.513 109.158 140.522 110.149 140.522 111.371C140.522 112.593 141.513 113.583 142.735 113.583Z" fill="white"/>
<path d="M350.22 383.199L341.712 380.135L349.483 345.864L362.04 350.385L350.22 383.199Z" fill="#FFB6B6"/>
<path d="M351.214 380.423L342.371 377.237L336.632 375.172C335.23 374.666 333.742 374.442 332.254 374.512C330.765 374.582 329.305 374.944 327.956 375.578C326.607 376.213 325.397 377.106 324.394 378.208C323.39 379.31 322.614 380.599 322.109 382.001L321.984 382.348L349.422 392.224L353.391 381.205L351.214 380.423Z" fill="#2F2E41"/>
<path d="M485.679 371.086L477.878 375.659L456.525 347.748L468.039 340.999L485.679 371.086Z" fill="#FFB6B6"/>
<path d="M486.178 367.376L484.187 368.541L476.074 373.298L470.814 376.381C469.528 377.134 468.403 378.133 467.503 379.321C466.604 380.509 465.947 381.863 465.571 383.305C465.195 384.747 465.107 386.249 465.312 387.725C465.517 389.201 466.01 390.622 466.765 391.907L466.95 392.224L492.101 377.48L486.178 367.376Z" fill="#2F2E41"/>
<path d="M402.137 92.8226C412.132 92.8226 420.234 84.7208 420.234 74.7266C420.234 64.7325 412.132 56.6306 402.137 56.6306C392.142 56.6306 384.04 64.7325 384.04 74.7266C384.04 84.7208 392.142 92.8226 402.137 92.8226Z" fill="#FFB6B6"/>
<path d="M409.135 99.3274L405.344 100.387L392.04 109.896L377.641 126.851C377.641 126.851 372.47 136.546 374.409 147.532C376.348 158.519 380.599 181.406 380.599 181.406C380.599 181.406 415.825 181.164 417.118 179.226C418.411 177.287 418.83 168.48 418.83 168.48L424.001 110.961C424.001 110.961 418.184 101.266 414.952 101.266C412.866 101.196 410.846 100.522 409.135 99.3274Z" fill="#E6E6E6"/>
<path d="M417.856 178.488C417.856 178.488 411.074 178.821 406.55 180.113C402.026 181.406 379.306 180.113 379.306 180.113L367.125 228.585L343.359 365.089L361.799 368.777L394.253 269.945L410.48 300.922L461.373 356.976L475.388 348.125L433.345 281.746L424.001 231.17C424.001 231.17 432.403 202.733 420.769 185.283L417.856 178.488Z" fill="#2F2E41"/>
<path opacity="0.2" d="M405.011 132.471L398.548 180.297L391.769 180.65L405.011 132.471Z" fill="black"/>
<path d="M378.763 185.864C380.8 185.864 382.451 183.882 382.451 181.438C382.451 178.994 380.8 177.013 378.763 177.013C376.727 177.013 375.075 178.994 375.075 181.438C375.075 183.882 376.727 185.864 378.763 185.864Z" fill="#2F2E41"/>
<path d="M397.186 242.491C397.955 241.727 398.546 240.803 398.919 239.785C399.292 238.766 399.437 237.679 399.345 236.599C399.252 235.518 398.923 234.472 398.382 233.532C397.841 232.592 397.1 231.783 396.212 231.161L403.43 205.812L390.368 209.932L385.516 233.372C384.569 234.933 384.228 236.787 384.557 238.583C384.886 240.378 385.862 241.991 387.301 243.115C388.739 244.239 390.54 244.796 392.362 244.682C394.184 244.567 395.9 243.787 397.186 242.491V242.491Z" fill="#FFB6B6"/>
<path d="M411.705 102.841C411.705 102.841 420.409 99.0735 425.693 108.559C430.978 118.044 423.351 151.011 422.281 156.361C421.211 161.712 397.941 229.379 397.941 229.379L385.402 224.954L411.705 102.841Z" fill="#E6E6E6"/>
<path d="M424.535 45.1075C425.303 46.2634 425.733 47.6111 425.775 48.9984C425.818 50.3856 425.472 51.7571 424.776 52.958C424.015 51.6018 422.796 50.5617 421.336 50.0248C419.877 49.4879 418.274 49.4894 416.815 50.0292C415.357 50.569 414.139 51.6115 413.381 52.9692C412.623 54.3269 412.375 55.9105 412.68 57.4351C403.891 53.5903 399.596 51.5874 390.457 54.504C388.38 55.1049 386.416 56.042 384.642 57.2783C382.744 58.7198 381.265 60.6416 380.357 62.8454C379.45 65.0492 379.147 67.4552 379.48 69.8152C385.037 69.3872 384.693 70.4343 390.25 70.0063L389.994 69.4152C392.219 73.4881 393.219 78.1172 392.874 82.7452C392.529 87.3732 390.853 91.8028 388.049 95.5006C387.232 96.408 386.533 97.4155 385.97 98.499C385.694 99.0453 385.568 99.6546 385.603 100.265C385.638 100.876 385.834 101.467 386.17 101.978C386.713 102.578 387.418 103.009 388.2 103.218C389.908 103.793 391.715 104.017 393.511 103.875C395.308 103.733 397.057 103.228 398.653 102.391C400.249 101.554 401.659 100.403 402.798 99.0061C403.936 97.6092 404.78 95.9962 405.278 94.2642C405.149 97.1476 405.294 100.591 407.738 102.127C409.142 103.01 410.916 102.966 412.573 102.892C416.93 102.698 421.287 102.504 425.645 102.311C424.003 101.357 423.37 99.2305 423.564 97.3414C423.759 95.4523 424.61 93.7056 425.306 91.9386C429.171 82.1241 426.242 71.7316 420.806 62.6921C424.953 62.8753 430.9 58.2571 431.345 54.1307C431.499 52.0562 430.894 49.9963 429.64 48.3358C428.387 46.6753 426.572 45.5278 424.535 45.1075Z" fill="#2F2E41"/>
<path d="M536 391H-506V394H536V391Z" fill="#CACACA"/>
</g>
<defs>
<clipPath id="clip0">
<rect width="536" height="394" fill="white"/>
</clipPath>
</defs>
</svg>
